<?xml version="1.0" standalone="no"?>
<!DOCTYPE svg
  PUBLIC '-//W3C//DTD SVG 1.1//EN'
  'https://www.w3.org/Graphics/SVG/1.1/DTD/svg11.dtd'><svg version="1.1" xmlns="http://www.w3.org/2000/svg"><defs><font horiz-adv-x="0" id="font"><font-face ascent="650" bbox="-259 -248 1396 990" cap-height="680" descent="-200" font-family="Inria Sans" font-stretch="normal" font-style="normal" font-weight="680" units-per-em="1000" x-height="495" /><missing-glyph d="M507 0 89 0L209 680H627ZM282 598 190 81H434L526 598Z" horiz-adv-x="684" /><glyph d="" glyph-name=".null" horiz-adv-x="0" unicode="" /><glyph d="" glyph-name="CR" horiz-adv-x="0" unicode="" /><glyph d="" glyph-name="space" horiz-adv-x="218" unicode=" " /><glyph d="" glyph-name="uni00A0" horiz-adv-x="218" unicode=" " /><glyph d="M512 0 425 0L401 158H146L67 0H-22L323 680H405ZM345 562 243 354L185 237H390L373 354Z" glyph-name="A" horiz-adv-x="577" unicode="A" /><glyph d="M298 0 62 0L182 680H372Q464 680 510 629.5Q556 579 542 495L538 472Q531 430 507.5 398Q484 366 445 347Q489 326 508 285.5Q527 245 518 193L515 170Q501 85 446.5 42.5Q392 0 298 0ZM368 600 255 600L217 385H330Q379 385 409.5 407.5Q440 430 447 471L452 495Q460 545 438 572.5Q416 600 368 600ZM341 305 203 305L163 79H301Q353 79 385 103Q417 127 425 171L429 195Q438 246 414.5 275.5Q391 305 341 305Z" glyph-name="B" horiz-adv-x="586" unicode="B" /><glyph d="M194 411 172 281Q154 179 184 124.5Q214 70 290 70Q327 70 364 77Q401 84 440 99L461 24Q416 7 369.5 -1.5Q323 -10 281 -10Q166 -10 112.5 68.5Q59 147 82 281L104 411Q129 554 196.5 622Q264 690 380 690Q422 690 464.5 679.5Q507 669 549 648L518 571Q477 591 443.5 600Q410 609 376 609Q303 609 257.5 559.5Q212 510 194 411Z" glyph-name="C" horiz-adv-x="533" unicode="C" /><glyph d="M283 0 62 0L182 680H376Q493 680 551 602Q609 524 586 399L563 264Q541 137 468 68.5Q395 0 283 0ZM372 598 255 598L163 81H286Q360 81 408.5 128.5Q457 176 473 264L496 399Q514 493 481 545.5Q448 598 372 598Z" glyph-name="D" horiz-adv-x="637" unicode="D" /><glyph d="M163 81 456 81L442 0H62L182 680H552L537 598H255L217 385H470L455 303H203Z" glyph-name="E" horiz-adv-x="531" unicode="E" /><glyph d="M461 368 446 286H200L149 0H62L182 680H546L531 598H255L214 368Z" glyph-name="F" horiz-adv-x="506" unicode="F" /><glyph d="M555 356 499 41Q448 15 396.5 2.5Q345 -10 293 -10Q173 -10 116.5 68.5Q60 147 83 281L106 411Q130 553 201 621.5Q272 690 394 690Q443 690 490.5 679Q538 668 582 647L551 571Q510 590 471.5 599.5Q433 609 392 609Q312 609 262.5 559Q213 509 196 411L173 281Q155 176 188 122.5Q221 69 303 69Q335 69 365 75.5Q395 82 428 95L461 279H334L349 356Z" glyph-name="G" horiz-adv-x="604" unicode="G" /><glyph d="M533 0 446 0L499 303H202L149 0H62L182 680H269L217 385H514L566 680H653Z" glyph-name="H" horiz-adv-x="683" unicode="H" /><glyph d="M269 680 149 0H62L182 680Z" glyph-name="I" horiz-adv-x="300" unicode="I" /><glyph d="M-18 -7 -3 76Q88 76 126 108Q164 140 179 224L259 680H346L266 224Q242 91 178.5 42Q115 -7 -18 -7Z" glyph-name="J" horiz-adv-x="363" unicode="J" /><glyph d="M538 0 440 0L300 325Q284 310 265 293.5Q246 277 189 229L149 0H62L182 680H269L208 334Q312 424 390 509Q468 594 527 680H627Q567 596 503.5 521.5Q440 447 369 378Z" glyph-name="K" horiz-adv-x="595" unicode="K" /><glyph d="M163 81 449 81L435 0H62L182 680H269Z" glyph-name="L" horiz-adv-x="506" unicode="L" /><glyph d="M182 680 280 680L398 174L698 680H798L678 0H596L647 291L701 547L423 80H341L234 557L196 291L145 0H62Z" glyph-name="M" horiz-adv-x="829" unicode="M" /><glyph d="M145 0 62 0L182 680H273Q349 514 398.5 387.5Q448 261 489 128L527 400L577 680H659L539 0H449Q400 156 349.5 292Q299 428 240 562L194 278Z" glyph-name="N" horiz-adv-x="690" unicode="N" /><glyph d="M384 690Q502 690 560.5 609Q619 528 596 399L573 264Q549 132 477.5 61Q406 -10 295 -10Q176 -10 118 70.5Q60 151 83 282L107 417Q130 548 201.5 619Q273 690 384 690ZM483 264 506 399Q524 498 490.5 553.5Q457 609 380 609Q308 609 260.5 559Q213 509 197 417L173 282Q155 181 188 125.5Q221 70 298 70Q371 70 418.5 120Q466 170 483 264Z" glyph-name="O" horiz-adv-x="647" unicode="O" /><glyph d="M149 0 62 0L182 680H383Q480 680 528.5 625Q577 570 561 480L551 426Q536 339 479.5 293.5Q423 248 329 248H193ZM379 598 255 598L207 329H332Q385 329 419 355Q453 381 461 428L471 481Q482 536 457.5 567Q433 598 379 598Z" glyph-name="P" horiz-adv-x="565" unicode="P" /><glyph d="M366 -2Q376 -57 401 -74.5Q426 -92 502 -94L486 -183Q398 -183 350 -146.5Q302 -110 286 -32L281 -10Q168 -5 114 75Q60 155 83 282L107 417Q130 548 202 619Q274 690 384 690Q502 690 560.5 609Q619 528 596 399L573 264Q554 155 501 87Q448 19 366 -2ZM483 264 506 399Q524 498 491 553.5Q458 609 380 609Q308 609 260.5 559Q213 509 197 417L173 282Q155 182 188 126Q221 70 298 70Q371 70 418.5 120Q466 170 483 264Z" glyph-name="Q" horiz-adv-x="647" unicode="Q" /><glyph d="M337 266 196 266L149 0H62L182 680H384Q479 680 528 625.5Q577 571 562 483L555 440Q545 381 510.5 339.5Q476 298 422 280Q452 213 476 142.5Q500 72 518 0H424Q409 64 387.5 130.5Q366 197 337 266ZM381 600 255 600L210 346H336Q388 346 422.5 371.5Q457 397 465 442L473 485Q482 539 457.5 569.5Q433 600 381 600Z" glyph-name="R" horiz-adv-x="601" unicode="R" /><glyph d="M208 68Q280 68 319.5 99Q359 130 359 186Q359 222 339.5 247.5Q320 273 278 292L206 324Q144 351 115.5 391.5Q87 432 87 493Q87 585 146 637.5Q205 690 313 690Q360 690 405 679Q450 668 495 646L465 571Q421 592 384.5 601.5Q348 611 313 611Q248 611 212.5 581Q177 551 177 498Q177 464 195.5 441Q214 418 257 399L328 367Q391 339 420.5 296.5Q450 254 450 193Q450 98 387 44Q324 -10 208 -10Q156 -10 105.5 2Q55 14 5 38L35 113Q85 89 125.5 78.5Q166 68 208 68Z" glyph-name="S" horiz-adv-x="506" unicode="S" /><glyph d="M273 598 74 598L89 680H572L558 598H360L254 0H167Z" glyph-name="T" horiz-adv-x="509" unicode="T" /><glyph d="M91 244 168 680H258L181 244Q167 161 196.5 115.5Q226 70 296 70Q365 70 407.5 114Q450 158 465 244L542 680H632L555 244Q532 117 466.5 53.5Q401 -10 293 -10Q181 -10 126 60Q71 130 91 244Z" glyph-name="U" horiz-adv-x="648" unicode="U" /><glyph d="M527 680 619 680L282 0H194L96 680H184L231 335L256 118L360 336Z" glyph-name="V" horiz-adv-x="563" unicode="V" /><glyph d="M201 680 209 392L210 126L464 680H546L603 125L701 392L811 680H900L631 0H541L484 554L231 0H141L112 680Z" glyph-name="W" horiz-adv-x="860" unicode="W" /><glyph d="M477 0 386 0L275 273L74 0H-23L240 353L107 680H198L304 420L495 680H593L339 340Z" glyph-name="X" horiz-adv-x="541" unicode="X" /><glyph d="M494 680 590 680L310 271L262 0H175L223 271L87 680H176L280 358Z" glyph-name="Y" horiz-adv-x="524" unicode="Y" /><glyph d="M119 81 440 81L426 0H-2L9 70L413 598H112L127 680H536L523 609Z" glyph-name="Z" horiz-adv-x="508" unicode="Z" /><glyph d="M59 0 -40 0L437 680H855L840 598H558L520 385H773L758 303H506L466 81H759L745 0H365L393 158H169ZM469 591 223 237H407Z" glyph-name="AE" horiz-adv-x="834" unicode="Æ" /><glyph d="M83 281 107 416Q129 542 201.5 611Q274 680 386 680H889L875 598H593L555 385H807L793 303H541L501 81H794L780 0H294Q177 0 119 77.5Q61 155 83 281ZM298 81 414 81L506 598H383Q309 598 260.5 550.5Q212 503 197 416L173 281Q156 186 189 133.5Q222 81 298 81Z" glyph-name="OE" horiz-adv-x="868" unicode="Œ" /><glyph d="M173 81 459 81L445 0H72L120 272L27 232L42 322L136 363L192 680H279L230 404L378 468L363 378L214 313Z" glyph-name="Lslash" horiz-adv-x="516" unicode="Ł" /><glyph d="M294 -10Q252 -10 217.5 0.5Q183 11 156 31L112 -30H29L110 81Q86 120 79.5 171Q73 222 83 282L107 417Q130 548 202 619Q274 690 386 690Q427 690 461.5 679.5Q496 669 523 648L568 710H651L569 597Q593 559 599.5 508.5Q606 458 596 399L573 264Q550 132 477.5 61Q405 -10 294 -10ZM197 417 173 282Q167 249 167 220Q167 191 172 167L472 578Q455 593 432.5 601Q410 609 382 609Q309 609 261 559Q213 509 197 417ZM483 264 506 399Q512 431 512 459.5Q512 488 507 512L207 101Q224 86 246.5 78Q269 70 297 70Q370 70 418 120.5Q466 171 483 264Z" glyph-name="Oslash" horiz-adv-x="648" unicode="Ø" /><glyph d="M39 305 53 384H140L192 680H385Q502 680 560 602.5Q618 525 596 399L572 264Q550 138 477.5 69Q405 0 293 0H72L126 305ZM364 384 350 305H213L173 81H296Q370 81 418.5 128.5Q467 176 482 264L506 399Q523 493 490 545.5Q457 598 381 598H265L227 384Z" glyph-name="Eth" horiz-adv-x="647" unicode="Ð" /><glyph d="M307 128 172 128L149 0H62L182 680H269L248 560H361Q459 560 507 505.5Q555 451 539 360L529 306Q514 219 457.5 173.5Q401 128 307 128ZM357 478 233 478L186 209H310Q363 209 397 235Q431 261 440 308L449 361Q460 416 435.5 447Q411 478 357 478Z" glyph-name="Thorn" horiz-adv-x="564" unicode="Þ" /><glyph d="M546 167 543 151Q528 71 479.5 30.5Q431 -10 349 -10Q310 -10 271.5 -1Q233 8 198 26L229 101Q260 85 290 77Q320 69 350 69Q395 69 421 91Q447 113 455 160L458 176Q466 219 451 246Q436 273 394 291L312 326L323 391L461 585Q441 597 415.5 603.5Q390 610 362 610Q301 610 264 575Q227 540 215 469L132 0H45L128 469Q147 580 206 635Q265 690 364 690Q418 690 468 672.5Q518 655 552 624L542 565L408 377L436 365Q504 335 531.5 285.5Q559 236 546 167Z" glyph-name="uni1E9E" horiz-adv-x="603" unicode="ẞ" /><glyph d="M473 -5 456 -5Q411 -5 385.5 17Q360 39 358 81Q316 35 273.5 12.5Q231 -10 187 -10Q115 -10 80.5 56.5Q46 123 61 228L68 277Q84 386 144 445.5Q204 505 298 505Q346 505 395.5 489Q445 473 493 442L439 135Q433 102 441.5 86Q450 70 473 70H487ZM153 277 146 228Q135 150 151.5 107Q168 64 209 64Q244 64 284 94Q324 124 365 181L404 403Q377 417 352 423.5Q327 430 303 430Q242 430 202.5 390Q163 350 153 277Z" glyph-name="a" horiz-adv-x="549" unicode="a" /><glyph d="M490 266 483 218Q467 107 407.5 48.5Q348 -10 251 -10Q203 -10 154 5.5Q105 21 50 53L172 740H254L196 413Q237 459 278 482Q319 505 362 505Q435 505 470.5 438Q506 371 490 266ZM339 430Q302 430 261 398.5Q220 367 177 306L140 92Q168 78 194 71Q220 64 246 64Q310 64 348.5 103Q387 142 398 218L405 266Q417 344 399.5 387Q382 430 339 430Z" glyph-name="b" horiz-adv-x="553" unicode="b" /><glyph d="M291 429Q235 429 198.5 392Q162 355 151 288L142 234Q128 150 154 107.5Q180 65 245 65Q272 65 302 71Q332 77 366 90L380 19Q340 4 305 -3Q270 -10 238 -10Q135 -10 88.5 55.5Q42 121 61 237L69 288Q87 391 144.5 448Q202 505 289 505Q323 505 360 495.5Q397 486 436 467L407 397Q373 413 344.5 421Q316 429 291 429Z" glyph-name="c" horiz-adv-x="451" unicode="c" /><glyph d="M424 0 346 0L361 88Q319 38 277 14Q235 -10 190 -10Q117 -10 82 56Q47 122 62 228L69 277Q85 388 144.5 446.5Q204 505 301 505Q332 505 363 497.5Q394 490 426 475L473 740H555ZM154 277 147 228Q136 149 153 106.5Q170 64 213 64Q250 64 290.5 95.5Q331 127 376 190L413 401Q385 416 359 423Q333 430 306 430Q242 430 203.5 391Q165 352 154 277Z" glyph-name="d" horiz-adv-x="557" unicode="d" /><glyph d="M396 90 409 20Q369 5 328.5 -2.5Q288 -10 250 -10Q140 -10 90.5 55Q41 120 60 237L69 288Q85 388 145.5 446.5Q206 505 295 505Q373 505 420 464Q467 423 467 352Q467 319 457 286.5Q447 254 427 220H138Q128 141 157.5 102.5Q187 64 257 64Q287 64 323.5 71Q360 78 396 90ZM387 350Q387 389 361.5 410.5Q336 432 292 432Q236 432 198.5 395Q161 358 150 290H374Q380 304 383.5 319Q387 334 387 350Z" glyph-name="e" horiz-adv-x="505" unicode="e" /><glyph d="M392 495 379 423H217L142 0H60L135 423H49L61 495H148L162 577Q178 664 224 707Q270 750 346 750Q376 750 407 742.5Q438 735 466 721L434 655Q410 665 389 670Q368 675 350 675Q305 675 279 651Q253 627 244 578L229 495Z" glyph-name="f" horiz-adv-x="347" unicode="f" /><glyph d="M502 442 424 0Q403 -124 348.5 -173.5Q294 -223 193 -223Q153 -223 114 -215Q75 -207 34 -191L55 -121Q89 -135 123 -142Q157 -149 190 -149Q259 -149 293 -118Q327 -87 342 0L356 79Q316 35 274.5 12.5Q233 -10 190 -10Q117 -10 82 56Q47 122 62 228L69 277Q85 388 144.5 446.5Q204 505 301 505Q352 505 403 489Q454 473 502 442ZM154 277 147 228Q136 149 153 106.5Q170 64 213 64Q250 64 291.5 94.5Q333 125 374 183L413 402Q384 416 358 423Q332 430 306 430Q242 430 203.5 391Q165 352 154 277Z" glyph-name="g" horiz-adv-x="554" unicode="g" /><glyph d="M361 428Q322 428 277.5 400.5Q233 373 182 317L126 0H44L174 740H256L198 409Q245 458 290.5 481.5Q336 505 383 505Q451 505 483.5 456.5Q516 408 502 327L444 0H362L418 320Q428 373 413.5 400.5Q399 428 361 428Z" glyph-name="h" horiz-adv-x="571" unicode="h" /><glyph d="M256 708 241 616H149L164 708ZM214 495 126 0H44L132 495Z" glyph-name="i" horiz-adv-x="260" unicode="i" /><glyph d="M256 708 240 616H148L164 708ZM-103 -223 -90 -145Q-31 -145 -1.5 -116.5Q28 -88 40 -23L132 495H214L122 -23Q102 -134 50 -178.5Q-2 -223 -103 -223Z" glyph-name="j" horiz-adv-x="259" unicode="j" /><glyph d="M446 0 351 0L251 230Q230 212 205.5 192.5Q181 173 153 152L126 0H44L175 740H257L169 244Q256 316 313.5 374.5Q371 433 417 495H515Q473 440 426 388Q379 336 318 278Z" glyph-name="k" horiz-adv-x="508" unicode="k" /><glyph d="M65 125 173 740H255L147 124Q142 92 150 81Q158 70 182 70H197L183 -5H166Q104 -5 79 27.5Q54 60 65 125Z" glyph-name="l" horiz-adv-x="264" unicode="l" /><glyph d="M356 428Q319 428 276.5 400.5Q234 373 182 317L126 0H44L132 495H209L194 405Q242 456 287 480.5Q332 505 378 505Q426 505 456.5 477.5Q487 450 494 401Q543 453 590.5 479Q638 505 686 505Q752 505 783 456Q814 407 800 327L742 0H660L717 320Q726 372 712.5 400Q699 428 664 428Q628 428 585.5 400.5Q543 373 490 317L434 0H352L408 320Q417 372 403.5 400Q390 428 356 428Z" glyph-name="m" horiz-adv-x="869" unicode="m" /><glyph d="M361 428Q323 428 279 400.5Q235 373 183 318L126 0H44L132 495H209L194 404Q243 455 289.5 480Q336 505 383 505Q451 505 483.5 455.5Q516 406 502 327L444 0H362L418 320Q428 373 413 400.5Q398 428 361 428Z" glyph-name="n" horiz-adv-x="571" unicode="n" /><glyph d="M297 505Q399 505 449.5 436.5Q500 368 483 258L475 208Q458 102 399 46Q340 -10 245 -10Q143 -10 92.5 58Q42 126 59 237L67 288Q84 392 143.5 448.5Q203 505 297 505ZM390 208 398 260Q411 338 383.5 384Q356 430 296 430Q238 430 200.5 393Q163 356 152 288L144 235Q132 156 159 110Q186 64 246 64Q305 64 342 101Q379 138 390 208Z" glyph-name="o" horiz-adv-x="543" unicode="o" /><glyph d="M255 -10Q223 -10 192 -2.5Q161 5 129 20L88 -213H6L132 495H209L193 405Q236 455 278.5 480Q321 505 365 505Q438 505 473.5 438.5Q509 372 494 266L487 218Q471 107 411.5 48.5Q352 -10 255 -10ZM342 430Q306 430 265 398.5Q224 367 179 305L142 93Q170 78 196.5 71Q223 64 249 64Q313 64 352 103Q391 142 402 218L409 266Q420 345 402.5 387.5Q385 430 342 430Z" glyph-name="p" horiz-adv-x="556" unicode="p" /><glyph d="M301 505Q349 505 397.5 489.5Q446 474 502 441L386 -213H304L356 81Q315 35 274 12.5Q233 -10 190 -10Q117 -10 82 56Q47 122 62 228L69 277Q85 388 144.5 446.5Q204 505 301 505ZM154 277 147 228Q136 149 153 106.5Q170 64 213 64Q250 64 291 95.5Q332 127 375 189L412 402Q383 416 357.5 423Q332 430 306 430Q242 430 203.5 391Q165 352 154 277Z" glyph-name="q" horiz-adv-x="554" unicode="q" /><glyph d="M393 505 379 422Q324 422 274 395Q224 368 181 314L126 0H44L132 495H209L193 402Q239 453 289.5 479Q340 505 393 505Z" glyph-name="r" horiz-adv-x="367" unicode="r" /><glyph d="M177 63Q231 63 258.5 81.5Q286 100 286 135Q286 160 270.5 176.5Q255 193 216 207L168 226Q116 245 91 277.5Q66 310 66 358Q66 427 112 466Q158 505 242 505Q281 505 319 496Q357 487 398 469L372 399Q338 415 305.5 423Q273 431 240 431Q194 431 171 414Q148 397 148 364Q148 341 162 325Q176 309 208 297L257 279Q315 258 341.5 225.5Q368 193 368 144Q368 73 317.5 31.5Q267 -10 175 -10Q133 -10 92 -1Q51 8 8 27L34 96Q72 79 107 71Q142 63 177 63Z" glyph-name="s" horiz-adv-x="433" unicode="s" /><glyph d="M303 86 321 17Q291 4 259 -3Q227 -10 200 -10Q132 -10 102 32.5Q72 75 84 148L132 423H46L58 495H145L169 633H251L227 495H389L376 423H214L165 148Q158 106 170.5 85.5Q183 65 216 65Q236 65 258.5 70.5Q281 76 303 86Z" glyph-name="t" horiz-adv-x="382" unicode="t" /><glyph d="M427 0 349 0L365 90Q317 39 272.5 14.5Q228 -10 182 -10Q116 -10 85 38.5Q54 87 68 167L126 495H208L152 175Q143 123 156 95Q169 67 203 67Q240 67 282.5 94Q325 121 376 177L432 495H514Z" glyph-name="u" horiz-adv-x="559" unicode="u" /><glyph d="M409 495 493 495L231 0H155L65 495H145L186 254L209 101L286 254Z" glyph-name="v" horiz-adv-x="472" unicode="v" /><glyph d="M643 495 728 495L514 0H419L387 407L208 0H113L74 495H154L168 288L177 82L357 495H445L479 85L558 287Z" glyph-name="w" horiz-adv-x="716" unicode="w" /><glyph d="M391 0 307 0L219 190L68 0H-21L187 257L78 495H162L242 321L380 495H470L275 254Z" glyph-name="x" horiz-adv-x="459" unicode="x" /><glyph d="M231 0 204 -50Q152 -147 99.5 -185Q47 -223 -33 -223L-19 -142Q39 -140 69 -117Q99 -94 136 -28L154 3L65 495H146L188 254L211 102L286 254L409 495H494Z" glyph-name="y" horiz-adv-x="472" unicode="y" /><glyph d="M105 71 347 71L335 0H-8L2 64L299 423H75L88 495H412L401 430Z" glyph-name="z" horiz-adv-x="412" unicode="z" /><glyph d="M667 90 680 20Q639 5 599 -2.5Q559 -10 522 -10Q454 -10 408.5 15.5Q363 41 342 90Q297 40 248 15Q199 -10 146 -10Q86 -10 54 23Q22 56 22 118Q22 195 67.5 236Q113 277 201 277Q229 277 264.5 273.5Q300 270 336 264L347 325Q356 376 330.5 402.5Q305 429 249 429Q219 429 186.5 424Q154 419 119 409L101 477Q146 491 184.5 498Q223 505 255 505Q311 505 349 485Q387 465 405 427Q436 465 477 485Q518 505 568 505Q643 505 690.5 463.5Q738 422 738 352Q738 320 728.5 287.5Q719 255 699 222H410Q399 142 428.5 103Q458 64 529 64Q559 64 595 71Q631 78 667 90ZM657 350Q657 389 632 410.5Q607 432 563 432Q507 432 469.5 394.5Q432 357 421 289H643Q650 304 653.5 319Q657 334 657 350ZM203 212Q155 212 130.5 190Q106 168 106 125Q106 92 120 76Q134 60 163 60Q205 60 246.5 84.5Q288 109 327 157Q326 168 326 178.5Q326 189 327 200Q296 206 262.5 209Q229 212 203 212Z" glyph-name="ae" horiz-adv-x="776" unicode="æ" /><glyph d="M732 90 745 20Q704 5 664.5 -2.5Q625 -10 589 -10Q525 -10 482.5 14Q440 38 420 85Q391 38 346.5 14Q302 -10 244 -10Q143 -10 92.5 58Q42 126 59 237L67 288Q84 392 143 448.5Q202 505 295 505Q353 505 394.5 478.5Q436 452 457 403Q487 453 531.5 479Q576 505 632 505Q707 505 754.5 464Q802 423 802 352Q802 320 792.5 287.5Q783 255 764 222H474Q463 142 492.5 103Q522 64 593 64Q623 64 659 71Q695 78 732 90ZM722 350Q722 389 697 410.5Q672 432 628 432Q572 432 534.5 394.5Q497 357 485 289H707Q715 305 718.5 320Q722 335 722 350ZM390 208 398 260Q411 338 383.5 384Q356 430 296 430Q238 430 200.5 393Q163 356 152 288L144 235Q132 156 159 110Q186 64 246 64Q305 64 342 101Q379 138 390 208Z" glyph-name="oe" horiz-adv-x="841" unicode="œ" /><glyph d="M203 70 217 70L204 -5H187Q125 -5 100 27Q75 59 86 125L118 306L23 257L38 340L132 389L194 740H276L223 436L319 486L304 403L208 353L168 124Q162 93 170 81.5Q178 70 203 70Z" glyph-name="lslash" horiz-adv-x="302" unicode="ł" /><glyph d="M245 -10Q212 -10 183.5 -2.5Q155 5 132 20L92 -30H13L88 65Q66 97 58.5 141Q51 185 59 237L67 288Q84 392 143.5 448.5Q203 505 297 505Q331 505 359.5 497Q388 489 410 474L451 525H530L454 429Q476 395 483.5 351Q491 307 483 258L475 208Q458 102 399 46Q340 -10 245 -10ZM152 288 144 235Q140 207 140.5 183Q141 159 147 139L360 410Q348 420 331.5 425Q315 430 296 430Q238 430 200.5 393Q163 356 152 288ZM390 208 398 260Q402 286 401.5 310Q401 334 396 355L182 84Q194 74 210.5 69Q227 64 246 64Q305 64 342 101Q379 138 390 208Z" glyph-name="oslash" horiz-adv-x="543" unicode="ø" /><glyph d="M486 284 479 244Q457 118 393.5 54Q330 -10 228 -10Q129 -10 80.5 52.5Q32 115 50 220L56 256Q70 342 125 392Q180 442 258 442Q309 442 348 418.5Q387 395 409 349Q412 410 397 464Q382 518 348 566L200 477L214 559L307 615Q287 635 264.5 653.5Q242 672 217 688L260 750Q292 729 321 705.5Q350 682 374 656L530 750L516 668L414 606Q465 535 483 453Q501 371 486 284ZM139 243 133 207Q121 142 148 103Q175 64 232 64Q297 64 337.5 112Q378 160 396 257Q374 310 339.5 338Q305 366 262 366Q216 366 182.5 333Q149 300 139 243Z" glyph-name="eth" horiz-adv-x="538" unicode="ð" /><glyph d="M255 -10Q223 -10 192 -2.5Q161 5 129 20L88 -213H6L174 740H256L198 411Q240 458 281.5 481.5Q323 505 365 505Q438 505 473.5 438.5Q509 372 494 266L487 218Q471 107 411.5 48.5Q352 -10 255 -10ZM342 430Q306 430 265 398.5Q224 367 179 305L142 93Q170 78 196.5 71Q223 64 249 64Q313 64 352 103Q391 142 402 218L409 266Q420 345 402.5 387.5Q385 430 342 430Z" glyph-name="thorn" horiz-adv-x="556" unicode="þ" /><glyph d="M562 153Q562 78 514.5 34Q467 -10 381 -10Q345 -10 308.5 -1.5Q272 7 237 23L263 94Q294 78 323 70Q352 62 380 62Q427 62 453 84.5Q479 107 479 145Q479 166 470 183.5Q461 201 441 218L397 254Q368 278 353.5 306.5Q339 335 339 368Q339 396 350.5 425.5Q362 455 398 506Q428 549 437 570.5Q446 592 446 611Q446 641 423.5 658Q401 675 361 675Q309 675 281 649.5Q253 624 243 569L142 0H60L134 423H49L61 495H147L160 569Q177 661 227 705.5Q277 750 363 750Q439 750 484.5 714.5Q530 679 530 617Q530 586 518 556Q506 526 469 476Q440 436 431 416Q422 396 422 378Q422 360 431 344.5Q440 329 459 312L503 276Q533 251 547.5 221Q562 191 562 153Z" glyph-name="germandbls" horiz-adv-x="611" unicode="ß" /><glyph d="M214 495 126 0H44L132 495Z" glyph-name="dotlessi" horiz-adv-x="259" unicode="ı" /><glyph d="M-103 -223 -90 -145Q-31 -145 -1.5 -116.5Q28 -88 40 -23L131 495H213L122 -23Q102 -134 50 -178.5Q-2 -223 -103 -223Z" glyph-name="dotlessj" horiz-adv-x="259" unicode="ȷ" /><glyph d="M378 675Q318 675 284.5 648.5Q251 622 242 568L229 495H536L449 0H367L441 423H216L142 0H60L135 423H49L61 495H147L160 567Q176 660 230 705Q284 750 379 750Q423 750 466.5 740Q510 730 551 711L520 644Q483 659 446.5 667Q410 675 378 675Z" glyph-name="fi" horiz-adv-x="582" unicode="ﬁ" /><glyph d="M449 0 367 0L442 423H217L142 0H60L135 423H49L61 495H148L161 571Q176 656 219 698Q262 740 335 740Q364 740 393 733Q422 726 447 712L417 646Q393 656 374.5 660.5Q356 665 341 665Q300 665 276 642Q252 619 243 572L229 495H454L467 567Q483 660 537 705Q591 750 686 750Q730 750 773.5 740Q817 730 858 711L827 644Q790 659 753.5 667Q717 675 685 675Q625 675 591.5 648.5Q558 622 549 568L536 495H843L756 0H674L748 423H523Z" glyph-name="ffi" horiz-adv-x="889" unicode="ﬃ" /><glyph d="M512 70 526 70L512 -5H495Q433 -5 408 27.5Q383 60 394 125L489 657Q459 666 431.5 670.5Q404 675 379 675Q319 675 285 648.5Q251 622 242 568L229 495H378L365 423H216L142 0H60L135 423H49L61 495H147L160 567Q176 660 230.5 705Q285 750 381 750Q430 750 480.5 738Q531 726 579 703L476 124Q471 93 479 81.5Q487 70 512 70Z" glyph-name="fl" horiz-adv-x="593" unicode="ﬂ" /><glyph d="M341 665Q300 665 276 642Q252 619 243 572L229 495H454L467 567Q483 660 537.5 705Q592 750 688 750Q737 750 787.5 738Q838 726 886 703L783 124Q778 93 786 81.5Q794 70 819 70H833L819 -5H802Q740 -5 715 27.5Q690 60 701 125L796 657Q766 666 738.5 670.5Q711 675 686 675Q626 675 592 648.5Q558 622 549 568L536 495H691L678 423H523L449 0H367L442 423H217L142 0H60L135 423H49L61 495H148L161 571Q176 656 219 698Q262 740 335 740Q364 740 393 733Q422 726 447 712L417 646Q393 656 374.5 660.5Q356 665 341 665Z" glyph-name="ffl" horiz-adv-x="900" unicode="ﬄ" /><glyph d="M515 -10Q447 -10 417 32.5Q387 75 399 148L448 423H216L142 0H60L135 423H49L61 495H147L160 567Q176 660 230.5 705Q285 750 381 750Q430 750 480.5 738Q531 726 579 703L542 495H704L692 423H530L481 148Q474 106 486 85.5Q498 65 531 65Q551 65 573 70.5Q595 76 618 86L636 17Q607 4 575 -3Q543 -10 515 -10ZM379 675Q319 675 285 648.5Q251 622 242 568L229 495H460L489 657Q459 666 431.5 670.5Q404 675 379 675Z" glyph-name="ft" horiz-adv-x="697" unicode="" /><glyph d="M341 665Q300 665 276 642Q252 619 243 572L229 495H454L467 567Q483 660 537.5 705Q592 750 688 750Q737 750 787.5 738Q838 726 886 703L849 495H1011L999 423H837L788 148Q781 106 793 85.5Q805 65 838 65Q858 65 880 70.5Q902 76 925 86L943 17Q914 4 882 -3Q850 -10 822 -10Q754 -10 724 32.5Q694 75 706 148L755 423H523L449 0H367L442 423H217L142 0H60L135 423H49L61 495H148L161 571Q176 656 219 698Q262 740 335 740Q364 740 393 733Q422 726 447 712L417 646Q393 656 374.5 660.5Q356 665 341 665ZM686 675Q626 675 592 648.5Q558 622 549 568L536 495H767L796 657Q766 666 738.5 670.5Q711 675 686 675Z" glyph-name="fft" horiz-adv-x="1004" unicode="" /><glyph d="M821 266 814 218Q798 107 738.5 48.5Q679 -10 582 -10Q534 -10 484.5 5.5Q435 21 382 53L489 657Q459 666 431.5 670.5Q404 675 379 675Q319 675 285 648.5Q251 622 242 568L229 495H378L365 423H216L142 0H60L135 423H49L61 495H147L160 567Q176 660 230.5 705Q285 750 381 750Q430 750 480.5 738Q531 726 579 703L528 413Q569 459 610 482Q651 505 693 505Q766 505 801.5 438Q837 371 821 266ZM670 430Q634 430 593.5 399Q553 368 509 307L471 92Q500 78 525.5 71Q551 64 577 64Q641 64 679.5 103Q718 142 729 218L736 266Q748 345 731 387.5Q714 430 670 430Z" glyph-name="fb" horiz-adv-x="884" unicode="" /><glyph d="M341 665Q300 665 276 642Q252 619 243 572L229 495H454L467 567Q483 660 537.5 705Q592 750 688 750Q737 750 787.5 738Q838 726 886 703L835 413Q876 459 917 482Q958 505 1000 505Q1073 505 1108.5 438Q1144 371 1128 266L1121 218Q1105 107 1045.5 48.5Q986 -10 889 -10Q841 -10 791.5 5.5Q742 21 689 53L796 657Q766 666 738.5 670.5Q711 675 686 675Q626 675 592 648.5Q558 622 549 568L536 495H691L678 423H523L449 0H367L442 423H217L142 0H60L135 423H49L61 495H148L161 571Q176 656 219 698Q262 740 335 740Q364 740 393 733Q422 726 447 712L417 646Q393 656 374.5 660.5Q356 665 341 665ZM977 430Q941 430 900.5 399Q860 368 816 307L778 92Q807 78 832.5 71Q858 64 884 64Q948 64 986.5 103Q1025 142 1036 218L1043 266Q1055 345 1038 387.5Q1021 430 977 430Z" glyph-name="ffb" horiz-adv-x="1191" unicode="" /><glyph d="M449 0 367 0L442 423H217L142 0H60L135 423H49L61 495H148L161 571Q176 656 219 698Q262 740 335 740Q364 740 393 733Q422 726 447 712L417 646Q393 656 374.5 660.5Q356 665 341 665Q300 665 276 642Q252 619 243 572L229 495H455L469 577Q485 664 531 707Q577 750 653 750Q685 750 715.5 742.5Q746 735 773 721L741 655Q716 665 695.5 670Q675 675 657 675Q612 675 586 651Q560 627 551 578L536 495H699L686 423H524Z" glyph-name="ff" horiz-adv-x="654" unicode="ﬀ" /><glyph d="M449 0 367 0L442 423H217L142 0H60L135 423H49L61 495H148L161 571Q176 656 219 698Q262 740 335 740Q364 740 393 733Q422 726 447 712L417 646Q393 656 374.5 660.5Q356 665 341 665Q300 665 276 642Q252 619 243 572L229 495H455L469 577Q484 662 527 704Q570 746 643 746Q672 746 701 739Q730 732 755 718L725 652Q701 662 682.5 666.5Q664 671 649 671Q608 671 584 648Q560 625 551 578L536 495H762L776 577Q792 664 838 707Q884 750 960 750Q992 750 1022.5 742.5Q1053 735 1080 721L1048 655Q1023 665 1002.5 670Q982 675 964 675Q919 675 893 651Q867 627 858 578L843 495H1006L993 423H831L756 0H674L749 423H524Z" glyph-name="fff" horiz-adv-x="961" unicode="" /><glyph d="M378 495 365 423H216L142 0H60L135 423H49L61 495H147L160 567Q176 660 230.5 705Q285 750 381 750Q430 750 480.5 738Q531 726 579 703L527 410Q574 458 619.5 481.5Q665 505 711 505Q779 505 811.5 456Q844 407 830 327L772 0H690L747 320Q757 373 742 400.5Q727 428 690 428Q651 428 607 400.5Q563 373 511 317L455 0H373L489 657Q459 666 431.5 670.5Q404 675 379 675Q319 675 285 648.5Q251 622 242 568L229 495Z" glyph-name="fh" horiz-adv-x="900" unicode="" /><glyph d="M449 0 367 0L442 423H217L142 0H60L135 423H49L61 495H148L161 571Q176 656 219 698Q262 740 335 740Q364 740 393 733Q422 726 447 712L417 646Q393 656 374.5 660.5Q356 665 341 665Q300 665 276 642Q252 619 243 572L229 495H454L467 567Q483 660 537.5 705Q592 750 688 750Q737 750 787.5 738Q838 726 886 703L834 410Q881 458 926.5 481.5Q972 505 1018 505Q1086 505 1118.5 456Q1151 407 1137 327L1079 0H997L1054 320Q1064 373 1049 400.5Q1034 428 997 428Q958 428 914 400.5Q870 373 818 317L762 0H680L796 657Q766 666 738.5 670.5Q711 675 686 675Q626 675 592 648.5Q558 622 549 568L536 495H691L678 423H523Z" glyph-name="ffh" horiz-adv-x="1207" unicode="" /><glyph d="M378 675Q318 675 284.5 648.5Q251 622 242 568L229 495H536L445 -23Q425 -134 373 -178.5Q321 -223 219 -223L232 -145Q292 -145 321.5 -116.5Q351 -88 363 -23L441 423H216L142 0H60L135 423H49L61 495H147L160 567Q176 660 230 705Q284 750 379 750Q423 750 466.5 740Q510 730 551 711L520 644Q483 659 446.5 667Q410 675 378 675Z" glyph-name="fj" horiz-adv-x="582" unicode="" /><glyph d="M685 675Q625 675 591.5 648.5Q558 622 549 568L536 495H843L752 -23Q732 -134 680 -178.5Q628 -223 526 -223L539 -145Q599 -145 628.5 -116.5Q658 -88 670 -23L748 423H523L449 0H367L442 423H217L142 0H60L135 423H49L61 495H148L161 571Q176 656 219 698Q262 740 335 740Q364 740 393 733Q422 726 447 712L417 646Q393 656 374.5 660.5Q356 665 341 665Q300 665 276 642Q252 619 243 572L229 495H454L467 567Q483 660 537 705Q591 750 686 750Q730 750 773.5 740Q817 730 858 711L827 644Q790 659 753.5 667Q717 675 685 675Z" glyph-name="ffj" horiz-adv-x="889" unicode="" /><glyph d="M378 495 365 423H216L142 0H60L135 423H49L61 495H147L160 567Q176 660 230.5 705Q285 750 381 750Q430 750 480.5 738Q531 726 579 703L498 245Q586 318 643 376Q700 434 745 495H843Q801 440 754 388Q707 336 646 278L774 0H679L579 230Q562 214 540 197Q518 180 481 152L454 0H372L489 657Q459 666 431.5 670.5Q404 675 379 675Q319 675 285 648.5Q251 622 242 568L229 495Z" glyph-name="fk" horiz-adv-x="836" unicode="" /><glyph d="M449 0 367 0L442 423H217L142 0H60L135 423H49L61 495H148L161 571Q176 656 219 698Q262 740 335 740Q364 740 393 733Q422 726 447 712L417 646Q393 656 374.5 660.5Q356 665 341 665Q300 665 276 642Q252 619 243 572L229 495H454L467 567Q483 660 537.5 705Q592 750 688 750Q737 750 787.5 738Q838 726 886 703L805 245Q893 318 950 376Q1007 434 1052 495H1150Q1108 440 1061 388Q1014 336 953 278L1081 0H986L886 230Q869 214 847 197Q825 180 788 152L761 0H679L796 657Q766 666 738.5 670.5Q711 675 686 675Q626 675 592 648.5Q558 622 549 568L536 495H691L678 423H523Z" glyph-name="ffk" horiz-adv-x="1143" unicode="" /><glyph d="M512 0 425 0L401 158H146L67 0H-22L323 680H405ZM345 562 243 354L185 237H390L373 354ZM535 894 415 764H339L458 930Z" glyph-name="Aacute" horiz-adv-x="577" unicode="Á" /><glyph d="M512 0 425 0L401 158H146L67 0H-22L323 680H405ZM345 562 243 354L185 237H390L373 354ZM510 764 446 764L396 859L311 764H242L363 925H446Z" glyph-name="Acircumflex" horiz-adv-x="577" unicode="Â" /><glyph d="M512 0 425 0L401 158H146L67 0H-22L323 680H405ZM345 562 243 354L185 237H390L373 354ZM346 890 331 804H245L260 890ZM537 890 522 804H436L451 890Z" glyph-name="Adieresis" horiz-adv-x="577" unicode="Ä" /><glyph d="M512 0 425 0L401 158H146L67 0H-22L323 680H405ZM345 562 243 354L185 237H390L373 354ZM410 764 343 764L268 894L349 930Z" glyph-name="Agrave" horiz-adv-x="577" unicode="À" /><glyph d="M401 158 146 158L67 0H-22L302 639Q277 654 266 679.5Q255 705 260 737L262 752Q270 798 303 825.5Q336 853 385 853Q438 853 467 821.5Q496 790 488 741L485 726Q480 693 461 669Q442 645 412 634L512 0H425ZM427 732 429 747Q433 769 420 783.5Q407 798 382 798Q358 798 341.5 784Q325 770 321 746L318 732Q314 708 327 694Q340 680 365 680Q389 680 406 694Q423 708 427 732ZM345 562 243 354L185 237H390L373 354Z" glyph-name="Aring" horiz-adv-x="577" unicode="Å" /><glyph d="M512 0 425 0L401 158H146L67 0H-22L323 680H405ZM345 562 243 354L185 237H390L373 354ZM448 773Q425 773 407 783.5Q389 794 369 826Q357 844 350 849.5Q343 855 336 855Q323 855 313.5 838Q304 821 297 785H234Q247 855 271.5 889Q296 923 336 923Q360 923 377.5 912.5Q395 902 416 870Q428 852 434.5 846.5Q441 841 448 841Q461 841 470 857.5Q479 874 486 910H549Q537 840 512.5 806.5Q488 773 448 773Z" glyph-name="Atilde" horiz-adv-x="577" unicode="Ã" /><glyph d="M512 0 425 0L401 158H146L67 0H-22L323 680H405ZM345 562 243 354L185 237H390L373 354ZM387 833Q419 833 438 853Q457 873 467 916H535Q518 842 481 806Q444 770 384 770Q321 770 293 807Q265 844 273 916H336Q331 873 343.5 853Q356 833 387 833Z" glyph-name="Abreve" horiz-adv-x="577" unicode="Ă" /><glyph d="M512 0 425 0L401 158H146L67 0H-22L323 680H405ZM345 562 243 354L185 237H390L373 354ZM250 857 535 857L524 794H238Z" glyph-name="Amacron" horiz-adv-x="577" unicode="Ā" /><glyph d="M471 -143 482 -206Q460 -215 440 -219Q420 -223 400 -223Q355 -223 330.5 -203Q306 -183 306 -146Q306 -109 334 -73.5Q362 -38 424 6L402 158H146L67 0H-22L323 680H405L512 0Q442 -47 413 -76Q384 -105 384 -128Q384 -141 392.5 -148Q401 -155 417 -155Q429 -155 442.5 -152Q456 -149 471 -143ZM345 562 243 354L185 237H390L373 354Z" glyph-name="Aogonek" horiz-adv-x="577" unicode="Ą" /><glyph d="M347 -126Q347 -169 314.5 -196Q282 -223 227 -223Q209 -223 190.5 -219.5Q172 -216 147 -208L161 -152Q177 -158 194 -161Q211 -164 225 -164Q251 -164 265 -155Q279 -146 279 -130Q279 -116 268.5 -109.5Q258 -103 237 -103Q233 -103 229 -103.5Q225 -104 212 -105L196 -67L219 -3Q135 17 98.5 92.5Q62 168 82 281L104 411Q129 554 196.5 622Q264 690 380 690Q422 690 464.5 679.5Q507 669 549 648L518 571Q477 591 443.5 600Q410 609 376 609Q303 609 257.5 559.5Q212 510 194 411L172 281Q154 179 184 124.5Q214 70 290 70Q327 70 364 77Q401 84 440 99L461 24Q416 7 369.5 -1.5Q323 -10 281 -10H275L261 -50Q302 -51 324.5 -71Q347 -91 347 -126Z" glyph-name="Ccedilla" horiz-adv-x="533" unicode="Ç" /><glyph d="M194 411 172 281Q154 179 184 124.5Q214 70 290 70Q327 70 364 77Q401 84 440 99L461 24Q416 7 369.5 -1.5Q323 -10 281 -10Q166 -10 112.5 68.5Q59 147 82 281L104 411Q129 554 196.5 622Q264 690 380 690Q422 690 464.5 679.5Q507 669 549 648L518 571Q477 591 443.5 600Q410 609 376 609Q303 609 257.5 559.5Q212 510 194 411ZM560 894 440 764H364L483 930Z" glyph-name="Cacute" horiz-adv-x="533" unicode="Ć" /><glyph d="M194 411 172 281Q154 179 184 124.5Q214 70 290 70Q327 70 364 77Q401 84 440 99L461 24Q416 7 369.5 -1.5Q323 -10 281 -10Q166 -10 112.5 68.5Q59 147 82 281L104 411Q129 554 196.5 622Q264 690 380 690Q422 690 464.5 679.5Q507 669 549 648L518 571Q477 591 443.5 600Q410 609 376 609Q303 609 257.5 559.5Q212 510 194 411ZM494 925 564 925L442 764H360L295 925H359L410 830Z" glyph-name="Ccaron" horiz-adv-x="533" unicode="Č" /><glyph d="M194 411 172 281Q154 179 184 124.5Q214 70 290 70Q327 70 364 77Q401 84 440 99L461 24Q416 7 369.5 -1.5Q323 -10 281 -10Q166 -10 112.5 68.5Q59 147 82 281L104 411Q129 554 196.5 622Q264 690 380 690Q422 690 464.5 679.5Q507 669 549 648L518 571Q477 591 443.5 600Q410 609 376 609Q303 609 257.5 559.5Q212 510 194 411ZM535 764 471 764L421 859L336 764H267L388 925H471Z" glyph-name="Ccircumflex" horiz-adv-x="533" unicode="Ĉ" /><glyph d="M194 411 172 281Q154 179 184 124.5Q214 70 290 70Q327 70 364 77Q401 84 440 99L461 24Q416 7 369.5 -1.5Q323 -10 281 -10Q166 -10 112.5 68.5Q59 147 82 281L104 411Q129 554 196.5 622Q264 690 380 690Q422 690 464.5 679.5Q507 669 549 648L518 571Q477 591 443.5 600Q410 609 376 609Q303 609 257.5 559.5Q212 510 194 411ZM469 893 454 801H362L377 893Z" glyph-name="Cdotaccent" horiz-adv-x="533" unicode="Ċ" /><glyph d="M283 0 62 0L182 680H376Q493 680 551 602Q609 524 586 399L563 264Q541 137 468 68.5Q395 0 283 0ZM372 598 255 598L163 81H286Q360 81 408.5 128.5Q457 176 473 264L496 399Q514 493 481 545.5Q448 598 372 598ZM493 925 563 925L441 764H359L294 925H358L409 830Z" glyph-name="Dcaron" horiz-adv-x="637" unicode="Ď" /><glyph d="M39 305 53 384H140L192 680H385Q502 680 560 602.5Q618 525 596 399L572 264Q550 138 477.5 69Q405 0 293 0H72L126 305ZM364 384 350 305H213L173 81H296Q370 81 418.5 128.5Q467 176 482 264L506 399Q523 493 490 545.5Q457 598 381 598H265L227 384Z" glyph-name="Dcroat" horiz-adv-x="647" unicode="Đ" /><glyph d="M163 81 456 81L442 0H62L182 680H552L537 598H255L217 385H470L455 303H203ZM537 894 417 764H341L460 930Z" glyph-name="Eacute" horiz-adv-x="531" unicode="É" /><glyph d="M163 81 456 81L442 0H62L182 680H552L537 598H255L217 385H470L455 303H203ZM512 764 448 764L398 859L313 764H244L365 925H448Z" glyph-name="Ecircumflex" horiz-adv-x="531" unicode="Ê" /><glyph d="M163 81 456 81L442 0H62L182 680H552L537 598H255L217 385H470L455 303H203ZM348 890 333 804H247L262 890ZM539 890 524 804H438L453 890Z" glyph-name="Edieresis" horiz-adv-x="531" unicode="Ë" /><glyph d="M163 81 456 81L442 0H62L182 680H552L537 598H255L217 385H470L455 303H203ZM412 764 345 764L270 894L351 930Z" glyph-name="Egrave" horiz-adv-x="531" unicode="È" /><glyph d="M163 81 456 81L442 0H62L182 680H552L537 598H255L217 385H470L455 303H203ZM389 833Q421 833 440 853Q459 873 469 916H537Q520 842 483 806Q446 770 386 770Q323 770 295 807Q267 844 275 916H338Q333 873 345.5 853Q358 833 389 833Z" glyph-name="Ebreve" horiz-adv-x="531" unicode="Ĕ" /><glyph d="M163 81 456 81L442 0H62L182 680H552L537 598H255L217 385H470L455 303H203ZM471 925 541 925L419 764H337L272 925H336L387 830Z" glyph-name="Ecaron" horiz-adv-x="531" unicode="Ě" /><glyph d="M163 81 456 81L442 0H62L182 680H552L537 598H255L217 385H470L455 303H203ZM446 893 431 801H339L354 893Z" glyph-name="Edotaccent" horiz-adv-x="531" unicode="Ė" /><glyph d="M163 81 456 81L442 0H62L182 680H552L537 598H255L217 385H470L455 303H203ZM252 857 537 857L526 794H240Z" glyph-name="Emacron" horiz-adv-x="531" unicode="Ē" /><glyph d="M402 -143 413 -206Q390 -215 369.5 -219Q349 -223 330 -223Q285 -223 260.5 -203Q236 -183 236 -146Q236 -111 263 -76.5Q290 -42 350 0H62L182 680H552L537 598H255L217 385H470L455 303H203L163 81H456L442 0Q372 -47 343 -76Q314 -105 314 -128Q314 -141 322.5 -148Q331 -155 347 -155Q359 -155 372.5 -152Q386 -149 402 -143Z" glyph-name="Eogonek" horiz-adv-x="531" unicode="Ę" /><glyph d="M555 356 499 41Q448 15 396.5 2.5Q345 -10 293 -10Q173 -10 116.5 68.5Q60 147 83 281L106 411Q130 553 201 621.5Q272 690 394 690Q443 690 490.5 679Q538 668 582 647L551 571Q510 590 471.5 599.5Q433 609 392 609Q312 609 262.5 559Q213 509 196 411L173 281Q155 176 188 122.5Q221 69 303 69Q335 69 365 75.5Q395 82 428 95L461 279H334L349 356ZM427 833Q459 833 478 853Q497 873 507 916H575Q558 842 521 806Q484 770 424 770Q361 770 333 807Q305 844 313 916H376Q371 873 383.5 853Q396 833 427 833Z" glyph-name="Gbreve" horiz-adv-x="604" unicode="Ğ" /><glyph d="M555 356 499 41Q448 15 396.5 2.5Q345 -10 293 -10Q173 -10 116.5 68.5Q60 147 83 281L106 411Q130 553 201 621.5Q272 690 394 690Q443 690 490.5 679Q538 668 582 647L551 571Q510 590 471.5 599.5Q433 609 392 609Q312 609 262.5 559Q213 509 196 411L173 281Q155 176 188 122.5Q221 69 303 69Q335 69 365 75.5Q395 82 428 95L461 279H334L349 356ZM550 764 486 764L436 859L351 764H282L403 925H486Z" glyph-name="Gcircumflex" horiz-adv-x="604" unicode="Ĝ" /><glyph d="M555 356 499 41Q448 15 396.5 2.5Q345 -10 293 -10Q173 -10 116.5 68.5Q60 147 83 281L106 411Q130 553 201 621.5Q272 690 394 690Q443 690 490.5 679Q538 668 582 647L551 571Q510 590 471.5 599.5Q433 609 392 609Q312 609 262.5 559Q213 509 196 411L173 281Q155 176 188 122.5Q221 69 303 69Q335 69 365 75.5Q395 82 428 95L461 279H334L349 356ZM316 -77 215 -248L163 -234L223 -77Z" glyph-name="Gcommaaccent" horiz-adv-x="604" unicode="Ģ" /><glyph d="M555 356 499 41Q448 15 396.5 2.5Q345 -10 293 -10Q173 -10 116.5 68.5Q60 147 83 281L106 411Q130 553 201 621.5Q272 690 394 690Q443 690 490.5 679Q538 668 582 647L551 571Q510 590 471.5 599.5Q433 609 392 609Q312 609 262.5 559Q213 509 196 411L173 281Q155 176 188 122.5Q221 69 303 69Q335 69 365 75.5Q395 82 428 95L461 279H334L349 356ZM484 893 469 801H377L392 893Z" glyph-name="Gdotaccent" horiz-adv-x="604" unicode="Ġ" /><glyph d="M508 303 211 303L158 0H71L160 504H74L86 571H172L191 680H278L259 571H556L575 680H662L643 571H730L718 504H631L542 0H455ZM247 504 226 385H523L544 504Z" glyph-name="Hbar" horiz-adv-x="703" unicode="Ħ" /><glyph d="M533 0 446 0L499 303H202L149 0H62L182 680H269L217 385H514L566 680H653ZM563 764 499 764L449 859L364 764H295L416 925H499Z" glyph-name="Hcircumflex" horiz-adv-x="683" unicode="Ĥ" /><glyph d="M269 680 149 0H62L182 680ZM397 894 277 764H201L320 930Z" glyph-name="Iacute" horiz-adv-x="300" unicode="Í" /><glyph d="M269 680 149 0H62L182 680ZM372 764 308 764L258 859L173 764H104L225 925H308Z" glyph-name="Icircumflex" horiz-adv-x="300" unicode="Î" /><glyph d="M269 680 149 0H62L182 680ZM208 890 193 804H107L122 890ZM399 890 384 804H298L313 890Z" glyph-name="Idieresis" horiz-adv-x="300" unicode="Ï" /><glyph d="M269 680 149 0H62L182 680ZM272 764 205 764L130 894L211 930Z" glyph-name="Igrave" horiz-adv-x="300" unicode="Ì" /><glyph d="M269 680 149 0H62L182 680ZM249 833Q281 833 300 853Q319 873 329 916H397Q380 842 343 806Q306 770 246 770Q183 770 155 807Q127 844 135 916H198Q193 873 205.5 853Q218 833 249 833Z" glyph-name="Ibreve" horiz-adv-x="300" unicode="Ĭ" /><glyph d="M269 680 149 0H62L182 680ZM306 893 291 801H199L214 893Z" glyph-name="Idotaccent" horiz-adv-x="300" unicode="İ" /><glyph d="M269 680 149 0H62L182 680ZM112 857 397 857L386 794H100Z" glyph-name="Imacron" horiz-adv-x="300" unicode="Ī" /><glyph d="M133 -143 144 -206Q121 -215 100.5 -219Q80 -223 61 -223Q17 -223 -7.5 -203.5Q-32 -184 -32 -148Q-32 -114 -8.5 -78Q15 -42 63 -1L182 680H269L149 0Q94 -47 70 -77.5Q46 -108 46 -130Q46 -142 54 -148.5Q62 -155 78 -155Q90 -155 104 -152Q118 -149 133 -143Z" glyph-name="Iogonek" horiz-adv-x="300" unicode="Į" /><glyph d="M269 680 149 0H62L182 680ZM310 773Q287 773 269 783.5Q251 794 231 826Q219 844 212 849.5Q205 855 198 855Q185 855 175.5 838Q166 821 159 785H96Q109 855 133.5 889Q158 923 198 923Q222 923 239.5 912.5Q257 902 278 870Q290 852 296.5 846.5Q303 841 310 841Q323 841 332 857.5Q341 874 348 910H411Q399 840 374.5 806.5Q350 773 310 773Z" glyph-name="Itilde" horiz-adv-x="300" unicode="Ĩ" /><glyph d="M-18 -7 -3 76Q88 76 126 108Q164 140 179 224L259 680H346L266 224Q242 91 178.5 42Q115 -7 -18 -7ZM448 764 384 764L334 859L249 764H180L301 925H384Z" glyph-name="Jcircumflex" horiz-adv-x="363" unicode="Ĵ" /><glyph d="M269 680 149 0H62L182 680ZM282 -7 297 76Q388 76 426 108Q464 140 479 224L559 680H646L566 224Q542 91 478.5 42Q415 -7 282 -7Z" glyph-name="IJ" horiz-adv-x="663" unicode="Ĳ" /><glyph d="M538 0 440 0L300 325Q284 310 265 293.5Q246 277 189 229L149 0H62L182 680H269L208 334Q312 424 390 509Q468 594 527 680H627Q567 596 503.5 521.5Q440 447 369 378ZM313 -77 212 -248L160 -234L220 -77Z" glyph-name="Kcommaaccent" horiz-adv-x="595" unicode="Ķ" /><glyph d="M621 501 726 685L777 671L714 501ZM538 0 440 0L300 325Q284 310 265 293.5Q246 277 189 229L149 0H62L182 680H269L208 334Q312 424 390 509Q468 594 527 680H627Q567 596 503.5 521.5Q440 447 369 378Z" glyph-name="kgreenlandic.case" horiz-adv-x="642" unicode="" /><glyph d="M163 81 449 81L435 0H62L182 680H269ZM401 894 281 764H205L324 930Z" glyph-name="Lacute" horiz-adv-x="506" unicode="Ĺ" /><glyph d="M163 81 449 81L435 0H62L182 680H269ZM438 680 375 486H320L355 680Z" glyph-name="Lcaron" horiz-adv-x="506" unicode="Ľ" /><glyph d="M163 81 449 81L435 0H62L182 680H269ZM288 -77 187 -248L135 -234L195 -77Z" glyph-name="Lcommaaccent" horiz-adv-x="506" unicode="Ļ" /><glyph d="M163 81 449 81L435 0H62L182 680H269ZM479 430 464 338H372L387 430Z" glyph-name="Ldot" horiz-adv-x="506" unicode="Ŀ" /><glyph d="M145 0 62 0L182 680H273Q349 514 398.5 387.5Q448 261 489 128L527 400L577 680H659L539 0H449Q400 156 349.5 292Q299 428 240 562L194 278ZM504 773Q481 773 463 783.5Q445 794 425 826Q413 844 406 849.5Q399 855 392 855Q379 855 369.5 838Q360 821 353 785H290Q303 855 327.5 889Q352 923 392 923Q416 923 433.5 912.5Q451 902 472 870Q484 852 490.5 846.5Q497 841 504 841Q517 841 526 857.5Q535 874 542 910H605Q593 840 568.5 806.5Q544 773 504 773Z" glyph-name="Ntilde" horiz-adv-x="690" unicode="Ñ" /><glyph d="M145 0 62 0L182 680H273Q349 514 398.5 387.5Q448 261 489 128L527 400L577 680H659L539 0H449Q400 156 349.5 292Q299 428 240 562L194 278ZM591 894 471 764H395L514 930Z" glyph-name="Nacute" horiz-adv-x="690" unicode="Ń" /><glyph d="M145 0 62 0L182 680H273Q349 514 398.5 387.5Q448 261 489 128L527 400L577 680H659L539 0H449Q400 156 349.5 292Q299 428 240 562L194 278ZM525 925 595 925L473 764H391L326 925H390L441 830Z" glyph-name="Ncaron" horiz-adv-x="690" unicode="Ň" /><glyph d="M145 0 62 0L182 680H273Q349 514 398.5 387.5Q448 261 489 128L527 400L577 680H659L539 0H449Q400 156 349.5 292Q299 428 240 562L194 278ZM333 -77 232 -248L180 -234L240 -77Z" glyph-name="Ncommaaccent" horiz-adv-x="690" unicode="Ņ" /><glyph d="M145 0 62 0L182 680H273Q355 503 403.5 382Q452 261 491 139L527 400L577 680H659L541 8Q517 -125 453.5 -174Q390 -223 257 -223L272 -139Q360 -139 398.5 -108.5Q437 -78 453 1Q405 153 356 282.5Q307 412 240 561L194 278Z" glyph-name="Eng" horiz-adv-x="690" unicode="Ŋ" /><glyph d="M228 0 145 0L265 680H356Q432 514 481.5 387.5Q531 261 572 128L610 400L660 680H742L622 0H532Q483 156 432.5 292Q382 428 323 562L277 278ZM93 680 175 680L172 661Q161 597 134 541.5Q107 486 55 420L6 448Q46 512 63.5 559.5Q81 607 93 680Z" glyph-name="napostrophe.case" horiz-adv-x="773" unicode="" /><glyph d="M384 690Q502 690 560.5 609Q619 528 596 399L573 264Q549 132 477.5 61Q406 -10 295 -10Q176 -10 118 70.5Q60 151 83 282L107 417Q130 548 201.5 619Q273 690 384 690ZM483 264 506 399Q524 498 490.5 553.5Q457 609 380 609Q308 609 260.5 559Q213 509 197 417L173 282Q155 181 188 125.5Q221 70 298 70Q371 70 418.5 120Q466 170 483 264ZM570 894 450 764H374L493 930Z" glyph-name="Oacute" horiz-adv-x="647" unicode="Ó" /><glyph d="M384 690Q502 690 560.5 609Q619 528 596 399L573 264Q549 132 477.5 61Q406 -10 295 -10Q176 -10 118 70.5Q60 151 83 282L107 417Q130 548 201.5 619Q273 690 384 690ZM483 264 506 399Q524 498 490.5 553.5Q457 609 380 609Q308 609 260.5 559Q213 509 197 417L173 282Q155 181 188 125.5Q221 70 298 70Q371 70 418.5 120Q466 170 483 264ZM545 764 481 764L431 859L346 764H277L398 925H481Z" glyph-name="Ocircumflex" horiz-adv-x="647" unicode="Ô" /><glyph d="M384 690Q502 690 560.5 609Q619 528 596 399L573 264Q549 132 477.5 61Q406 -10 295 -10Q176 -10 118 70.5Q60 151 83 282L107 417Q130 548 201.5 619Q273 690 384 690ZM483 264 506 399Q524 498 490.5 553.5Q457 609 380 609Q308 609 260.5 559Q213 509 197 417L173 282Q155 181 188 125.5Q221 70 298 70Q371 70 418.5 120Q466 170 483 264ZM381 890 366 804H280L295 890ZM572 890 557 804H471L486 890Z" glyph-name="Odieresis" horiz-adv-x="647" unicode="Ö" /><glyph d="M384 690Q502 690 560.5 609Q619 528 596 399L573 264Q549 132 477.5 61Q406 -10 295 -10Q176 -10 118 70.5Q60 151 83 282L107 417Q130 548 201.5 619Q273 690 384 690ZM483 264 506 399Q524 498 490.5 553.5Q457 609 380 609Q308 609 260.5 559Q213 509 197 417L173 282Q155 181 188 125.5Q221 70 298 70Q371 70 418.5 120Q466 170 483 264ZM445 764 378 764L303 894L384 930Z" glyph-name="Ograve" horiz-adv-x="647" unicode="Ò" /><glyph d="M384 690Q502 690 560.5 609Q619 528 596 399L573 264Q549 132 477.5 61Q406 -10 295 -10Q176 -10 118 70.5Q60 151 83 282L107 417Q130 548 201.5 619Q273 690 384 690ZM483 264 506 399Q524 498 490.5 553.5Q457 609 380 609Q308 609 260.5 559Q213 509 197 417L173 282Q155 181 188 125.5Q221 70 298 70Q371 70 418.5 120Q466 170 483 264ZM483 773Q460 773 442 783.5Q424 794 404 826Q392 844 385 849.5Q378 855 371 855Q358 855 348.5 838Q339 821 332 785H269Q282 855 306.5 889Q331 923 371 923Q395 923 412.5 912.5Q430 902 451 870Q463 852 469.5 846.5Q476 841 483 841Q496 841 505 857.5Q514 874 521 910H584Q572 840 547.5 806.5Q523 773 483 773Z" glyph-name="Otilde" horiz-adv-x="647" unicode="Õ" /><glyph d="M384 690Q502 690 560.5 609Q619 528 596 399L573 264Q549 132 477.5 61Q406 -10 295 -10Q176 -10 118 70.5Q60 151 83 282L107 417Q130 548 201.5 619Q273 690 384 690ZM483 264 506 399Q524 498 490.5 553.5Q457 609 380 609Q308 609 260.5 559Q213 509 197 417L173 282Q155 181 188 125.5Q221 70 298 70Q371 70 418.5 120Q466 170 483 264ZM422 833Q454 833 473 853Q492 873 502 916H570Q553 842 516 806Q479 770 419 770Q356 770 328 807Q300 844 308 916H371Q366 873 378.5 853Q391 833 422 833Z" glyph-name="Obreve" horiz-adv-x="647" unicode="Ŏ" /><glyph d="M384 690Q502 690 560.5 609Q619 528 596 399L573 264Q549 132 477.5 61Q406 -10 295 -10Q176 -10 118 70.5Q60 151 83 282L107 417Q130 548 201.5 619Q273 690 384 690ZM483 264 506 399Q524 498 490.5 553.5Q457 609 380 609Q308 609 260.5 559Q213 509 197 417L173 282Q155 181 188 125.5Q221 70 298 70Q371 70 418.5 120Q466 170 483 264ZM484 894 379 764H307L418 930ZM622 894 517 764H445L556 930Z" glyph-name="Ohungarumlaut" horiz-adv-x="647" unicode="Ő" /><glyph d="M384 690Q502 690 560.5 609Q619 528 596 399L573 264Q549 132 477.5 61Q406 -10 295 -10Q176 -10 118 70.5Q60 151 83 282L107 417Q130 548 201.5 619Q273 690 384 690ZM483 264 506 399Q524 498 490.5 553.5Q457 609 380 609Q308 609 260.5 559Q213 509 197 417L173 282Q155 181 188 125.5Q221 70 298 70Q371 70 418.5 120Q466 170 483 264ZM285 857 570 857L559 794H273Z" glyph-name="Omacron" horiz-adv-x="647" unicode="Ō" /><glyph d="M337 266 196 266L149 0H62L182 680H384Q479 680 528 625.5Q577 571 562 483L555 440Q545 381 510.5 339.5Q476 298 422 280Q452 213 476 142.5Q500 72 518 0H424Q409 64 387.5 130.5Q366 197 337 266ZM381 600 255 600L210 346H336Q388 346 422.5 371.5Q457 397 465 442L473 485Q482 539 457.5 569.5Q433 600 381 600ZM547 894 427 764H351L470 930Z" glyph-name="Racute" horiz-adv-x="601" unicode="Ŕ" /><glyph d="M337 266 196 266L149 0H62L182 680H384Q479 680 528 625.5Q577 571 562 483L555 440Q545 381 510.5 339.5Q476 298 422 280Q452 213 476 142.5Q500 72 518 0H424Q409 64 387.5 130.5Q366 197 337 266ZM381 600 255 600L210 346H336Q388 346 422.5 371.5Q457 397 465 442L473 485Q482 539 457.5 569.5Q433 600 381 600ZM481 925 551 925L429 764H347L282 925H346L397 830Z" glyph-name="Rcaron" horiz-adv-x="601" unicode="Ř" /><glyph d="M337 266 196 266L149 0H62L182 680H384Q479 680 528 625.5Q577 571 562 483L555 440Q545 381 510.5 339.5Q476 298 422 280Q452 213 476 142.5Q500 72 518 0H424Q409 64 387.5 130.5Q366 197 337 266ZM381 600 255 600L210 346H336Q388 346 422.5 371.5Q457 397 465 442L473 485Q482 539 457.5 569.5Q433 600 381 600ZM315 -77 214 -248L162 -234L222 -77Z" glyph-name="Rcommaaccent" horiz-adv-x="601" unicode="Ŗ" /><glyph d="M208 68Q280 68 319.5 99Q359 130 359 186Q359 222 339.5 247.5Q320 273 278 292L206 324Q144 351 115.5 391.5Q87 432 87 493Q87 585 146 637.5Q205 690 313 690Q360 690 405 679Q450 668 495 646L465 571Q421 592 384.5 601.5Q348 611 313 611Q248 611 212.5 581Q177 551 177 498Q177 464 195.5 441Q214 418 257 399L328 367Q391 339 420.5 296.5Q450 254 450 193Q450 98 387 44Q324 -10 208 -10Q156 -10 105.5 2Q55 14 5 38L35 113Q85 89 125.5 78.5Q166 68 208 68ZM439 925 509 925L387 764H305L240 925H304L355 830Z" glyph-name="Scaron" horiz-adv-x="506" unicode="Š" /><glyph d="M208 68Q280 68 319.5 99Q359 130 359 186Q359 222 339.5 247.5Q320 273 278 292L206 324Q144 351 115.5 391.5Q87 432 87 493Q87 585 146 637.5Q205 690 313 690Q360 690 405 679Q450 668 495 646L465 571Q421 592 384.5 601.5Q348 611 313 611Q248 611 212.5 581Q177 551 177 498Q177 464 195.5 441Q214 418 257 399L328 367Q391 339 420.5 296.5Q450 254 450 193Q450 98 387 44Q324 -10 208 -10Q156 -10 105.5 2Q55 14 5 38L35 113Q85 89 125.5 78.5Q166 68 208 68ZM504 894 384 764H308L427 930Z" glyph-name="Sacute" horiz-adv-x="506" unicode="Ś" /><glyph d="M290 -126Q290 -169 257.5 -196Q225 -223 169 -223Q151 -223 132.5 -219.5Q114 -216 89 -208L103 -152Q119 -158 136 -161Q153 -164 167 -164Q193 -164 207.5 -154.5Q222 -145 222 -130Q222 -116 211.5 -109.5Q201 -103 179 -103Q175 -103 171 -103.5Q167 -104 154 -105L138 -67L159 -7Q120 -3 81.5 8Q43 19 5 38L35 113Q85 89 125.5 78.5Q166 68 208 68Q280 68 319.5 99Q359 130 359 186Q359 222 339.5 247.5Q320 273 278 292L206 324Q144 351 115.5 391.5Q87 432 87 493Q87 585 146 637.5Q205 690 313 690Q360 690 405 679Q450 668 495 646L465 571Q421 592 384.5 601.5Q348 611 313 611Q248 611 212.5 581Q177 551 177 498Q177 464 195.5 441Q214 418 257 399L328 367Q391 339 420.5 296.5Q450 254 450 193Q450 101 389 47Q328 -7 217 -10L203 -50Q244 -51 267 -71Q290 -91 290 -126Z" glyph-name="Scedilla" horiz-adv-x="506" unicode="Ş" /><glyph d="M208 68Q280 68 319.5 99Q359 130 359 186Q359 222 339.5 247.5Q320 273 278 292L206 324Q144 351 115.5 391.5Q87 432 87 493Q87 585 146 637.5Q205 690 313 690Q360 690 405 679Q450 668 495 646L465 571Q421 592 384.5 601.5Q348 611 313 611Q248 611 212.5 581Q177 551 177 498Q177 464 195.5 441Q214 418 257 399L328 367Q391 339 420.5 296.5Q450 254 450 193Q450 98 387 44Q324 -10 208 -10Q156 -10 105.5 2Q55 14 5 38L35 113Q85 89 125.5 78.5Q166 68 208 68ZM480 764 416 764L366 859L281 764H212L333 925H416Z" glyph-name="Scircumflex" horiz-adv-x="506" unicode="Ŝ" /><glyph d="M208 68Q280 68 319.5 99Q359 130 359 186Q359 222 339.5 247.5Q320 273 278 292L206 324Q144 351 115.5 391.5Q87 432 87 493Q87 585 146 637.5Q205 690 313 690Q360 690 405 679Q450 668 495 646L465 571Q421 592 384.5 601.5Q348 611 313 611Q248 611 212.5 581Q177 551 177 498Q177 464 195.5 441Q214 418 257 399L328 367Q391 339 420.5 296.5Q450 254 450 193Q450 98 387 44Q324 -10 208 -10Q156 -10 105.5 2Q55 14 5 38L35 113Q85 89 125.5 78.5Q166 68 208 68ZM236 -77 135 -248L83 -234L143 -77Z" glyph-name="uni0218" horiz-adv-x="506" unicode="Ș" /><glyph d="M449 369 435 294H306L254 0H167L219 294H90L103 369H232L273 598H74L89 680H572L558 598H360L319 369Z" glyph-name="Tbar" horiz-adv-x="509" unicode="Ŧ" /><glyph d="M273 598 74 598L89 680H572L558 598H360L254 0H167ZM435 925 505 925L383 764H301L236 925H300L351 830Z" glyph-name="Tcaron" horiz-adv-x="509" unicode="Ť" /><glyph d="M273 598 74 598L89 680H572L558 598H360L254 0H167ZM243 -77 142 -248L90 -234L150 -77Z" glyph-name="uni0162" horiz-adv-x="509" unicode="Ţ" /><glyph d="M273 598 74 598L89 680H572L558 598H360L254 0H167ZM243 -77 142 -248L90 -234L150 -77Z" glyph-name="uni021A" horiz-adv-x="509" unicode="Ț" /><glyph d="M91 244 168 680H258L181 244Q167 161 196.5 115.5Q226 70 296 70Q365 70 407.5 114Q450 158 465 244L542 680H632L555 244Q532 117 466.5 53.5Q401 -10 293 -10Q181 -10 126 60Q71 130 91 244ZM570 894 450 764H374L493 930Z" glyph-name="Uacute" horiz-adv-x="648" unicode="Ú" /><glyph d="M91 244 168 680H258L181 244Q167 161 196.5 115.5Q226 70 296 70Q365 70 407.5 114Q450 158 465 244L542 680H632L555 244Q532 117 466.5 53.5Q401 -10 293 -10Q181 -10 126 60Q71 130 91 244ZM545 764 481 764L431 859L346 764H277L398 925H481Z" glyph-name="Ucircumflex" horiz-adv-x="648" unicode="Û" /><glyph d="M91 244 168 680H258L181 244Q167 161 196.5 115.5Q226 70 296 70Q365 70 407.5 114Q450 158 465 244L542 680H632L555 244Q532 117 466.5 53.5Q401 -10 293 -10Q181 -10 126 60Q71 130 91 244ZM382 890 367 804H281L296 890ZM573 890 558 804H472L487 890Z" glyph-name="Udieresis" horiz-adv-x="648" unicode="Ü" /><glyph d="M91 244 168 680H258L181 244Q167 161 196.5 115.5Q226 70 296 70Q365 70 407.5 114Q450 158 465 244L542 680H632L555 244Q532 117 466.5 53.5Q401 -10 293 -10Q181 -10 126 60Q71 130 91 244ZM445 764 378 764L303 894L384 930Z" glyph-name="Ugrave" horiz-adv-x="648" unicode="Ù" /><glyph d="M91 244 168 680H258L181 244Q167 161 196.5 115.5Q226 70 296 70Q365 70 407.5 114Q450 158 465 244L542 680H632L555 244Q532 117 466.5 53.5Q401 -10 293 -10Q181 -10 126 60Q71 130 91 244ZM422 833Q454 833 473 853Q492 873 502 916H570Q553 842 516 806Q479 770 419 770Q356 770 328 807Q300 844 308 916H371Q366 873 378.5 853Q391 833 422 833Z" glyph-name="Ubreve" horiz-adv-x="648" unicode="Ŭ" /><glyph d="M91 244 168 680H258L181 244Q167 161 196.5 115.5Q226 70 296 70Q365 70 407.5 114Q450 158 465 244L542 680H632L555 244Q532 117 466.5 53.5Q401 -10 293 -10Q181 -10 126 60Q71 130 91 244ZM484 894 379 764H307L418 930ZM622 894 517 764H445L556 930Z" glyph-name="Uhungarumlaut" horiz-adv-x="648" unicode="Ű" /><glyph d="M91 244 168 680H258L181 244Q167 161 196.5 115.5Q226 70 296 70Q365 70 407.5 114Q450 158 465 244L542 680H632L555 244Q532 117 466.5 53.5Q401 -10 293 -10Q181 -10 126 60Q71 130 91 244ZM286 857 571 857L560 794H274Z" glyph-name="Umacron" horiz-adv-x="648" unicode="Ū" /><glyph d="M373 -143 384 -206Q361 -215 340.5 -219Q320 -223 301 -223Q256 -223 231.5 -203Q207 -183 207 -146Q207 -114 227.5 -81.5Q248 -49 293 -10Q181 -10 126 60Q71 130 91 244L168 680H258L181 244Q167 161 196.5 115.5Q226 70 296 70Q365 70 407.5 114Q450 158 465 244L542 680H632L555 244Q542 171 515.5 119.5Q489 68 449 38Q354 -33 320 -67.5Q286 -102 286 -128Q286 -141 294 -148Q302 -155 318 -155Q330 -155 344 -152Q358 -149 373 -143Z" glyph-name="Uogonek" horiz-adv-x="648" unicode="Ų" /><glyph d="M91 244 168 680H258L181 244Q167 161 196.5 115.5Q226 70 296 70Q365 70 407.5 114Q450 158 465 244L542 680H632L555 244Q532 117 466.5 53.5Q401 -10 293 -10Q181 -10 126 60Q71 130 91 244ZM441 976Q494 976 523 944.5Q552 913 544 864L541 849Q533 803 500 775.5Q467 748 418 748Q365 748 336.5 779.5Q308 811 316 860L318 875Q326 921 359 948.5Q392 976 441 976ZM483 855 485 870Q489 892 476 906.5Q463 921 438 921Q414 921 397.5 907Q381 893 377 869L374 855Q370 831 383 817Q396 803 421 803Q445 803 462 817Q479 831 483 855Z" glyph-name="Uring" horiz-adv-x="648" unicode="Ů" /><glyph d="M91 244 168 680H258L181 244Q167 161 196.5 115.5Q226 70 296 70Q365 70 407.5 114Q450 158 465 244L542 680H632L555 244Q532 117 466.5 53.5Q401 -10 293 -10Q181 -10 126 60Q71 130 91 244ZM483 773Q460 773 442 783.5Q424 794 404 826Q392 844 385 849.5Q378 855 371 855Q358 855 348.5 838Q339 821 332 785H269Q282 855 306.5 889Q331 923 371 923Q395 923 412.5 912.5Q430 902 451 870Q463 852 469.5 846.5Q476 841 483 841Q496 841 505 857.5Q514 874 521 910H584Q572 840 547.5 806.5Q523 773 483 773Z" glyph-name="Utilde" horiz-adv-x="648" unicode="Ũ" /><glyph d="M201 680 209 392L210 126L464 680H546L603 125L701 392L811 680H900L631 0H541L484 554L231 0H141L112 680ZM676 894 556 764H480L599 930Z" glyph-name="Wacute" horiz-adv-x="860" unicode="Ẃ" /><glyph d="M201 680 209 392L210 126L464 680H546L603 125L701 392L811 680H900L631 0H541L484 554L231 0H141L112 680ZM651 764 587 764L537 859L452 764H383L504 925H587Z" glyph-name="Wcircumflex" horiz-adv-x="860" unicode="Ŵ" /><glyph d="M201 680 209 392L210 126L464 680H546L603 125L701 392L811 680H900L631 0H541L484 554L231 0H141L112 680ZM488 890 473 804H387L402 890ZM679 890 664 804H578L593 890Z" glyph-name="Wdieresis" horiz-adv-x="860" unicode="Ẅ" /><glyph d="M201 680 209 392L210 126L464 680H546L603 125L701 392L811 680H900L631 0H541L484 554L231 0H141L112 680ZM548 764 481 764L406 894L487 930Z" glyph-name="Wgrave" horiz-adv-x="860" unicode="Ẁ" /><glyph d="M494 680 590 680L310 271L262 0H175L223 271L87 680H176L280 358ZM508 894 388 764H312L431 930Z" glyph-name="Yacute" horiz-adv-x="524" unicode="Ý" /><glyph d="M494 680 590 680L310 271L262 0H175L223 271L87 680H176L280 358ZM320 890 305 804H219L234 890ZM511 890 496 804H410L425 890Z" glyph-name="Ydieresis" horiz-adv-x="524" unicode="Ÿ" /><glyph d="M494 680 590 680L310 271L262 0H175L223 271L87 680H176L280 358ZM484 764 420 764L370 859L285 764H216L337 925H420Z" glyph-name="Ycircumflex" horiz-adv-x="524" unicode="Ŷ" /><glyph d="M494 680 590 680L310 271L262 0H175L223 271L87 680H176L280 358ZM383 764 316 764L241 894L322 930Z" glyph-name="Ygrave" horiz-adv-x="524" unicode="Ỳ" /><glyph d="M119 81 440 81L426 0H-2L9 70L413 598H112L127 680H536L523 609ZM436 925 506 925L384 764H302L237 925H301L352 830Z" glyph-name="Zcaron" horiz-adv-x="508" unicode="Ž" /><glyph d="M119 81 440 81L426 0H-2L9 70L413 598H112L127 680H536L523 609ZM501 894 381 764H305L424 930Z" glyph-name="Zacute" horiz-adv-x="508" unicode="Ź" /><glyph d="M119 81 440 81L426 0H-2L9 70L413 598H112L127 680H536L523 609ZM411 893 396 801H304L319 893Z" glyph-name="Zdotaccent" horiz-adv-x="508" unicode="Ż" /><glyph d="M473 -5 456 -5Q411 -5 385.5 17Q360 39 358 81Q316 35 273.5 12.5Q231 -10 187 -10Q115 -10 80.5 56.5Q46 123 61 228L68 277Q84 386 144 445.5Q204 505 298 505Q346 505 395.5 489Q445 473 493 442L439 135Q433 102 441.5 86Q450 70 473 70H487ZM153 277 146 228Q135 150 151.5 107Q168 64 209 64Q244 64 284 94Q324 124 365 181L404 403Q377 417 352 423.5Q327 430 303 430Q242 430 202.5 390Q163 350 153 277ZM489 709 369 579H293L412 745Z" glyph-name="aacute" horiz-adv-x="549" unicode="á" /><glyph d="M473 -5 456 -5Q411 -5 385.5 17Q360 39 358 81Q316 35 273.5 12.5Q231 -10 187 -10Q115 -10 80.5 56.5Q46 123 61 228L68 277Q84 386 144 445.5Q204 505 298 505Q346 505 395.5 489Q445 473 493 442L439 135Q433 102 441.5 86Q450 70 473 70H487ZM153 277 146 228Q135 150 151.5 107Q168 64 209 64Q244 64 284 94Q324 124 365 181L404 403Q377 417 352 423.5Q327 430 303 430Q242 430 202.5 390Q163 350 153 277ZM464 579 400 579L350 674L265 579H196L317 740H400Z" glyph-name="acircumflex" horiz-adv-x="549" unicode="â" /><glyph d="M473 -5 456 -5Q411 -5 385.5 17Q360 39 358 81Q316 35 273.5 12.5Q231 -10 187 -10Q115 -10 80.5 56.5Q46 123 61 228L68 277Q84 386 144 445.5Q204 505 298 505Q346 505 395.5 489Q445 473 493 442L439 135Q433 102 441.5 86Q450 70 473 70H487ZM153 277 146 228Q135 150 151.5 107Q168 64 209 64Q244 64 284 94Q324 124 365 181L404 403Q377 417 352 423.5Q327 430 303 430Q242 430 202.5 390Q163 350 153 277ZM300 705 285 619H199L214 705ZM491 705 476 619H390L405 705Z" glyph-name="adieresis" horiz-adv-x="549" unicode="ä" /><glyph d="M473 -5 456 -5Q411 -5 385.5 17Q360 39 358 81Q316 35 273.5 12.5Q231 -10 187 -10Q115 -10 80.5 56.5Q46 123 61 228L68 277Q84 386 144 445.5Q204 505 298 505Q346 505 395.5 489Q445 473 493 442L439 135Q433 102 441.5 86Q450 70 473 70H487ZM153 277 146 228Q135 150 151.5 107Q168 64 209 64Q244 64 284 94Q324 124 365 181L404 403Q377 417 352 423.5Q327 430 303 430Q242 430 202.5 390Q163 350 153 277ZM364 579 297 579L222 709L303 745Z" glyph-name="agrave" horiz-adv-x="549" unicode="à" /><glyph d="M473 -5 456 -5Q411 -5 385.5 17Q360 39 358 81Q316 35 273.5 12.5Q231 -10 187 -10Q115 -10 80.5 56.5Q46 123 61 228L68 277Q84 386 144 445.5Q204 505 298 505Q346 505 395.5 489Q445 473 493 442L439 135Q433 102 441.5 86Q450 70 473 70H487ZM153 277 146 228Q135 150 151.5 107Q168 64 209 64Q244 64 284 94Q324 124 365 181L404 403Q377 417 352 423.5Q327 430 303 430Q242 430 202.5 390Q163 350 153 277ZM360 791Q413 791 442 759.5Q471 728 463 679L460 664Q452 618 419 590.5Q386 563 337 563Q284 563 255.5 594.5Q227 626 235 675L237 690Q245 736 278 763.5Q311 791 360 791ZM402 670 404 685Q408 707 395 721.5Q382 736 357 736Q333 736 316.5 722Q300 708 296 684L293 670Q289 646 302 632Q315 618 340 618Q364 618 381 632Q398 646 402 670Z" glyph-name="aring" horiz-adv-x="549" unicode="å" /><glyph d="M473 -5 456 -5Q411 -5 385.5 17Q360 39 358 81Q316 35 273.5 12.5Q231 -10 187 -10Q115 -10 80.5 56.5Q46 123 61 228L68 277Q84 386 144 445.5Q204 505 298 505Q346 505 395.5 489Q445 473 493 442L439 135Q433 102 441.5 86Q450 70 473 70H487ZM153 277 146 228Q135 150 151.5 107Q168 64 209 64Q244 64 284 94Q324 124 365 181L404 403Q377 417 352 423.5Q327 430 303 430Q242 430 202.5 390Q163 350 153 277ZM402 588Q379 588 361 598.5Q343 609 323 641Q311 659 304 664.5Q297 670 290 670Q277 670 267.5 653Q258 636 251 600H188Q201 670 225.5 704Q250 738 290 738Q314 738 331.5 727.5Q349 717 370 685Q382 667 388.5 661.5Q395 656 402 656Q415 656 424 672.5Q433 689 440 725H503Q491 655 466.5 621.5Q442 588 402 588Z" glyph-name="atilde" horiz-adv-x="549" unicode="ã" /><glyph d="M473 -5 456 -5Q411 -5 385.5 17Q360 39 358 81Q316 35 273.5 12.5Q231 -10 187 -10Q115 -10 80.5 56.5Q46 123 61 228L68 277Q84 386 144 445.5Q204 505 298 505Q346 505 395.5 489Q445 473 493 442L439 135Q433 102 441.5 86Q450 70 473 70H487ZM153 277 146 228Q135 150 151.5 107Q168 64 209 64Q244 64 284 94Q324 124 365 181L404 403Q377 417 352 423.5Q327 430 303 430Q242 430 202.5 390Q163 350 153 277ZM341 648Q373 648 392 668Q411 688 421 731H489Q472 657 435 621Q398 585 338 585Q275 585 247 622Q219 659 227 731H290Q285 688 297.5 668Q310 648 341 648Z" glyph-name="abreve" horiz-adv-x="549" unicode="ă" /><glyph d="M473 -5 456 -5Q411 -5 385.5 17Q360 39 358 81Q316 35 273.5 12.5Q231 -10 187 -10Q115 -10 80.5 56.5Q46 123 61 228L68 277Q84 386 144 445.5Q204 505 298 505Q346 505 395.5 489Q445 473 493 442L439 135Q433 102 441.5 86Q450 70 473 70H487ZM153 277 146 228Q135 150 151.5 107Q168 64 209 64Q244 64 284 94Q324 124 365 181L404 403Q377 417 352 423.5Q327 430 303 430Q242 430 202.5 390Q163 350 153 277ZM204 672 489 672L478 609H192Z" glyph-name="amacron" horiz-adv-x="549" unicode="ā" /><glyph d="M433 -143 444 -206Q422 -215 402 -219Q382 -223 362 -223Q317 -223 292.5 -203Q268 -183 268 -146Q268 -110 298.5 -74Q329 -38 397 9Q379 20 369.5 38Q360 56 358 81Q316 35 273.5 12.5Q231 -10 187 -10Q115 -10 80.5 56.5Q46 123 61 228L68 277Q84 386 144 445.5Q204 505 298 505Q346 505 395.5 489Q445 473 493 442L439 135Q433 102 441.5 86Q450 70 473 70H487L473 -5Q401 -54 373.5 -80.5Q346 -107 346 -128Q346 -141 354.5 -148Q363 -155 379 -155Q391 -155 404.5 -152Q418 -149 433 -143ZM153 277 146 228Q135 150 151.5 107Q168 64 209 64Q244 64 284 94Q324 124 365 181L404 403Q377 417 352 423.5Q327 430 303 430Q242 430 202.5 390Q163 350 153 277Z" glyph-name="aogonek" horiz-adv-x="549" unicode="ą" /><glyph d="M294 -126Q294 -169 261.5 -196Q229 -223 173 -223Q155 -223 136.5 -219.5Q118 -216 93 -208L107 -152Q123 -158 140 -161Q157 -164 171 -164Q197 -164 211.5 -154.5Q226 -145 226 -130Q226 -116 215.5 -109.5Q205 -103 183 -103Q179 -103 175 -103.5Q171 -104 158 -105L142 -67L167 0Q101 20 73.5 82.5Q46 145 61 237L69 288Q87 391 144.5 448Q202 505 289 505Q323 505 360 495.5Q397 486 436 467L407 397Q373 413 344.5 421Q316 429 291 429Q235 429 198.5 392Q162 355 151 288L142 234Q128 150 154 107.5Q180 65 245 65Q272 65 302 71Q332 77 366 90L380 19Q340 4 305 -3Q270 -10 238 -10H222L207 -50Q248 -51 271 -71Q294 -91 294 -126Z" glyph-name="ccedilla" horiz-adv-x="451" unicode="ç" /><glyph d="M291 429Q235 429 198.5 392Q162 355 151 288L142 234Q128 150 154 107.5Q180 65 245 65Q272 65 302 71Q332 77 366 90L380 19Q340 4 305 -3Q270 -10 238 -10Q135 -10 88.5 55.5Q42 121 61 237L69 288Q87 391 144.5 448Q202 505 289 505Q323 505 360 495.5Q397 486 436 467L407 397Q373 413 344.5 421Q316 429 291 429ZM468 709 348 579H272L391 745Z" glyph-name="cacute" horiz-adv-x="451" unicode="ć" /><glyph d="M291 429Q235 429 198.5 392Q162 355 151 288L142 234Q128 150 154 107.5Q180 65 245 65Q272 65 302 71Q332 77 366 90L380 19Q340 4 305 -3Q270 -10 238 -10Q135 -10 88.5 55.5Q42 121 61 237L69 288Q87 391 144.5 448Q202 505 289 505Q323 505 360 495.5Q397 486 436 467L407 397Q373 413 344.5 421Q316 429 291 429ZM403 740 473 740L351 579H269L204 740H268L319 645Z" glyph-name="ccaron" horiz-adv-x="451" unicode="č" /><glyph d="M291 429Q235 429 198.5 392Q162 355 151 288L142 234Q128 150 154 107.5Q180 65 245 65Q272 65 302 71Q332 77 366 90L380 19Q340 4 305 -3Q270 -10 238 -10Q135 -10 88.5 55.5Q42 121 61 237L69 288Q87 391 144.5 448Q202 505 289 505Q323 505 360 495.5Q397 486 436 467L407 397Q373 413 344.5 421Q316 429 291 429ZM444 579 380 579L330 674L245 579H176L297 740H380Z" glyph-name="ccircumflex" horiz-adv-x="451" unicode="ĉ" /><glyph d="M291 429Q235 429 198.5 392Q162 355 151 288L142 234Q128 150 154 107.5Q180 65 245 65Q272 65 302 71Q332 77 366 90L380 19Q340 4 305 -3Q270 -10 238 -10Q135 -10 88.5 55.5Q42 121 61 237L69 288Q87 391 144.5 448Q202 505 289 505Q323 505 360 495.5Q397 486 436 467L407 397Q373 413 344.5 421Q316 429 291 429ZM378 708 363 616H271L286 708Z" glyph-name="cdotaccent" horiz-adv-x="451" unicode="ċ" /><glyph d="M424 0 346 0L361 88Q319 38 277 14Q235 -10 190 -10Q117 -10 82 56Q47 122 62 228L69 277Q85 388 144.5 446.5Q204 505 301 505Q332 505 363 497.5Q394 490 426 475L473 740H555ZM154 277 147 228Q136 149 153 106.5Q170 64 213 64Q250 64 290.5 95.5Q331 127 376 190L413 401Q385 416 359 423Q333 430 306 430Q242 430 203.5 391Q165 352 154 277ZM720 740 657 546H602L637 740Z" glyph-name="dcaron" horiz-adv-x="618" unicode="ď" /><glyph d="M424 0 346 0L361 88Q319 38 277 14Q235 -10 190 -10Q117 -10 82 56Q47 122 62 228L69 277Q85 388 144.5 446.5Q204 505 301 505Q332 505 363 497.5Q394 490 426 475L446 586H289L300 648H457L473 740H555L539 648H623L612 586H528ZM154 277 147 228Q136 149 153 106.5Q170 64 213 64Q250 64 290.5 95.5Q331 127 376 190L413 401Q385 416 359 423Q333 430 306 430Q242 430 203.5 391Q165 352 154 277Z" glyph-name="dcroat" horiz-adv-x="554" unicode="đ" /><glyph d="M396 90 409 20Q369 5 328.5 -2.5Q288 -10 250 -10Q140 -10 90.5 55Q41 120 60 237L69 288Q85 388 145.5 446.5Q206 505 295 505Q373 505 420 464Q467 423 467 352Q467 319 457 286.5Q447 254 427 220H138Q128 141 157.5 102.5Q187 64 257 64Q287 64 323.5 71Q360 78 396 90ZM387 350Q387 389 361.5 410.5Q336 432 292 432Q236 432 198.5 395Q161 358 150 290H374Q380 304 383.5 319Q387 334 387 350ZM479 709 359 579H283L402 745Z" glyph-name="eacute" horiz-adv-x="505" unicode="é" /><glyph d="M396 90 409 20Q369 5 328.5 -2.5Q288 -10 250 -10Q140 -10 90.5 55Q41 120 60 237L69 288Q85 388 145.5 446.5Q206 505 295 505Q373 505 420 464Q467 423 467 352Q467 319 457 286.5Q447 254 427 220H138Q128 141 157.5 102.5Q187 64 257 64Q287 64 323.5 71Q360 78 396 90ZM387 350Q387 389 361.5 410.5Q336 432 292 432Q236 432 198.5 395Q161 358 150 290H374Q380 304 383.5 319Q387 334 387 350ZM454 579 390 579L340 674L255 579H186L307 740H390Z" glyph-name="ecircumflex" horiz-adv-x="505" unicode="ê" /><glyph d="M396 90 409 20Q369 5 328.5 -2.5Q288 -10 250 -10Q140 -10 90.5 55Q41 120 60 237L69 288Q85 388 145.5 446.5Q206 505 295 505Q373 505 420 464Q467 423 467 352Q467 319 457 286.5Q447 254 427 220H138Q128 141 157.5 102.5Q187 64 257 64Q287 64 323.5 71Q360 78 396 90ZM387 350Q387 389 361.5 410.5Q336 432 292 432Q236 432 198.5 395Q161 358 150 290H374Q380 304 383.5 319Q387 334 387 350ZM291 705 276 619H190L205 705ZM482 705 467 619H381L396 705Z" glyph-name="edieresis" horiz-adv-x="505" unicode="ë" /><glyph d="M396 90 409 20Q369 5 328.5 -2.5Q288 -10 250 -10Q140 -10 90.5 55Q41 120 60 237L69 288Q85 388 145.5 446.5Q206 505 295 505Q373 505 420 464Q467 423 467 352Q467 319 457 286.5Q447 254 427 220H138Q128 141 157.5 102.5Q187 64 257 64Q287 64 323.5 71Q360 78 396 90ZM387 350Q387 389 361.5 410.5Q336 432 292 432Q236 432 198.5 395Q161 358 150 290H374Q380 304 383.5 319Q387 334 387 350ZM354 579 287 579L212 709L293 745Z" glyph-name="egrave" horiz-adv-x="505" unicode="è" /><glyph d="M396 90 409 20Q369 5 328.5 -2.5Q288 -10 250 -10Q140 -10 90.5 55Q41 120 60 237L69 288Q85 388 145.5 446.5Q206 505 295 505Q373 505 420 464Q467 423 467 352Q467 319 457 286.5Q447 254 427 220H138Q128 141 157.5 102.5Q187 64 257 64Q287 64 323.5 71Q360 78 396 90ZM387 350Q387 389 361.5 410.5Q336 432 292 432Q236 432 198.5 395Q161 358 150 290H374Q380 304 383.5 319Q387 334 387 350ZM331 648Q363 648 382 668Q401 688 411 731H479Q462 657 425 621Q388 585 328 585Q265 585 237 622Q209 659 217 731H280Q275 688 287.5 668Q300 648 331 648Z" glyph-name="ebreve" horiz-adv-x="505" unicode="ĕ" /><glyph d="M396 90 409 20Q369 5 328.5 -2.5Q288 -10 250 -10Q140 -10 90.5 55Q41 120 60 237L69 288Q85 388 145.5 446.5Q206 505 295 505Q373 505 420 464Q467 423 467 352Q467 319 457 286.5Q447 254 427 220H138Q128 141 157.5 102.5Q187 64 257 64Q287 64 323.5 71Q360 78 396 90ZM387 350Q387 389 361.5 410.5Q336 432 292 432Q236 432 198.5 395Q161 358 150 290H374Q380 304 383.5 319Q387 334 387 350ZM413 740 483 740L361 579H279L214 740H278L329 645Z" glyph-name="ecaron" horiz-adv-x="505" unicode="ě" /><glyph d="M396 90 409 20Q369 5 328.5 -2.5Q288 -10 250 -10Q140 -10 90.5 55Q41 120 60 237L69 288Q85 388 145.5 446.5Q206 505 295 505Q373 505 420 464Q467 423 467 352Q467 319 457 286.5Q447 254 427 220H138Q128 141 157.5 102.5Q187 64 257 64Q287 64 323.5 71Q360 78 396 90ZM387 350Q387 389 361.5 410.5Q336 432 292 432Q236 432 198.5 395Q161 358 150 290H374Q380 304 383.5 319Q387 334 387 350ZM389 708 374 616H282L297 708Z" glyph-name="edotaccent" horiz-adv-x="505" unicode="ė" /><glyph d="M396 90 409 20Q369 5 328.5 -2.5Q288 -10 250 -10Q140 -10 90.5 55Q41 120 60 237L69 288Q85 388 145.5 446.5Q206 505 295 505Q373 505 420 464Q467 423 467 352Q467 319 457 286.5Q447 254 427 220H138Q128 141 157.5 102.5Q187 64 257 64Q287 64 323.5 71Q360 78 396 90ZM387 350Q387 389 361.5 410.5Q336 432 292 432Q236 432 198.5 395Q161 358 150 290H374Q380 304 383.5 319Q387 334 387 350ZM195 672 480 672L469 609H183Z" glyph-name="emacron" horiz-adv-x="505" unicode="ē" /><glyph d="M357 -143 368 -206Q346 -215 326 -219Q306 -223 286 -223Q241 -223 216.5 -203Q192 -183 192 -146Q192 -113 213 -80Q234 -47 279 -9Q274 -10 268 -10Q262 -10 250 -10Q140 -10 90.5 55Q41 120 60 237L69 288Q85 388 145.5 446.5Q206 505 295 505Q373 505 420 464Q467 423 467 352Q467 319 457 286.5Q447 254 427 220H138Q128 141 157.5 102.5Q187 64 257 64Q287 64 323.5 71Q360 78 396 90L409 20Q334 -34 302 -68Q270 -102 270 -128Q270 -141 278.5 -148Q287 -155 303 -155Q315 -155 328.5 -152Q342 -149 357 -143ZM387 350Q387 389 361.5 410.5Q336 432 292 432Q236 432 198.5 395Q161 358 150 290H374Q380 304 383.5 319Q387 334 387 350Z" glyph-name="eogonek" horiz-adv-x="505" unicode="ę" /><glyph d="M502 442 424 0Q403 -124 348.5 -173.5Q294 -223 193 -223Q153 -223 114 -215Q75 -207 34 -191L55 -121Q89 -135 123 -142Q157 -149 190 -149Q259 -149 293 -118Q327 -87 342 0L356 79Q316 35 274.5 12.5Q233 -10 190 -10Q117 -10 82 56Q47 122 62 228L69 277Q85 388 144.5 446.5Q204 505 301 505Q352 505 403 489Q454 473 502 442ZM154 277 147 228Q136 149 153 106.5Q170 64 213 64Q250 64 291.5 94.5Q333 125 374 183L413 402Q384 416 358 423Q332 430 306 430Q242 430 203.5 391Q165 352 154 277ZM346 648Q378 648 397 668Q416 688 426 731H494Q477 657 440 621Q403 585 343 585Q280 585 252 622Q224 659 232 731H295Q290 688 302.5 668Q315 648 346 648Z" glyph-name="gbreve" horiz-adv-x="554" unicode="ğ" /><glyph d="M502 442 424 0Q403 -124 348.5 -173.5Q294 -223 193 -223Q153 -223 114 -215Q75 -207 34 -191L55 -121Q89 -135 123 -142Q157 -149 190 -149Q259 -149 293 -118Q327 -87 342 0L356 79Q316 35 274.5 12.5Q233 -10 190 -10Q117 -10 82 56Q47 122 62 228L69 277Q85 388 144.5 446.5Q204 505 301 505Q352 505 403 489Q454 473 502 442ZM154 277 147 228Q136 149 153 106.5Q170 64 213 64Q250 64 291.5 94.5Q333 125 374 183L413 402Q384 416 358 423Q332 430 306 430Q242 430 203.5 391Q165 352 154 277ZM469 579 405 579L355 674L270 579H201L322 740H405Z" glyph-name="gcircumflex" horiz-adv-x="554" unicode="ĝ" /><glyph d="M502 442 424 0Q403 -124 348.5 -173.5Q294 -223 193 -223Q153 -223 114 -215Q75 -207 34 -191L55 -121Q89 -135 123 -142Q157 -149 190 -149Q259 -149 293 -118Q327 -87 342 0L356 79Q316 35 274.5 12.5Q233 -10 190 -10Q117 -10 82 56Q47 122 62 228L69 277Q85 388 144.5 446.5Q204 505 301 505Q352 505 403 489Q454 473 502 442ZM154 277 147 228Q136 149 153 106.5Q170 64 213 64Q250 64 291.5 94.5Q333 125 374 183L413 402Q384 416 358 423Q332 430 306 430Q242 430 203.5 391Q165 352 154 277ZM289 579 390 750L442 736L382 579Z" glyph-name="gcommaaccent" horiz-adv-x="554" unicode="ģ" /><glyph d="M502 442 424 0Q403 -124 348.5 -173.5Q294 -223 193 -223Q153 -223 114 -215Q75 -207 34 -191L55 -121Q89 -135 123 -142Q157 -149 190 -149Q259 -149 293 -118Q327 -87 342 0L356 79Q316 35 274.5 12.5Q233 -10 190 -10Q117 -10 82 56Q47 122 62 228L69 277Q85 388 144.5 446.5Q204 505 301 505Q352 505 403 489Q454 473 502 442ZM154 277 147 228Q136 149 153 106.5Q170 64 213 64Q250 64 291.5 94.5Q333 125 374 183L413 402Q384 416 358 423Q332 430 306 430Q242 430 203.5 391Q165 352 154 277ZM404 708 389 616H297L312 708Z" glyph-name="gdotaccent" horiz-adv-x="554" unicode="ġ" /><glyph d="M361 428Q322 428 277.5 400.5Q233 373 182 317L126 0H44L147 588H61L72 648H158L174 740H256L240 648H395L384 588H229L198 409Q245 458 290.5 481.5Q336 505 383 505Q451 505 483.5 456.5Q516 408 502 327L444 0H362L418 320Q428 373 413.5 400.5Q399 428 361 428Z" glyph-name="hbar" horiz-adv-x="571" unicode="ħ" /><glyph d="M361 428Q322 428 277.5 400.5Q233 373 182 317L126 0H44L174 740H256L198 409Q245 458 290.5 481.5Q336 505 383 505Q451 505 483.5 456.5Q516 408 502 327L444 0H362L418 320Q428 373 413.5 400.5Q399 428 361 428ZM462 824 398 824L348 919L263 824H194L315 985H398Z" glyph-name="hcircumflex" horiz-adv-x="571" unicode="ĥ" /><glyph d="M214 495 126 0H44L132 495ZM346 709 226 579H150L269 745Z" glyph-name="iacute" horiz-adv-x="259" unicode="í" /><glyph d="M214 495 126 0H44L132 495ZM322 579 258 579L208 674L123 579H54L175 740H258Z" glyph-name="icircumflex" horiz-adv-x="259" unicode="î" /><glyph d="M214 495 126 0H44L132 495ZM158 705 143 619H57L72 705ZM349 705 334 619H248L263 705Z" glyph-name="idieresis" horiz-adv-x="259" unicode="ï" /><glyph d="M214 495 126 0H44L132 495ZM221 579 154 579L79 709L160 745Z" glyph-name="igrave" horiz-adv-x="259" unicode="ì" /><glyph d="M214 495 126 0H44L132 495ZM198 648Q230 648 249 668Q268 688 278 731H346Q329 657 292 621Q255 585 195 585Q132 585 104 622Q76 659 84 731H147Q142 688 154.5 668Q167 648 198 648Z" glyph-name="ibreve" horiz-adv-x="259" unicode="ĭ" /><glyph d="M256 708 241 616H149L164 708ZM214 495 126 0H44L132 495Z" glyph-name="i.dot" horiz-adv-x="260" unicode="" /><glyph d="M214 495 126 0H44L132 495ZM62 672 347 672L336 609H50Z" glyph-name="imacron" horiz-adv-x="259" unicode="ī" /><glyph d="M252 705 237 619H152L167 705ZM110 -143 121 -206Q98 -215 77.5 -219Q57 -223 38 -223Q-6 -223 -30.5 -203.5Q-55 -184 -55 -148Q-55 -114 -30.5 -77Q-6 -40 45 4L132 495H214L126 0Q71 -47 47 -77.5Q23 -108 23 -130Q23 -142 31 -148.5Q39 -155 55 -155Q67 -155 81 -152Q95 -149 110 -143Z" glyph-name="iogonek" horiz-adv-x="260" unicode="į" /><glyph d="M214 495 126 0H44L132 495ZM259 588Q236 588 218 598.5Q200 609 180 641Q168 659 161 664.5Q154 670 147 670Q134 670 124.5 653Q115 636 108 600H45Q58 670 82.5 704Q107 738 147 738Q171 738 188.5 727.5Q206 717 227 685Q239 667 245.5 661.5Q252 656 259 656Q272 656 281 672.5Q290 689 297 725H360Q348 655 323.5 621.5Q299 588 259 588Z" glyph-name="itilde" horiz-adv-x="259" unicode="ĩ" /><glyph d="M-103 -223 -90 -145Q-31 -145 -1.5 -116.5Q28 -88 40 -23L131 495H213L122 -23Q102 -134 50 -178.5Q-2 -223 -103 -223ZM321 579 257 579L207 674L122 579H53L174 740H257Z" glyph-name="jcircumflex" horiz-adv-x="259" unicode="ĵ" /><glyph d="M256 708 241 616H149L164 708ZM214 495 126 0H44L132 495ZM515 708 499 616H407L423 708ZM156 -223 169 -145Q228 -145 257.5 -116.5Q287 -88 299 -23L391 495H473L381 -23Q361 -134 309 -178.5Q257 -223 156 -223Z" glyph-name="ij" horiz-adv-x="519" unicode="ĳ" /><glyph d="M446 0 351 0L251 230Q230 212 205.5 192.5Q181 173 153 152L126 0H44L175 740H257L169 244Q256 316 313.5 374.5Q371 433 417 495H515Q473 440 426 388Q379 336 318 278ZM263 -77 162 -248L110 -234L170 -77Z" glyph-name="kcommaaccent" horiz-adv-x="508" unicode="ķ" /><glyph d="M446 0 351 0L251 230Q234 214 212 197Q190 180 153 152L126 0H44L132 495H214L170 245Q258 318 315 376Q372 434 417 495H515Q473 440 426 388Q379 336 318 278Z" glyph-name="kgreenlandic" horiz-adv-x="508" unicode="ĸ" /><glyph d="M65 125 173 740H255L147 124Q142 92 150 81Q158 70 182 70H197L183 -5H166Q104 -5 79 27.5Q54 60 65 125ZM386 954 266 824H190L309 990Z" glyph-name="lacute" horiz-adv-x="264" unicode="ĺ" /><glyph d="M65 125 173 740H255L147 124Q142 92 150 81Q158 70 182 70H197L183 -5H166Q104 -5 79 27.5Q54 60 65 125ZM425 740 362 546H307L342 740Z" glyph-name="lcaron" horiz-adv-x="321" unicode="ľ" /><glyph d="M65 125 173 740H255L147 124Q142 92 150 81Q158 70 182 70H197L183 -5H166Q104 -5 79 27.5Q54 60 65 125ZM150 -77 49 -248L-3 -234L57 -77Z" glyph-name="lcommaaccent" horiz-adv-x="264" unicode="ļ" /><glyph d="M65 125 173 740H255L147 124Q142 92 150 81Q158 70 182 70H197L183 -5H166Q104 -5 79 27.5Q54 60 65 125ZM349 430 334 338H242L257 430Z" glyph-name="ldot" horiz-adv-x="288" unicode="ŀ" /><glyph d="M361 428Q323 428 279 400.5Q235 373 183 318L126 0H44L132 495H209L194 404Q243 455 289.5 480Q336 505 383 505Q451 505 483.5 455.5Q516 406 502 327L444 0H362L418 320Q428 373 413 400.5Q398 428 361 428ZM419 588Q396 588 378 598.5Q360 609 340 641Q328 659 321 664.5Q314 670 307 670Q294 670 284.5 653Q275 636 268 600H205Q218 670 242.5 704Q267 738 307 738Q331 738 348.5 727.5Q366 717 387 685Q399 667 405.5 661.5Q412 656 419 656Q432 656 441 672.5Q450 689 457 725H520Q508 655 483.5 621.5Q459 588 419 588Z" glyph-name="ntilde" horiz-adv-x="571" unicode="ñ" /><glyph d="M361 428Q323 428 279 400.5Q235 373 183 318L126 0H44L132 495H209L194 404Q243 455 289.5 480Q336 505 383 505Q451 505 483.5 455.5Q516 406 502 327L444 0H362L418 320Q428 373 413 400.5Q398 428 361 428ZM506 709 386 579H310L429 745Z" glyph-name="nacute" horiz-adv-x="571" unicode="ń" /><glyph d="M361 428Q323 428 279 400.5Q235 373 183 318L126 0H44L132 495H209L194 404Q243 455 289.5 480Q336 505 383 505Q451 505 483.5 455.5Q516 406 502 327L444 0H362L418 320Q428 373 413 400.5Q398 428 361 428ZM441 740 511 740L389 579H307L242 740H306L357 645Z" glyph-name="ncaron" horiz-adv-x="571" unicode="ň" /><glyph d="M361 428Q323 428 279 400.5Q235 373 183 318L126 0H44L132 495H209L194 404Q243 455 289.5 480Q336 505 383 505Q451 505 483.5 455.5Q516 406 502 327L444 0H362L418 320Q428 373 413 400.5Q398 428 361 428ZM276 -77 175 -248L123 -234L183 -77Z" glyph-name="ncommaaccent" horiz-adv-x="571" unicode="ņ" /><glyph d="M502 327 440 -23Q421 -134 368.5 -178.5Q316 -223 214 -223L227 -145Q287 -145 316.5 -116.5Q346 -88 357 -23L418 320Q428 373 413 400.5Q398 428 361 428Q322 428 277.5 400.5Q233 373 182 317L126 0H44L132 495H209L194 404Q243 455 289.5 480Q336 505 383 505Q452 505 485 455.5Q518 406 502 327Z" glyph-name="eng" horiz-adv-x="571" unicode="ŋ" /><glyph d="M440 428Q402 428 358 400.5Q314 373 262 318L205 0H123L211 495H288L273 404Q322 455 368.5 480Q415 505 462 505Q530 505 562.5 455.5Q595 406 581 327L523 0H441L497 320Q507 373 492 400.5Q477 428 440 428ZM108 680 190 680L187 661Q176 597 149 541.5Q122 486 70 420L21 448Q61 512 78.5 559.5Q96 607 108 680Z" glyph-name="napostrophe" horiz-adv-x="650" unicode="ŉ" /><glyph d="M297 505Q399 505 449.5 436.5Q500 368 483 258L475 208Q458 102 399 46Q340 -10 245 -10Q143 -10 92.5 58Q42 126 59 237L67 288Q84 392 143.5 448.5Q203 505 297 505ZM390 208 398 260Q411 338 383.5 384Q356 430 296 430Q238 430 200.5 393Q163 356 152 288L144 235Q132 156 159 110Q186 64 246 64Q305 64 342 101Q379 138 390 208ZM476 709 356 579H280L399 745Z" glyph-name="oacute" horiz-adv-x="542" unicode="ó" /><glyph d="M297 505Q399 505 449.5 436.5Q500 368 483 258L475 208Q458 102 399 46Q340 -10 245 -10Q143 -10 92.5 58Q42 126 59 237L67 288Q84 392 143.5 448.5Q203 505 297 505ZM390 208 398 260Q411 338 383.5 384Q356 430 296 430Q238 430 200.5 393Q163 356 152 288L144 235Q132 156 159 110Q186 64 246 64Q305 64 342 101Q379 138 390 208ZM451 579 387 579L337 674L252 579H183L304 740H387Z" glyph-name="ocircumflex" horiz-adv-x="542" unicode="ô" /><glyph d="M297 505Q399 505 449.5 436.5Q500 368 483 258L475 208Q458 102 399 46Q340 -10 245 -10Q143 -10 92.5 58Q42 126 59 237L67 288Q84 392 143.5 448.5Q203 505 297 505ZM390 208 398 260Q411 338 383.5 384Q356 430 296 430Q238 430 200.5 393Q163 356 152 288L144 235Q132 156 159 110Q186 64 246 64Q305 64 342 101Q379 138 390 208ZM287 705 272 619H186L201 705ZM478 705 463 619H377L392 705Z" glyph-name="odieresis" horiz-adv-x="542" unicode="ö" /><glyph d="M297 505Q399 505 449.5 436.5Q500 368 483 258L475 208Q458 102 399 46Q340 -10 245 -10Q143 -10 92.5 58Q42 126 59 237L67 288Q84 392 143.5 448.5Q203 505 297 505ZM390 208 398 260Q411 338 383.5 384Q356 430 296 430Q238 430 200.5 393Q163 356 152 288L144 235Q132 156 159 110Q186 64 246 64Q305 64 342 101Q379 138 390 208ZM351 579 284 579L209 709L290 745Z" glyph-name="ograve" horiz-adv-x="542" unicode="ò" /><glyph d="M297 505Q399 505 449.5 436.5Q500 368 483 258L475 208Q458 102 399 46Q340 -10 245 -10Q143 -10 92.5 58Q42 126 59 237L67 288Q84 392 143.5 448.5Q203 505 297 505ZM390 208 398 260Q411 338 383.5 384Q356 430 296 430Q238 430 200.5 393Q163 356 152 288L144 235Q132 156 159 110Q186 64 246 64Q305 64 342 101Q379 138 390 208ZM389 588Q366 588 348 598.5Q330 609 310 641Q298 659 291 664.5Q284 670 277 670Q264 670 254.5 653Q245 636 238 600H175Q188 670 212.5 704Q237 738 277 738Q301 738 318.5 727.5Q336 717 357 685Q369 667 375.5 661.5Q382 656 389 656Q402 656 411 672.5Q420 689 427 725H490Q478 655 453.5 621.5Q429 588 389 588Z" glyph-name="otilde" horiz-adv-x="542" unicode="õ" /><glyph d="M297 505Q399 505 449.5 436.5Q500 368 483 258L475 208Q458 102 399 46Q340 -10 245 -10Q143 -10 92.5 58Q42 126 59 237L67 288Q84 392 143.5 448.5Q203 505 297 505ZM390 208 398 260Q411 338 383.5 384Q356 430 296 430Q238 430 200.5 393Q163 356 152 288L144 235Q132 156 159 110Q186 64 246 64Q305 64 342 101Q379 138 390 208ZM328 648Q360 648 379 668Q398 688 408 731H476Q459 657 422 621Q385 585 325 585Q262 585 234 622Q206 659 214 731H277Q272 688 284.5 668Q297 648 328 648Z" glyph-name="obreve" horiz-adv-x="542" unicode="ŏ" /><glyph d="M297 505Q399 505 449.5 436.5Q500 368 483 258L475 208Q458 102 399 46Q340 -10 245 -10Q143 -10 92.5 58Q42 126 59 237L67 288Q84 392 143.5 448.5Q203 505 297 505ZM390 208 398 260Q411 338 383.5 384Q356 430 296 430Q238 430 200.5 393Q163 356 152 288L144 235Q132 156 159 110Q186 64 246 64Q305 64 342 101Q379 138 390 208ZM390 709 285 579H213L324 745ZM528 709 423 579H351L462 745Z" glyph-name="ohungarumlaut" horiz-adv-x="542" unicode="ő" /><glyph d="M297 505Q399 505 449.5 436.5Q500 368 483 258L475 208Q458 102 399 46Q340 -10 245 -10Q143 -10 92.5 58Q42 126 59 237L67 288Q84 392 143.5 448.5Q203 505 297 505ZM390 208 398 260Q411 338 383.5 384Q356 430 296 430Q238 430 200.5 393Q163 356 152 288L144 235Q132 156 159 110Q186 64 246 64Q305 64 342 101Q379 138 390 208ZM191 672 476 672L465 609H179Z" glyph-name="omacron" horiz-adv-x="542" unicode="ō" /><glyph d="M393 505 379 422Q324 422 274 395Q224 368 181 314L126 0H44L132 495H209L193 402Q239 453 289.5 479Q340 505 393 505ZM436 709 316 579H240L359 745Z" glyph-name="racute" horiz-adv-x="367" unicode="ŕ" /><glyph d="M393 505 379 422Q324 422 274 395Q224 368 181 314L126 0H44L132 495H209L193 402Q239 453 289.5 479Q340 505 393 505ZM370 740 440 740L318 579H236L171 740H235L286 645Z" glyph-name="rcaron" horiz-adv-x="367" unicode="ř" /><glyph d="M393 505 379 422Q324 422 274 395Q224 368 181 314L126 0H44L132 495H209L193 402Q239 453 289.5 479Q340 505 393 505ZM118 -77 17 -248L-35 -234L25 -77Z" glyph-name="rcommaaccent" horiz-adv-x="367" unicode="ŗ" /><glyph d="M177 63Q231 63 258.5 81.5Q286 100 286 135Q286 160 270.5 176.5Q255 193 216 207L168 226Q116 245 91 277.5Q66 310 66 358Q66 427 112 466Q158 505 242 505Q281 505 319 496Q357 487 398 469L372 399Q338 415 305.5 423Q273 431 240 431Q194 431 171 414Q148 397 148 364Q148 341 162 325Q176 309 208 297L257 279Q315 258 341.5 225.5Q368 193 368 144Q368 73 317.5 31.5Q267 -10 175 -10Q133 -10 92 -1Q51 8 8 27L34 96Q72 79 107 71Q142 63 177 63ZM364 740 434 740L312 579H230L165 740H229L280 645Z" glyph-name="scaron" horiz-adv-x="433" unicode="š" /><glyph d="M177 63Q231 63 258.5 81.5Q286 100 286 135Q286 160 270.5 176.5Q255 193 216 207L168 226Q116 245 91 277.5Q66 310 66 358Q66 427 112 466Q158 505 242 505Q281 505 319 496Q357 487 398 469L372 399Q338 415 305.5 423Q273 431 240 431Q194 431 171 414Q148 397 148 364Q148 341 162 325Q176 309 208 297L257 279Q315 258 341.5 225.5Q368 193 368 144Q368 73 317.5 31.5Q267 -10 175 -10Q133 -10 92 -1Q51 8 8 27L34 96Q72 79 107 71Q142 63 177 63ZM429 709 309 579H233L352 745Z" glyph-name="sacute" horiz-adv-x="433" unicode="ś" /><glyph d="M255 -126Q255 -169 222.5 -196Q190 -223 134 -223Q116 -223 97.5 -219.5Q79 -216 54 -208L68 -152Q84 -158 101 -161Q118 -164 132 -164Q158 -164 172.5 -154.5Q187 -145 187 -130Q187 -116 176.5 -109.5Q166 -103 144 -103Q140 -103 136 -103.5Q132 -104 119 -105L103 -67L125 -7Q96 -3 67 5.5Q38 14 8 27L34 96Q72 79 107 71Q142 63 177 63Q231 63 258.5 81.5Q286 100 286 135Q286 160 270.5 176.5Q255 193 216 207L168 226Q116 245 91 277.5Q66 310 66 358Q66 427 112 466Q158 505 242 505Q281 505 319 496Q357 487 398 469L372 399Q338 415 305.5 423Q273 431 240 431Q194 431 171 414Q148 397 148 364Q148 341 162 325Q176 309 208 297L257 279Q315 258 341.5 225.5Q368 193 368 144Q368 74 319 32Q270 -10 182 -10L168 -50Q209 -51 232 -71Q255 -91 255 -126Z" glyph-name="scedilla" horiz-adv-x="433" unicode="ş" /><glyph d="M177 63Q231 63 258.5 81.5Q286 100 286 135Q286 160 270.5 176.5Q255 193 216 207L168 226Q116 245 91 277.5Q66 310 66 358Q66 427 112 466Q158 505 242 505Q281 505 319 496Q357 487 398 469L372 399Q338 415 305.5 423Q273 431 240 431Q194 431 171 414Q148 397 148 364Q148 341 162 325Q176 309 208 297L257 279Q315 258 341.5 225.5Q368 193 368 144Q368 73 317.5 31.5Q267 -10 175 -10Q133 -10 92 -1Q51 8 8 27L34 96Q72 79 107 71Q142 63 177 63ZM405 579 341 579L291 674L206 579H137L258 740H341Z" glyph-name="scircumflex" horiz-adv-x="433" unicode="ŝ" /><glyph d="M177 63Q231 63 258.5 81.5Q286 100 286 135Q286 160 270.5 176.5Q255 193 216 207L168 226Q116 245 91 277.5Q66 310 66 358Q66 427 112 466Q158 505 242 505Q281 505 319 496Q357 487 398 469L372 399Q338 415 305.5 423Q273 431 240 431Q194 431 171 414Q148 397 148 364Q148 341 162 325Q176 309 208 297L257 279Q315 258 341.5 225.5Q368 193 368 144Q368 73 317.5 31.5Q267 -10 175 -10Q133 -10 92 -1Q51 8 8 27L34 96Q72 79 107 71Q142 63 177 63ZM195 -77 94 -248L42 -234L102 -77Z" glyph-name="uni0219" horiz-adv-x="433" unicode="ș" /><glyph d="M320 86 338 17Q308 4 276 -3Q244 -10 217 -10Q149 -10 119 32.5Q89 75 101 148L116 232H29L40 292H126L149 423H63L75 495H162L186 633H268L244 495H406L393 423H231L208 292H338L328 232H197L182 148Q175 106 187.5 85.5Q200 65 233 65Q253 65 275.5 70.5Q298 76 320 86Z" glyph-name="tbar" horiz-adv-x="400" unicode="ŧ" /><glyph d="M303 86 321 17Q291 4 259 -3Q227 -10 200 -10Q132 -10 102 32.5Q72 75 84 148L132 423H46L58 495H145L169 633H251L227 495H389L376 423H214L165 148Q158 106 170.5 85.5Q183 65 216 65Q236 65 258.5 70.5Q281 76 303 86ZM429 762 366 568H311L346 762Z" glyph-name="tcaron" horiz-adv-x="381" unicode="ť" /><glyph d="M303 86 321 17Q291 4 259 -3Q227 -10 200 -10Q132 -10 102 32.5Q72 75 84 148L132 423H46L58 495H145L169 633H251L227 495H389L376 423H214L165 148Q158 106 170.5 85.5Q183 65 216 65Q236 65 258.5 70.5Q281 76 303 86ZM210 -77 109 -248L57 -234L117 -77Z" glyph-name="uni0163" horiz-adv-x="382" unicode="ţ" /><glyph d="M303 86 321 17Q291 4 259 -3Q227 -10 200 -10Q132 -10 102 32.5Q72 75 84 148L132 423H46L58 495H145L169 633H251L227 495H389L376 423H214L165 148Q158 106 170.5 85.5Q183 65 216 65Q236 65 258.5 70.5Q281 76 303 86ZM210 -77 109 -248L57 -234L117 -77Z" glyph-name="uni021B" horiz-adv-x="382" unicode="ț" /><glyph d="M427 0 349 0L365 90Q317 39 272.5 14.5Q228 -10 182 -10Q116 -10 85 38.5Q54 87 68 167L126 495H208L152 175Q143 123 156 95Q169 67 203 67Q240 67 282.5 94Q325 121 376 177L432 495H514ZM492 709 372 579H296L415 745Z" glyph-name="uacute" horiz-adv-x="559" unicode="ú" /><glyph d="M427 0 349 0L365 90Q317 39 272.5 14.5Q228 -10 182 -10Q116 -10 85 38.5Q54 87 68 167L126 495H208L152 175Q143 123 156 95Q169 67 203 67Q240 67 282.5 94Q325 121 376 177L432 495H514ZM468 579 404 579L354 674L269 579H200L321 740H404Z" glyph-name="ucircumflex" horiz-adv-x="559" unicode="û" /><glyph d="M427 0 349 0L365 90Q317 39 272.5 14.5Q228 -10 182 -10Q116 -10 85 38.5Q54 87 68 167L126 495H208L152 175Q143 123 156 95Q169 67 203 67Q240 67 282.5 94Q325 121 376 177L432 495H514ZM304 705 289 619H203L218 705ZM495 705 480 619H394L409 705Z" glyph-name="udieresis" horiz-adv-x="559" unicode="ü" /><glyph d="M427 0 349 0L365 90Q317 39 272.5 14.5Q228 -10 182 -10Q116 -10 85 38.5Q54 87 68 167L126 495H208L152 175Q143 123 156 95Q169 67 203 67Q240 67 282.5 94Q325 121 376 177L432 495H514ZM367 579 300 579L225 709L306 745Z" glyph-name="ugrave" horiz-adv-x="559" unicode="ù" /><glyph d="M427 0 349 0L365 90Q317 39 272.5 14.5Q228 -10 182 -10Q116 -10 85 38.5Q54 87 68 167L126 495H208L152 175Q143 123 156 95Q169 67 203 67Q240 67 282.5 94Q325 121 376 177L432 495H514ZM344 648Q376 648 395 668Q414 688 424 731H492Q475 657 438 621Q401 585 341 585Q278 585 250 622Q222 659 230 731H293Q288 688 300.5 668Q313 648 344 648Z" glyph-name="ubreve" horiz-adv-x="559" unicode="ŭ" /><glyph d="M427 0 349 0L365 90Q317 39 272.5 14.5Q228 -10 182 -10Q116 -10 85 38.5Q54 87 68 167L126 495H208L152 175Q143 123 156 95Q169 67 203 67Q240 67 282.5 94Q325 121 376 177L432 495H514ZM406 709 301 579H229L340 745ZM544 709 439 579H367L478 745Z" glyph-name="uhungarumlaut" horiz-adv-x="559" unicode="ű" /><glyph d="M427 0 349 0L365 90Q317 39 272.5 14.5Q228 -10 182 -10Q116 -10 85 38.5Q54 87 68 167L126 495H208L152 175Q143 123 156 95Q169 67 203 67Q240 67 282.5 94Q325 121 376 177L432 495H514ZM208 672 493 672L482 609H196Z" glyph-name="umacron" horiz-adv-x="559" unicode="ū" /><glyph d="M385 -143 396 -206Q374 -215 354 -219Q334 -223 314 -223Q269 -223 244.5 -203Q220 -183 220 -146Q220 -108 251.5 -69.5Q283 -31 352 15L365 90Q317 39 272.5 14.5Q228 -10 182 -10Q116 -10 85 38.5Q54 87 68 167L126 495H208L152 175Q143 123 156 95Q169 67 203 67Q240 67 282.5 94Q325 121 376 177L432 495H514L427 0Q356 -48 327 -76.5Q298 -105 298 -128Q298 -141 306.5 -148Q315 -155 331 -155Q343 -155 356.5 -152Q370 -149 385 -143Z" glyph-name="uogonek" horiz-adv-x="559" unicode="ų" /><glyph d="M427 0 349 0L365 90Q317 39 272.5 14.5Q228 -10 182 -10Q116 -10 85 38.5Q54 87 68 167L126 495H208L152 175Q143 123 156 95Q169 67 203 67Q240 67 282.5 94Q325 121 376 177L432 495H514ZM363 791Q416 791 445 759.5Q474 728 466 679L463 664Q455 618 422 590.5Q389 563 340 563Q287 563 258.5 594.5Q230 626 238 675L240 690Q248 736 281 763.5Q314 791 363 791ZM405 670 407 685Q411 707 398 721.5Q385 736 360 736Q336 736 319.5 722Q303 708 299 684L296 670Q292 646 305 632Q318 618 343 618Q367 618 384 632Q401 646 405 670Z" glyph-name="uring" horiz-adv-x="559" unicode="ů" /><glyph d="M427 0 349 0L365 90Q317 39 272.5 14.5Q228 -10 182 -10Q116 -10 85 38.5Q54 87 68 167L126 495H208L152 175Q143 123 156 95Q169 67 203 67Q240 67 282.5 94Q325 121 376 177L432 495H514ZM405 588Q382 588 364 598.5Q346 609 326 641Q314 659 307 664.5Q300 670 293 670Q280 670 270.5 653Q261 636 254 600H191Q204 670 228.5 704Q253 738 293 738Q317 738 334.5 727.5Q352 717 373 685Q385 667 391.5 661.5Q398 656 405 656Q418 656 427 672.5Q436 689 443 725H506Q494 655 469.5 621.5Q445 588 405 588Z" glyph-name="utilde" horiz-adv-x="559" unicode="ũ" /><glyph d="M643 495 728 495L514 0H419L387 407L208 0H113L74 495H154L168 288L177 82L357 495H445L479 85L558 287ZM571 709 451 579H375L494 745Z" glyph-name="wacute" horiz-adv-x="716" unicode="ẃ" /><glyph d="M643 495 728 495L514 0H419L387 407L208 0H113L74 495H154L168 288L177 82L357 495H445L479 85L558 287ZM546 579 482 579L432 674L347 579H278L399 740H482Z" glyph-name="wcircumflex" horiz-adv-x="716" unicode="ŵ" /><glyph d="M643 495 728 495L514 0H419L387 407L208 0H113L74 495H154L168 288L177 82L357 495H445L479 85L558 287ZM382 705 367 619H281L296 705ZM573 705 558 619H472L487 705Z" glyph-name="wdieresis" horiz-adv-x="716" unicode="ẅ" /><glyph d="M643 495 728 495L514 0H419L387 407L208 0H113L74 495H154L168 288L177 82L357 495H445L479 85L558 287ZM446 579 379 579L304 709L385 745Z" glyph-name="wgrave" horiz-adv-x="716" unicode="ẁ" /><glyph d="M231 0 204 -50Q152 -147 99.5 -185Q47 -223 -33 -223L-19 -142Q39 -140 69 -117Q99 -94 136 -28L154 3L65 495H146L188 254L211 102L286 254L409 495H494ZM450 709 330 579H254L373 745Z" glyph-name="yacute" horiz-adv-x="472" unicode="ý" /><glyph d="M231 0 204 -50Q152 -147 99.5 -185Q47 -223 -33 -223L-19 -142Q39 -140 69 -117Q99 -94 136 -28L154 3L65 495H146L188 254L211 102L286 254L409 495H494ZM261 705 246 619H160L175 705ZM452 705 437 619H351L366 705Z" glyph-name="ydieresis" horiz-adv-x="472" unicode="ÿ" /><glyph d="M231 0 204 -50Q152 -147 99.5 -185Q47 -223 -33 -223L-19 -142Q39 -140 69 -117Q99 -94 136 -28L154 3L65 495H146L188 254L211 102L286 254L409 495H494ZM425 579 361 579L311 674L226 579H157L278 740H361Z" glyph-name="ycircumflex" horiz-adv-x="472" unicode="ŷ" /><glyph d="M231 0 204 -50Q152 -147 99.5 -185Q47 -223 -33 -223L-19 -142Q39 -140 69 -117Q99 -94 136 -28L154 3L65 495H146L188 254L211 102L286 254L409 495H494ZM325 579 258 579L183 709L264 745Z" glyph-name="ygrave" horiz-adv-x="472" unicode="ỳ" /><glyph d="M105 71 347 71L335 0H-8L2 64L299 423H75L88 495H412L401 430ZM353 740 423 740L301 579H219L154 740H218L269 645Z" glyph-name="zcaron" horiz-adv-x="412" unicode="ž" /><glyph d="M105 71 347 71L335 0H-8L2 64L299 423H75L88 495H412L401 430ZM418 709 298 579H222L341 745Z" glyph-name="zacute" horiz-adv-x="412" unicode="ź" /><glyph d="M105 71 347 71L335 0H-8L2 64L299 423H75L88 495H412L401 430ZM328 708 313 616H221L236 708Z" glyph-name="zdotaccent" horiz-adv-x="412" unicode="ż" /><glyph d="M418 709 298 579H222L341 745Z" glyph-name="acute" horiz-adv-x="500" unicode="´" /><glyph d="M325 579 258 579L183 709L264 745Z" glyph-name="grave" horiz-adv-x="500" unicode="`" /><glyph d="M425 579 361 579L311 674L226 579H157L278 740H361Z" glyph-name="circumflex" horiz-adv-x="500" unicode="ˆ" /><glyph d="M353 740 423 740L301 579H219L154 740H218L269 645Z" glyph-name="caron" horiz-adv-x="500" unicode="ˇ" /><glyph d="M405 588Q382 588 364 598.5Q346 609 326 641Q314 659 307 664.5Q300 670 293 670Q280 670 270.5 653Q261 636 254 600H191Q204 670 228.5 704Q253 738 293 738Q317 738 334.5 727.5Q352 717 373 685Q385 667 391.5 661.5Q398 656 405 656Q418 656 427 672.5Q436 689 443 725H506Q494 655 469.5 621.5Q445 588 405 588Z" glyph-name="tilde" horiz-adv-x="500" unicode="˜" /><glyph d="M261 705 246 619H160L175 705ZM452 705 437 619H351L366 705Z" glyph-name="dieresis" horiz-adv-x="500" unicode="¨" /><glyph d="M363 791Q416 791 445 759.5Q474 728 466 679L463 664Q455 618 422 590.5Q389 563 340 563Q287 563 258.5 594.5Q230 626 238 675L240 690Q248 736 281 763.5Q314 791 363 791ZM405 670 407 685Q411 707 398 721.5Q385 736 360 736Q336 736 319.5 722Q303 708 299 684L296 670Q292 646 305 632Q318 618 343 618Q367 618 384 632Q401 646 405 670Z" glyph-name="ring" horiz-adv-x="500" unicode="˚" /><glyph d="M284 -126Q284 -169 251.5 -196Q219 -223 163 -223Q145 -223 126.5 -219.5Q108 -216 83 -208L97 -152Q113 -158 130 -161Q147 -164 161 -164Q187 -164 201.5 -154.5Q216 -145 216 -130Q216 -116 205.5 -109.5Q195 -103 173 -103Q169 -103 165 -103.5Q161 -104 148 -105L132 -67L156 0H215L197 -50Q238 -51 261 -71Q284 -91 284 -126Z" glyph-name="cedilla" horiz-adv-x="500" unicode="¸" /><glyph d="M406 709 301 579H229L340 745ZM544 709 439 579H367L478 745Z" glyph-name="hungarumlaut" horiz-adv-x="500" unicode="˝" /><glyph d="M344 648Q376 648 395 668Q414 688 424 731H492Q475 657 438 621Q401 585 341 585Q278 585 250 622Q222 659 230 731H293Q288 688 300.5 668Q313 648 344 648Z" glyph-name="breve" horiz-adv-x="500" unicode="˘" /><glyph d="M208 672 493 672L482 609H196Z" glyph-name="macron" horiz-adv-x="500" unicode="¯" /><glyph d="M328 708 313 616H221L236 708Z" glyph-name="dotaccent" horiz-adv-x="500" unicode="˙" /><glyph d="M349 430 334 338H242L257 430Z" glyph-name="periodcentered" horiz-adv-x="500" unicode="·" /><glyph d="M167 -128Q167 -141 175.5 -148Q184 -155 200 -155Q212 -155 225.5 -152Q239 -149 254 -143L265 -206Q243 -215 223 -219Q203 -223 183 -223Q138 -223 113.5 -203Q89 -183 89 -146Q89 -103 130 -59Q171 -15 263 43L295 0Q225 -47 196 -76Q167 -105 167 -128Z" glyph-name="ogonek" horiz-adv-x="500" unicode="˛" /><glyph d="M210 -77 109 -248L57 -234L117 -77Z" glyph-name="commaaccent" horiz-adv-x="500" unicode="" /><glyph d="M429 762 366 568H311L346 762Z" glyph-name="caron.alt" horiz-adv-x="500" unicode="" /><glyph d="M289 579 390 750L442 736L382 579Z" glyph-name="revcommaaccent" horiz-adv-x="500" unicode="" /><glyph d="M114 91 98 0H6L22 91Z" glyph-name="period" horiz-adv-x="192" unicode="." /><glyph d="M27 91 109 91L106 72Q93 -8 62.5 -72.5Q32 -137 -26 -208L-75 -177Q-32 -111 -11 -56.5Q10 -2 27 91Z" glyph-name="comma" horiz-adv-x="192" unicode="," /><glyph d="M185 495 169 403H77L93 495ZM114 91 98 0H6L22 91Z" glyph-name="colon" horiz-adv-x="192" unicode=":" /><glyph d="M185 495 169 403H77L93 495ZM27 91 109 91L106 72Q93 -8 62.5 -72.5Q32 -137 -26 -208L-75 -177Q-32 -111 -11 -56.5Q10 -2 27 91Z" glyph-name="semicolon" horiz-adv-x="192" unicode=";" /><glyph d="M514 91 498 0H406L422 91ZM514 91 498 0H406L422 91ZM514 91 498 0H406L422 91Z" glyph-name="ellipsis" horiz-adv-x="592" unicode="…" /><glyph d="M265 614Q229 614 188 604.5Q147 595 99 575L80 647Q130 668 178.5 679Q227 690 270 690Q369 690 417 639Q465 588 449 505L446 487Q438 445 418 414Q398 383 340 334L303 301Q269 272 255.5 252.5Q242 233 237 202L234 182H150L154 205Q163 253 182.5 283Q202 313 254 358L292 391Q328 422 342.5 445.5Q357 469 363 499L366 517Q374 563 347.5 588.5Q321 614 265 614ZM223 91 207 0H116L132 91Z" glyph-name="question" horiz-adv-x="438" unicode="?" /><glyph d="M213 430 161 182H95L131 430L175 680H257ZM158 91 142 0H50L66 91Z" glyph-name="exclam" horiz-adv-x="280" unicode="!" /><glyph d="M228 403 244 495H335L319 403ZM185 -119Q222 -119 263 -109.5Q304 -100 352 -80L371 -152Q321 -173 273 -184Q225 -195 181 -195Q83 -195 35 -144.5Q-13 -94 2 -10L5 8Q13 48 32.5 78.5Q52 109 111 160L148 193Q181 222 194.5 242Q208 262 213 293L217 312H301L297 290Q288 241 268.5 211Q249 181 197 136L159 103Q125 75 109.5 51Q94 27 88 -4L85 -22Q76 -68 102.5 -93.5Q129 -119 185 -119Z" glyph-name="questiondown" horiz-adv-x="439" unicode="¿" /><glyph d="M121 403 137 495H229L213 403ZM66 65 118 312H184L148 65L104 -185H22Z" glyph-name="exclamdown" horiz-adv-x="280" unicode="¡" /><glyph d="M145 217 145 193Q145 117 172.5 39Q200 -39 250 -104L187 -153Q128 -80 95 12.5Q62 105 62 195V222Q62 367 135.5 504Q209 641 346 750L391 687Q266 581 205.5 465.5Q145 350 145 217Z" glyph-name="parenleft" horiz-adv-x="316" unicode="(" /><glyph d="M188 379 188 403Q188 478 160.5 556.5Q133 635 83 701L145 750Q204 676 237.5 583.5Q271 491 271 401V374Q271 230 198 93Q125 -44 -12 -153L-58 -90Q67 15 127.5 131Q188 247 188 379Z" glyph-name="parenright" horiz-adv-x="315" unicode=")" /><glyph d="M231 -72 318 -72L305 -144H226Q134 -144 100 -91.5Q66 -39 100 49L137 147Q161 208 148.5 235Q136 262 88 262H23L35 334H100Q149 334 171 361.5Q193 389 190 449L188 547Q185 644 228 692Q271 740 361 740H460L448 668H362Q317 668 293.5 641Q270 614 272 566L275 468Q277 396 254.5 352.5Q232 309 185 294Q225 279 232.5 237Q240 195 215 128L177 30Q158 -18 172 -45Q186 -72 231 -72Z" glyph-name="braceleft" horiz-adv-x="377" unicode="{" /><glyph d="M204 147 206 49Q209 -48 166 -96Q123 -144 33 -144H-66L-53 -72H32Q77 -72 100.5 -45Q124 -18 122 30L119 128Q117 200 139.5 243Q162 286 209 301Q169 316 161.5 358Q154 400 179 468L217 566Q236 614 222 641Q208 668 163 668H76L89 740H168Q260 740 294 687.5Q328 635 294 547L257 449Q234 387 246 360Q258 333 306 333H371L359 261H294Q245 261 223 234Q201 207 204 147Z" glyph-name="braceright" horiz-adv-x="377" unicode="}" /><glyph d="M132 -71 287 -71L274 -143H37L193 740H430L417 668H262Z" glyph-name="bracketleft" horiz-adv-x="346" unicode="[" /><glyph d="M89 740 326 740L171 -143H-66L-53 -71H102L231 668H76Z" glyph-name="bracketright" horiz-adv-x="346" unicode="]" /><glyph d="M-107 -143 373 740H459L-21 -143Z" glyph-name="slash" horiz-adv-x="364" unicode="/" /><glyph d="M77 740 157 740L333 -143H253Z" glyph-name="backslash" horiz-adv-x="364" unicode="\" /><glyph d="M313 -157 -66 -157L-55 -96H324Z" glyph-name="underscore" horiz-adv-x="389" unicode="_" /><glyph d="M339 267 59 267L72 339H352Z" glyph-name="hyphen" horiz-adv-x="392" unicode="-" /><glyph d="" glyph-name="uni00AD" horiz-adv-x="0" unicode="­" /><glyph d="M539 267 59 267L72 339H552Z" glyph-name="endash" horiz-adv-x="592" unicode="–" /><glyph d="M739 267 59 267L72 339H752Z" glyph-name="emdash" horiz-adv-x="792" unicode="—" /><glyph d="M119 357 187 740H269L201 357ZM19 -213 86 170H168L101 -213Z" glyph-name="brokenbar" horiz-adv-x="282" unicode="¦" /><glyph d="M25 -213 193 740H275L107 -213Z" glyph-name="bar" horiz-adv-x="295" unicode="|" /><glyph d="M119 241 296 98L280 14L33 221L42 274L362 478L346 382ZM409 241 586 98L570 14L323 221L332 274L652 478L636 382Z" glyph-name="guillemotleft" horiz-adv-x="667" unicode="«" /><glyph d="M343 271 334 218L14 14L30 109L256 250L80 393L96 478ZM633 271 624 218L304 14L320 109L546 250L370 393L386 478Z" glyph-name="guillemotright" horiz-adv-x="667" unicode="»" /><glyph d="M119 241 296 98L280 14L33 221L42 274L362 478L346 382Z" glyph-name="guilsinglleft" horiz-adv-x="377" unicode="‹" /><glyph d="M343 271 334 218L14 14L30 109L256 250L80 393L96 478Z" glyph-name="guilsinglright" horiz-adv-x="377" unicode="›" /><glyph d="M27 91 109 91L106 72Q95 10 68.5 -46Q42 -102 -10 -168L-59 -139Q-20 -75 -2.5 -28Q15 19 27 91Z" glyph-name="quotesinglbase" horiz-adv-x="192" unicode="‚" /><glyph d="M27 91 109 91L106 72Q95 10 68.5 -46Q42 -102 -10 -168L-59 -139Q-21 -77 -3.5 -30.5Q14 16 27 91ZM191 91 273 91L270 72Q259 10 232.5 -46Q206 -102 154 -168L104 -139Q143 -76 161 -29Q179 18 191 91Z" glyph-name="quotedblbase" horiz-adv-x="356" unicode="„" /><glyph d="M151 430 69 430L72 449Q83 512 109.5 567.5Q136 623 189 690L238 661Q199 597 181.5 550Q164 503 151 430Z" glyph-name="quoteleft" horiz-adv-x="192" unicode="‘" /><glyph d="M315 430 233 430L236 449Q247 512 273.5 567.5Q300 623 353 690L402 661Q363 597 345.5 550Q328 503 315 430ZM151 430 69 430L72 449Q83 512 109.5 567.5Q136 623 189 690L238 661Q199 597 181.5 550Q164 503 151 430Z" glyph-name="quotedblleft" horiz-adv-x="356" unicode="“" /><glyph d="M108 680 190 680L187 661Q176 597 149 541.5Q122 486 70 420L21 448Q61 512 78.5 559.5Q96 607 108 680Z" glyph-name="quoteright" horiz-adv-x="192" unicode="’" /><glyph d="M149 680 231 680L228 661Q217 597 190 541.5Q163 486 111 420L62 448Q102 512 119.5 559.5Q137 607 149 680ZM313 680 395 680L392 661Q381 597 354 541.5Q327 486 275 420L226 448Q266 512 283.5 559.5Q301 607 313 680Z" glyph-name="quotedblright" horiz-adv-x="356" unicode="”" /><glyph d="M198 602 155 430H101L118 602L132 680H212Z" glyph-name="quotesingle" horiz-adv-x="192" unicode="'" /><glyph d="M198 602 155 430H101L118 602L132 680H212ZM359 602 316 430H262L279 602L293 680H373Z" glyph-name="quotedbl" horiz-adv-x="353" unicode="&quot;" /><glyph d="M210 396 188 271H63L85 396Z" glyph-name="bullet" horiz-adv-x="243" unicode="•" /><glyph d="M457 187Q457 97 390.5 43.5Q324 -10 215 -10Q118 -10 64.5 33.5Q11 77 11 157Q11 229 56.5 277Q102 325 195 352Q148 391 124.5 435.5Q101 480 101 528Q101 603 151.5 646.5Q202 690 288 690Q387 690 434.5 632Q482 574 454 493L374 478Q393 544 370 580Q347 616 287 616Q238 616 211.5 592.5Q185 569 185 524Q185 485 206 447.5Q227 410 270 370L370 392Q436 407 479 420Q522 433 557 449L582 375Q546 361 508 350Q470 339 417 328L403 325Q430 293 443.5 258.5Q457 224 457 187ZM95 161Q95 114 126.5 89.5Q158 65 217 65Q289 65 331.5 99.5Q374 134 374 194Q374 223 363 252.5Q352 282 332 310L270 297Q177 277 136 245.5Q95 214 95 161Z" glyph-name="ampersand" horiz-adv-x="566" unicode="&amp;" /><glyph d="M386 -143 299 -143L444 680H531ZM309 680 376 680L300 248H255Q158 248 109.5 302.5Q61 357 77 447L87 502Q102 589 159 634.5Q216 680 309 680Z" glyph-name="paragraph" horiz-adv-x="563" unicode="¶" /><glyph d="M266 296 254 230L173 -143H118L169 230L180 296L221 448L83 435H47L61 517H97L231 503L242 644L248 680H334L328 644L290 503L428 516H464L449 434H413L279 448Z" glyph-name="dagger" horiz-adv-x="431" unicode="†" /><glyph d="M217 33 206 -107L199 -143H114L120 -107L158 33L20 20H-15L0 102H35L169 88L182 240L192 296L233 448L94 435H58L73 517H109L243 503L253 644L260 680H345L339 644L301 503L439 516H475L461 434H425L290 448L277 296L267 240L226 88L365 102H401L387 20H351Z" glyph-name="daggerdbl" horiz-adv-x="453" unicode="‡" /><glyph d="M346 84Q369 62 380.5 33Q392 4 392 -33Q392 -121 331 -172Q270 -223 160 -223Q109 -223 61.5 -211.5Q14 -200 -34 -176L-2 -101Q45 -124 83.5 -134Q122 -144 161 -144Q229 -144 266 -116.5Q303 -89 303 -40Q303 -8 285.5 14Q268 36 230 52L158 82Q97 107 67 144.5Q37 182 37 233Q37 286 70 329Q103 372 161 396Q138 418 126.5 445.5Q115 473 115 507Q115 592 171.5 641Q228 690 330 690Q374 690 417.5 679.5Q461 669 507 648L475 573Q433 593 398 602Q363 611 328 611Q269 611 236.5 585Q204 559 204 512Q204 483 221.5 463.5Q239 444 281 427L346 399Q406 374 435 335.5Q464 297 464 242Q464 192 432.5 150Q401 108 346 84ZM208 155 280 125Q281 125 282.5 124.5Q284 124 285 123Q330 142 352.5 169Q375 196 375 229Q375 263 356.5 285.5Q338 308 296 326L231 353Q230 354 227.5 355Q225 356 223 356Q175 339 150.5 310.5Q126 282 126 244Q126 214 144 194Q162 174 208 155Z" glyph-name="section" horiz-adv-x="507" unicode="§" /><glyph d="M348 367 362 339L295 306L281 335L240 459L159 355L136 334L84 388L107 409L213 487L90 532L62 547L96 612L124 597L231 521L236 652L242 683L315 670L309 639L270 515L395 550L427 554L437 481L406 476H274Z" glyph-name="asterisk" horiz-adv-x="406" unicode="*" /><glyph d="M400 680 468 680L528 462L666 680H738L678 340H618L635 437L664 583L538 384H493L440 583L417 437L400 340H340ZM175 621 70 621L81 680H352L341 621H238L188 340H125Z" glyph-name="trademark" horiz-adv-x="716" unicode="™" /><glyph d="M548 479Q548 377 481 309Q414 241 314 241Q214 241 147 309Q80 377 80 479Q80 582 146.5 649.5Q213 717 314 717Q415 717 481.5 649.5Q548 582 548 479ZM133 479Q133 397 184 343.5Q235 290 314 290Q392 290 443.5 343.5Q495 397 495 479Q495 561 443.5 614.5Q392 668 314 668Q235 668 184 614.5Q133 561 133 479ZM283 353 232 353V608H319Q357 608 379 587Q401 566 401 531V517Q401 495 392 477.5Q383 460 366 450Q381 425 393.5 401Q406 377 416 353H358Q346 381 336 401Q326 421 316 439H283ZM319 559 283 559V488H319Q332 488 339.5 496Q347 504 347 517V531Q347 544 339.5 551.5Q332 559 319 559Z" glyph-name="registered" horiz-adv-x="547" unicode="®" /><glyph d="M808 340Q808 177 702.5 70Q597 -37 436 -37Q275 -37 169.5 70Q64 177 64 340Q64 503 169.5 610Q275 717 436 717Q597 717 702.5 610Q808 503 808 340ZM128 340Q128 201 215 111Q302 21 436 21Q570 21 657 111Q744 201 744 340Q744 478 657 568.5Q570 659 436 659Q302 659 215 568.5Q128 478 128 340ZM439 490Q387 490 361.5 458Q336 426 336 361V320Q336 254 361 222Q386 190 439 190Q466 190 494 197.5Q522 205 552 219L576 158Q543 141 506.5 132Q470 123 434 123Q350 123 305.5 174Q261 225 261 320V361Q261 455 305.5 506Q350 557 434 557Q469 557 503 548.5Q537 540 567 525L543 464Q514 477 488 483.5Q462 490 439 490Z" glyph-name="copyright" horiz-adv-x="840" unicode="©" /><glyph d="M706 -99 733 -167Q673 -194 605 -208.5Q537 -223 471 -223Q278 -223 164 -106.5Q50 10 50 207Q50 417 175 553.5Q300 690 496 690Q675 690 790.5 575Q906 460 906 284Q906 160 843.5 77.5Q781 -5 687 -5Q637 -5 606.5 16Q576 37 568 78Q529 34 488 12Q447 -10 403 -10Q334 -10 300.5 49Q267 108 282 203L290 258Q305 359 359.5 413Q414 467 502 467Q547 467 593.5 451.5Q640 436 689 405L645 154Q637 108 649 85.5Q661 63 695 63Q750 63 789 126.5Q828 190 828 284Q828 430 734.5 525Q641 620 496 620Q334 620 231 503.5Q128 387 128 207Q128 41 220 -56Q312 -153 471 -153Q530 -153 592 -139Q654 -125 706 -99ZM374 258 366 203Q356 136 371 99.5Q386 63 425 63Q458 63 494 90Q530 117 567 170L600 366Q574 380 552 386.5Q530 393 508 393Q452 393 418 359Q384 325 374 258Z" glyph-name="at" horiz-adv-x="950" unicode="@" /><glyph d="M356 338 344 338Q313 338 294 353Q275 368 271 395Q244 365 216.5 350Q189 335 161 335Q111 335 86.5 380Q62 425 73 496L78 529Q89 604 131.5 644.5Q174 685 240 685Q272 685 305.5 674Q339 663 371 642L335 437Q332 416 337 407.5Q342 399 357 399H367ZM144 529 139 496Q132 447 141.5 420.5Q151 394 177 394Q200 394 226 412.5Q252 431 278 467L303 609Q287 617 271 621Q255 625 240 625Q200 625 175 600Q150 575 144 529Z" glyph-name="ordfeminine" horiz-adv-x="362" unicode="ª" /><glyph d="M238 685Q308 685 344 638Q380 591 368 517L363 482Q351 410 310 372.5Q269 335 203 335Q131 335 96 381Q61 427 73 502L78 537Q90 608 131.5 646.5Q173 685 238 685ZM298 482 303 518Q310 567 293 596Q276 625 238 625Q200 625 175 602Q150 579 143 537L138 501Q130 451 147.5 423Q165 395 204 395Q243 395 267 417.5Q291 440 298 482Z" glyph-name="ordmasculine" horiz-adv-x="349" unicode="º" /><glyph d="M332 0 255 0L348 195H182L89 0H12L105 195H6L18 261H137L212 418H116L127 484H244L338 680H415L321 484H487L581 680H658L564 484H663L652 418H532L457 261H554L542 195H425ZM289 418 214 261H380L455 418Z" glyph-name="numbersign" horiz-adv-x="638" unicode="#" /><glyph d="M946 685Q1022 685 1060 638Q1098 591 1088 514L1083 478Q1072 399 1027 357Q982 315 910 315Q833 315 795 361.5Q757 408 768 485L773 521Q783 600 828 642.5Q873 685 946 685ZM145 0 62 0L182 680H273Q349 514 398.5 387.5Q448 261 489 128L527 400L577 680H659L539 0H449Q400 156 349.5 292Q299 428 240 562L194 278ZM1013 478 1019 514Q1026 563 1006.5 591Q987 619 944 619Q902 619 876 593.5Q850 568 843 521L837 485Q830 436 849.5 408Q869 380 912 380Q954 380 980 405.5Q1006 431 1013 478ZM1008 164 730 164L741 229H1019Z" glyph-name="uni2116" horiz-adv-x="1089" unicode="№" /><glyph d="M487 99 508 24Q463 7 416.5 -1.5Q370 -10 328 -10Q230 -10 175 48.5Q120 107 122 211H29L41 280H129L146 380H59L71 448H158Q187 572 252.5 631Q318 690 427 690Q469 690 511.5 679.5Q554 669 596 648L565 571Q524 591 490.5 600Q457 609 423 609Q357 609 313.5 569Q270 529 249 448H484L458 380H236L219 280H425L399 211H212Q211 143 243 106.5Q275 70 337 70Q374 70 411 77Q448 84 487 99Z" glyph-name="Euro" horiz-adv-x="580" unicode="€" /><glyph d="M450 193Q450 108 398.5 55Q347 2 251 -8L230 -133H150L171 -9Q127 -5 86 6.5Q45 18 5 38L35 113Q85 89 125.5 78.5Q166 68 208 68Q280 68 319.5 99Q359 130 359 186Q359 222 339.5 247.5Q320 273 278 292L206 324Q144 351 115.5 391.5Q87 432 87 493Q87 581 141 633Q195 685 294 690L316 813H396L373 685Q403 681 433.5 671Q464 661 495 646L465 571Q421 592 384.5 601.5Q348 611 313 611Q248 611 212.5 581Q177 551 177 498Q177 464 195.5 441Q214 418 257 399L328 367Q391 339 420.5 296.5Q450 254 450 193Z" glyph-name="dollar" horiz-adv-x="506" unicode="$" /><glyph d="M500 232 488 164H305L276 0H189L218 164H37L49 232H230L237 271L217 332H67L79 400H194L101 680H190L294 358L508 680H604L412 400H529L517 332H366L324 271L317 232Z" glyph-name="yen" horiz-adv-x="554" unicode="¥" /><glyph d="M150 81 430 81L416 0H25L38 69Q104 130 133 174.5Q162 219 162 265Q162 271 162 274Q162 277 161 279H66L80 355H145Q127 422 123.5 444.5Q120 467 120 490Q120 585 175.5 637.5Q231 690 335 690Q380 690 423.5 679.5Q467 669 512 648L479 572Q440 591 405 600Q370 609 337 609Q275 609 242.5 577.5Q210 546 210 485Q210 466 213 445.5Q216 425 237 355H410L396 279H250V273Q250 226 225.5 179.5Q201 133 150 81Z" glyph-name="sterling" horiz-adv-x="486" unicode="£" /><glyph d="M366 90 380 19Q348 7 316.5 -0.5Q285 -8 254 -10L234 -125H154L176 -3Q105 16 75.5 78.5Q46 141 61 237L69 288Q85 383 136 439.5Q187 496 265 504L285 620H365L344 499Q367 495 390 487Q413 479 436 467L407 397Q373 413 344.5 421Q316 429 291 429Q235 429 198.5 392Q162 355 151 288L142 234Q128 150 154 107.5Q180 65 245 65Q272 65 302 71Q332 77 366 90Z" glyph-name="cent" horiz-adv-x="445" unicode="¢" /><glyph d="M230 321 130 -54Q104 -150 66 -186.5Q28 -223 -36 -223Q-61 -223 -87.5 -217.5Q-114 -212 -136 -202L-108 -133Q-91 -140 -74.5 -144Q-58 -148 -42 -148Q-8 -148 12.5 -126.5Q33 -105 47 -54L147 321H26L39 393H166L216 581Q241 677 279 713.5Q317 750 383 750Q408 750 434.5 744.5Q461 739 483 729L454 660Q438 667 421.5 671Q405 675 389 675Q354 675 333.5 654Q313 633 299 581L249 393H369L356 321Z" glyph-name="florin" horiz-adv-x="362" unicode="ƒ" /><glyph d="M415 0 306 0Q249 76 193.5 137Q138 198 64 266L76 333H233Q283 333 318.5 361.5Q354 390 366 440H94L106 507H379Q384 556 358 584.5Q332 613 282 613H125L137 680H582L570 613H429Q449 593 458 566.5Q467 540 464 507H551L539 440H453Q437 358 376 312Q315 266 221 266H179Q248 203 303 141Q358 79 415 0Z" glyph-name="uni20B9" horiz-adv-x="541" unicode="₹" /><glyph d="M282 103Q248 103 218.5 112.5Q189 122 166 140L40 31L0 79L124 189Q113 209 107.5 232.5Q102 256 102 282Q102 323 115 359Q128 395 152 424L75 522L125 566L203 468Q229 482 256.5 489.5Q284 497 313 497Q347 497 376.5 487.5Q406 478 429 460L554 569L595 520L471 412Q482 391 487.5 367.5Q493 344 493 318Q493 278 480 240.5Q467 203 442 175L519 78L468 33L390 131Q366 117 338.5 110Q311 103 282 103ZM422 315Q422 370 393 400.5Q364 431 312 431Q252 431 212.5 389Q173 347 173 284Q173 230 202.5 199.5Q232 169 284 169Q344 169 383 210.5Q422 252 422 315Z" glyph-name="currency" horiz-adv-x="576" unicode="¤" /><glyph d="M368 690Q479 690 533 610.5Q587 531 563 399L540 264Q516 128 449.5 59Q383 -10 277 -10Q164 -10 110.5 69Q57 148 81 282L105 417Q129 552 195.5 621Q262 690 368 690ZM452 264 475 399Q493 500 464 555.5Q435 611 364 611Q296 611 253 562.5Q210 514 193 417L169 282Q151 179 180 123.5Q209 68 279 68Q348 68 391 116.5Q434 165 452 264Z" glyph-name="zero" horiz-adv-x="613" unicode="0" /><glyph d="M106 518 78 586L257 680H336L216 0H131L234 585Z" glyph-name="one" horiz-adv-x="366" unicode="1" /><glyph d="M106 79 410 79L396 0H7L19 66Q37 166 77 224Q117 282 201 323L272 358Q342 391 366.5 416Q391 441 397 480L400 500Q409 553 381 582Q353 611 292 611Q258 611 218 602Q178 593 132 574L110 647Q163 669 209.5 679.5Q256 690 298 690Q398 690 448.5 637Q499 584 485 500L482 480Q471 416 437 375.5Q403 335 301 286L230 252Q176 227 148 188Q120 149 106 79Z" glyph-name="two" horiz-adv-x="496" unicode="2" /><glyph d="M422 185 420 169Q405 79 346 34.5Q287 -10 183 -10Q134 -10 87.5 1Q41 12 -4 34L25 106Q66 87 105 77.5Q144 68 184 68Q251 68 288 93.5Q325 119 333 171L336 186Q345 244 320 274.5Q295 305 238 305H138L152 381H252Q307 381 340.5 406.5Q374 432 381 479L383 495Q392 554 367 582.5Q342 611 282 611Q246 611 207 602Q168 593 119 574L97 646Q147 668 195.5 679Q244 690 289 690Q389 690 436.5 639Q484 588 470 497L468 481Q460 431 432.5 394.5Q405 358 360 338Q399 315 415 276Q431 237 422 185Z" glyph-name="three" horiz-adv-x="499" unicode="3" /><glyph d="M479 240 466 163H391L362 0H280L309 163H17L29 230Q143 368 219 475Q295 582 349 680H448Q390 577 314.5 470Q239 363 136 240H322L344 364H426L404 240Z" glyph-name="four" horiz-adv-x="508" unicode="4" /><glyph d="M127 314 84 354L161 680H500L486 600H223L177 407Q197 414 217.5 417Q238 420 261 420Q360 420 410.5 362.5Q461 305 445 212L439 181Q423 85 362.5 37.5Q302 -10 196 -10Q147 -10 100.5 1Q54 12 8 34L41 107Q82 87 120 77.5Q158 68 199 68Q265 68 303.5 96.5Q342 125 351 181L357 212Q367 274 339 308.5Q311 343 248 343Q221 343 190.5 335.5Q160 328 127 314Z" glyph-name="five" horiz-adv-x="504" unicode="5" /><glyph d="M507 218 501 187Q485 93 426 41.5Q367 -10 275 -10Q162 -10 111 69.5Q60 149 84 287L109 426Q132 559 199 624.5Q266 690 380 690Q425 690 468 679.5Q511 669 553 648L520 575Q485 593 450 602Q415 611 381 611Q301 611 254.5 565Q208 519 191 426L178 356Q216 391 256.5 408Q297 425 341 425Q429 425 475.5 366.5Q522 308 507 218ZM323 348Q280 348 238.5 327Q197 306 163 268Q149 169 178 118.5Q207 68 278 68Q333 68 370.5 99.5Q408 131 418 187L423 217Q433 278 406.5 313Q380 348 323 348Z" glyph-name="six" horiz-adv-x="563" unicode="6" /><glyph d="M515 680 502 610Q402 460 326 307.5Q250 155 197 0H102Q156 154 231 303.5Q306 453 403 600H89L104 680Z" glyph-name="seven" horiz-adv-x="474" unicode="7" /><glyph d="M399 342Q445 314 466.5 278Q488 242 488 193Q488 101 425 45.5Q362 -10 250 -10Q155 -10 100 33Q45 76 45 146Q45 205 83.5 258Q122 311 193 349Q156 375 137.5 411Q119 447 119 493Q119 579 178 634.5Q237 690 337 690Q425 690 476.5 648Q528 606 528 534Q528 479 495 430Q462 381 399 342ZM205 500Q205 465 224.5 440.5Q244 416 289 395L339 372Q390 407 415.5 443.5Q441 480 441 521Q441 566 413.5 590Q386 614 335 614Q276 614 240.5 583Q205 552 205 500ZM132 165Q132 119 164 92Q196 65 254 65Q321 65 360.5 96.5Q400 128 400 181Q400 218 378.5 243Q357 268 305 292L252 316Q189 279 160.5 243Q132 207 132 165Z" glyph-name="eight" horiz-adv-x="561" unicode="8" /><glyph d="M512 392 488 253Q465 121 398 55.5Q331 -10 217 -10Q170 -10 127 0Q84 10 43 31L76 104Q113 86 148 77Q183 68 216 68Q295 68 341.5 113.5Q388 159 405 253L417 322Q379 288 338.5 271Q298 254 255 254Q167 254 121 312Q75 370 90 461L94 492Q108 585 168 637.5Q228 690 321 690Q434 690 485 610Q536 530 512 392ZM178 492 173 462Q163 401 189.5 366Q216 331 273 331Q315 331 357 352Q399 373 433 411Q447 510 418 560.5Q389 611 318 611Q263 611 225 579Q187 547 178 492Z" glyph-name="nine" horiz-adv-x="564" unicode="9" /><glyph d="M325 690Q436 690 490 610.5Q544 531 520 399L497 264Q473 128 406.5 59Q340 -10 234 -10Q121 -10 67.5 69Q14 148 38 282L62 417Q86 552 152.5 621Q219 690 325 690ZM409 264 432 399Q450 500 421 555.5Q392 611 321 611Q253 611 210 562.5Q167 514 150 417L126 282Q108 179 137 123.5Q166 68 236 68Q305 68 348 116.5Q391 165 409 264Z" glyph-name="zero.tlf" horiz-adv-x="529" unicode="" /><glyph d="M160 507 132 575L331 680H410L304 80H426L412 0H47L61 80H219L308 584Z" glyph-name="one.tlf" horiz-adv-x="529" unicode="" /><glyph d="M125 79 429 79L415 0H26L38 66Q56 166 96 224Q136 282 220 323L291 358Q361 391 385.5 416Q410 441 416 480L419 500Q428 553 400 582Q372 611 311 611Q277 611 237 602Q197 593 151 574L129 647Q182 669 228.5 679.5Q275 690 317 690Q417 690 467.5 637Q518 584 504 500L501 480Q490 416 456 375.5Q422 335 320 286L249 252Q195 227 167 188Q139 149 125 79Z" glyph-name="two.tlf" horiz-adv-x="529" unicode="" /><glyph d="M438 185 436 169Q421 79 362 34.5Q303 -10 199 -10Q150 -10 103.5 1Q57 12 12 34L41 106Q82 87 121 77.5Q160 68 200 68Q267 68 304 93.5Q341 119 349 171L352 186Q361 244 336 274.5Q311 305 254 305H154L168 381H268Q323 381 356.5 406.5Q390 432 397 479L399 495Q408 554 383 582.5Q358 611 298 611Q262 611 223 602Q184 593 135 574L113 646Q163 668 211.5 679Q260 690 305 690Q405 690 452.5 639Q500 588 486 497L484 481Q476 431 448.5 394.5Q421 358 376 338Q415 315 431 276Q447 237 438 185Z" glyph-name="three.tlf" horiz-adv-x="529" unicode="" /><glyph d="M492 240 479 163H404L375 0H293L322 163H30L42 230Q156 368 232 475Q308 582 362 680H461Q403 577 327.5 470Q252 363 149 240H335L357 364H439L417 240Z" glyph-name="four.tlf" horiz-adv-x="529" unicode="" /><glyph d="M137 314 94 354L171 680H510L496 600H233L187 407Q207 414 227.5 417Q248 420 271 420Q370 420 420.5 362.5Q471 305 455 212L449 181Q433 85 372.5 37.5Q312 -10 206 -10Q157 -10 110.5 1Q64 12 18 34L51 107Q92 87 130 77.5Q168 68 209 68Q275 68 313.5 96.5Q352 125 361 181L367 212Q377 274 349 308.5Q321 343 258 343Q231 343 200.5 335.5Q170 328 137 314Z" glyph-name="five.tlf" horiz-adv-x="529" unicode="" /><glyph d="M487 218 481 187Q465 93 406 41.5Q347 -10 255 -10Q142 -10 91 69.5Q40 149 64 287L89 426Q112 559 179 624.5Q246 690 360 690Q405 690 448 679.5Q491 669 533 648L500 575Q465 593 430 602Q395 611 361 611Q281 611 234.5 565Q188 519 171 426L158 356Q196 391 236.5 408Q277 425 321 425Q409 425 455.5 366.5Q502 308 487 218ZM303 348Q260 348 218.5 327Q177 306 143 268Q129 169 158 118.5Q187 68 258 68Q313 68 350.5 99.5Q388 131 398 187L403 217Q413 278 386.5 313Q360 348 303 348Z" glyph-name="six.tlf" horiz-adv-x="529" unicode="" /><glyph d="M537 680 524 610Q424 460 348 307.5Q272 155 219 0H124Q178 154 253 303.5Q328 453 425 600H111L126 680Z" glyph-name="seven.tlf" horiz-adv-x="529" unicode="" /><glyph d="M385 342Q431 314 452.5 278Q474 242 474 193Q474 101 411 45.5Q348 -10 236 -10Q141 -10 86 33Q31 76 31 146Q31 205 69.5 258Q108 311 179 349Q142 375 123.5 411Q105 447 105 493Q105 579 164 634.5Q223 690 323 690Q411 690 462.5 648Q514 606 514 534Q514 479 481 430Q448 381 385 342ZM191 500Q191 465 210.5 440.5Q230 416 275 395L325 372Q376 407 401.5 443.5Q427 480 427 521Q427 566 399.5 590Q372 614 321 614Q262 614 226.5 583Q191 552 191 500ZM118 165Q118 119 150 92Q182 65 240 65Q307 65 346.5 96.5Q386 128 386 181Q386 218 364.5 243Q343 268 291 292L238 316Q175 279 146.5 243Q118 207 118 165Z" glyph-name="eight.tlf" horiz-adv-x="529" unicode="" /><glyph d="M498 392 474 253Q451 121 384 55.5Q317 -10 203 -10Q156 -10 113 0Q70 10 29 31L62 104Q99 86 134 77Q169 68 202 68Q281 68 327.5 113.5Q374 159 391 253L403 322Q365 288 324.5 271Q284 254 241 254Q153 254 107 312Q61 370 76 461L80 492Q94 585 154 637.5Q214 690 307 690Q420 690 471 610Q522 530 498 392ZM164 492 159 462Q149 401 175.5 366Q202 331 259 331Q301 331 343 352Q385 373 419 411Q433 510 404 560.5Q375 611 304 611Q249 611 211 579Q173 547 164 492Z" glyph-name="nine.tlf" horiz-adv-x="529" unicode="" /><glyph d="M310 505Q418 505 472 436.5Q526 368 509 258L501 208Q485 103 422 46.5Q359 -10 258 -10Q149 -10 95.5 57.5Q42 125 59 237L67 288Q84 392 147 448.5Q210 505 310 505ZM414 208 423 260Q435 339 405 384Q375 429 309 429Q246 429 205.5 392.5Q165 356 154 288L146 235Q133 156 163 110.5Q193 65 259 65Q323 65 363 102Q403 139 414 208Z" glyph-name="zero.posf" horiz-adv-x="569" unicode="" /><glyph d="M73 333 46 401L224 495H303L216 0H131L201 400Z" glyph-name="one.posf" horiz-adv-x="348" unicode="" /><glyph d="M116 76 377 76L364 0H17L29 66Q43 144 77.5 186Q112 228 184 252L253 276Q296 291 316 308.5Q336 326 340 350L342 362Q346 394 324.5 411Q303 428 257 428Q225 428 192 420Q159 412 115 395L92 465Q141 485 183 495Q225 505 265 505Q350 505 393.5 462.5Q437 420 425 354L423 341Q416 294 383 262.5Q350 231 276 206L207 182Q165 167 144.5 143.5Q124 120 116 76Z" glyph-name="two.posf" horiz-adv-x="466" unicode="" /><glyph d="M367 0 365 -16Q350 -106 291 -150.5Q232 -195 128 -195Q79 -195 32.5 -184Q-14 -173 -59 -151L-30 -79Q11 -98 50 -107.5Q89 -117 129 -117Q196 -117 233 -91.5Q270 -66 278 -14L281 1Q290 59 265 89.5Q240 120 183 120H83L97 196H197Q252 196 285.5 221.5Q319 247 326 294L328 310Q337 369 312 397.5Q287 426 227 426Q191 426 152 417Q113 408 64 389L42 461Q92 483 140.5 494Q189 505 234 505Q334 505 381.5 454Q429 403 415 312L413 296Q405 246 377.5 209.5Q350 173 305 153Q344 130 360 91Q376 52 367 0Z" glyph-name="three.posf" horiz-adv-x="466" unicode="" /><glyph d="M446 76 432 0H358L325 -185H243L276 0H-16L-4 66Q119 211 189.5 307.5Q260 404 312 495H411Q356 400 284 301.5Q212 203 104 76H289L308 184H390L371 76Z" glyph-name="four.posf" horiz-adv-x="494" unicode="" /><glyph d="M81 129 38 169L115 495H454L440 415H177L131 222Q151 229 171.5 232Q192 235 215 235Q314 235 364.5 177.5Q415 120 399 27L393 -4Q377 -100 316.5 -147.5Q256 -195 150 -195Q101 -195 54.5 -184Q8 -173 -38 -151L-5 -78Q36 -98 74 -107.5Q112 -117 153 -117Q219 -117 257.5 -88.5Q296 -60 305 -4L311 27Q321 89 293 123.5Q265 158 202 158Q175 158 144.5 150.5Q114 143 81 129Z" glyph-name="five.posf" horiz-adv-x="479" unicode="" /><glyph d="M495 218 489 187Q473 93 414 41.5Q355 -10 263 -10Q150 -10 99 69.5Q48 149 72 287L97 426Q120 559 187 624.5Q254 690 368 690Q413 690 456 679.5Q499 669 541 648L508 575Q473 593 438 602Q403 611 369 611Q289 611 242.5 565Q196 519 179 426L166 356Q204 391 244.5 408Q285 425 329 425Q417 425 463.5 366.5Q510 308 495 218ZM311 348Q268 348 226.5 327Q185 306 151 268Q137 169 166 118.5Q195 68 266 68Q321 68 358.5 99.5Q396 131 406 187L411 217Q421 278 394.5 313Q368 348 311 348Z" glyph-name="six.posf" horiz-adv-x="552" unicode="" /><glyph d="M473 495 460 425Q360 275 284 122.5Q208 -30 155 -185H60Q114 -31 189 118.5Q264 268 361 415H47L62 495Z" glyph-name="seven.posf" horiz-adv-x="458" unicode="" /><glyph d="M385 342Q431 314 452.5 278Q474 242 474 193Q474 101 411 45.5Q348 -10 236 -10Q141 -10 86 33Q31 76 31 146Q31 205 69.5 258Q108 311 179 349Q142 375 123.5 411Q105 447 105 493Q105 579 164 634.5Q223 690 323 690Q411 690 462.5 648Q514 606 514 534Q514 479 481 430Q448 381 385 342ZM191 500Q191 465 210.5 440.5Q230 416 275 395L325 372Q376 407 401.5 443.5Q427 480 427 521Q427 566 399.5 590Q372 614 321 614Q262 614 226.5 583Q191 552 191 500ZM118 165Q118 119 150 92Q182 65 240 65Q307 65 346.5 96.5Q386 128 386 181Q386 218 364.5 243Q343 268 291 292L238 316Q175 279 146.5 243Q118 207 118 165Z" glyph-name="eight.posf" horiz-adv-x="532" unicode="" /><glyph d="M478 207 454 68Q431 -64 364 -129.5Q297 -195 183 -195Q136 -195 93 -185Q50 -175 9 -154L42 -81Q79 -99 114 -108Q149 -117 182 -117Q261 -117 307.5 -71.5Q354 -26 371 68L383 137Q345 103 304.5 86Q264 69 221 69Q133 69 87 127Q41 185 56 276L60 307Q74 400 134 452.5Q194 505 287 505Q400 505 451 425Q502 345 478 207ZM144 307 139 277Q129 216 155.5 181Q182 146 239 146Q281 146 323 167Q365 188 399 226Q413 325 384 375.5Q355 426 284 426Q229 426 191 394Q153 362 144 307Z" glyph-name="nine.posf" horiz-adv-x="549" unicode="" /><glyph d="M392 544Q392 469 342.5 417.5Q293 366 219 366Q151 366 111 405.5Q71 445 71 511Q71 587 121 638.5Q171 690 245 690Q312 690 352 650.5Q392 611 392 544ZM325 542Q325 582 303.5 605Q282 628 244 628Q198 628 168 595Q138 562 138 513Q138 473 159.5 450.5Q181 428 220 428Q265 428 295 460.5Q325 493 325 542Z" glyph-name="degree" horiz-adv-x="366" unicode="°" /><glyph d="M361 537 355 501Q345 439 308.5 407Q272 375 210 375Q146 375 113 416Q80 457 90 522L95 558Q105 620 142 652.5Q179 685 240 685Q305 685 338 643.5Q371 602 361 537ZM127 0 590 680H665L201 0ZM212 434Q245 434 265.5 451.5Q286 469 291 502L296 538Q302 580 287 602.5Q272 625 238 625Q205 625 185 607.5Q165 590 160 557L155 521Q148 479 163 456.5Q178 434 212 434ZM703 157 697 121Q687 59 650.5 27Q614 -5 552 -5Q488 -5 455 36Q422 77 432 142L437 178Q447 240 484 272.5Q521 305 582 305Q647 305 680 264Q713 223 703 157ZM554 54Q587 54 607.5 71.5Q628 89 633 122L638 158Q644 200 629 222.5Q614 245 580 245Q547 245 527 227.5Q507 210 502 177L497 141Q490 99 505 76.5Q520 54 554 54Z" glyph-name="percent" horiz-adv-x="761" unicode="%" /><glyph d="M361 537 355 501Q345 439 308.5 407Q272 375 210 375Q146 375 113 416Q80 457 90 522L95 558Q105 620 142 652.5Q179 685 240 685Q305 685 338 644Q371 603 361 537ZM127 0 590 680H665L201 0ZM212 434Q245 434 265.5 451.5Q286 469 291 502L296 538Q302 580 287 602.5Q272 625 238 625Q205 625 185 607.5Q165 590 160 557L155 521Q148 479 163 456.5Q178 434 212 434ZM703 157 697 121Q687 59 650.5 27Q614 -5 552 -5Q488 -5 455 36Q422 77 432 142L437 178Q447 240 484 272.5Q521 305 582 305Q647 305 680 264Q713 223 703 157ZM1041 157 1035 121Q1025 59 988.5 27Q952 -5 890 -5Q825 -5 792 36Q759 77 769 142L775 178Q785 240 822 272.5Q859 305 920 305Q985 305 1018 264Q1051 223 1041 157ZM554 54Q587 54 607.5 71.5Q628 89 633 122L638 158Q644 200 629 222.5Q614 245 580 245Q547 245 527 227.5Q507 210 502 177L497 141Q490 99 505 76.5Q520 54 554 54ZM892 54Q925 54 945.5 71.5Q966 89 970 122L976 158Q982 199 967 222Q952 245 918 245Q885 245 864.5 227.5Q844 210 840 177L834 141Q828 99 843 76.5Q858 54 892 54Z" glyph-name="perthousand" horiz-adv-x="1098" unicode="‰" /><glyph d="M-197 0 266 680H341L-123 0Z" glyph-name="fraction" horiz-adv-x="111" unicode="⁄" /><glyph d="M-197 0 266 680H341L-123 0Z" glyph-name="uni2215" horiz-adv-x="111" unicode="∕" /><glyph d="M250 790Q315 790 345.5 751.5Q376 713 365 644L355 577Q344 510 308.5 475Q273 440 216 440Q151 440 120.5 478.5Q90 517 101 586L111 653Q121 720 156.5 755Q192 790 250 790ZM290 577 300 644Q307 686 294 707.5Q281 729 249 729Q219 729 201 710Q183 691 177 653L166 586Q159 544 172 522.5Q185 501 217 501Q247 501 265 520Q283 539 290 577Z" glyph-name="zerosuperior" horiz-adv-x="336" unicode="⁰" /><glyph d="M129 684 107 735L206 785H262L202 445H138L186 712Z" glyph-name="onesuperior" horiz-adv-x="222" unicode="¹" /><glyph d="M134 505 285 505L274 445H58L65 486Q74 540 93.5 567Q113 594 166 619L202 635Q230 648 240 658.5Q250 669 252 683L254 693Q257 711 246 720Q235 729 209 729Q189 729 166.5 724Q144 719 117 709L106 768Q135 779 161.5 784.5Q188 790 213 790Q270 790 297.5 765Q325 740 319 694L317 682Q313 648 292 625.5Q271 603 218 579L183 563Q160 553 149.5 540Q139 527 134 505Z" glyph-name="twosuperior" horiz-adv-x="270" unicode="²" /><glyph d="M286 543 285 533Q276 485 245 462.5Q214 440 156 440Q129 440 105 445.5Q81 451 61 461L81 518Q99 509 118 505Q137 501 158 501Q187 501 202 510.5Q217 520 220 539L222 547Q225 567 212.5 578Q200 589 173 589H130L139 644H183Q209 644 224.5 654.5Q240 665 243 684L244 691Q248 710 236.5 719.5Q225 729 199 729Q181 729 163 725Q145 721 123 712L108 770Q134 780 158 785Q182 790 206 790Q263 790 290 765Q317 740 310 695L309 688Q305 662 290 643.5Q275 625 250 614Q272 603 281 585Q290 567 286 543Z" glyph-name="threesuperior" horiz-adv-x="274" unicode="³" /><glyph d="M310 571 301 515H263L251 445H192L204 515H59L67 560Q120 624 157.5 678.5Q195 733 224 785H292Q262 729 226 677Q190 625 145 571H214L224 627H283L273 571Z" glyph-name="foursuperior" horiz-adv-x="264" unicode="⁴" /><glyph d="M301 557 298 539Q290 491 256.5 465.5Q223 440 167 440Q140 440 115.5 445Q91 450 69 461L89 519Q107 510 125.5 505.5Q144 501 165 501Q195 501 211.5 512Q228 523 233 546L236 561Q240 582 227.5 594Q215 606 188 606Q175 606 161 603.5Q147 601 131 595L102 622L141 785H328L318 726H185L170 658Q177 660 185 661Q193 662 203 662Q257 662 283 634.5Q309 607 301 557Z" glyph-name="fivesuperior" horiz-adv-x="274" unicode="⁵" /><glyph d="M330 559 327 539Q319 492 287 466Q255 440 204 440Q144 440 115.5 478.5Q87 517 99 584L112 652Q125 724 158.5 757Q192 790 254 790Q279 790 301.5 784.5Q324 779 347 768L327 712Q312 720 294 724.5Q276 729 257 729Q222 729 202 710Q182 691 175 652L173 640Q192 652 210 658Q228 664 247 664Q291 664 314 635Q337 606 330 559ZM229 607Q214 607 197.5 600.5Q181 594 163 581Q156 539 167 519Q178 499 207 499Q229 499 243.5 510Q258 521 262 540L265 559Q269 581 259.5 594Q250 607 229 607Z" glyph-name="sixsuperior" horiz-adv-x="304" unicode="⁶" /><glyph d="M321 785 311 729Q262 655 225.5 584Q189 513 165 445H98Q123 516 158.5 586Q194 656 240 724H91L102 785Z" glyph-name="sevensuperior" horiz-adv-x="239" unicode="⁷" /><glyph d="M281 620Q303 605 313 586Q323 567 323 541Q323 495 288.5 467.5Q254 440 195 440Q143 440 115 461Q87 482 87 520Q87 548 104.5 571.5Q122 595 158 615Q140 629 131.5 647Q123 665 123 690Q123 734 155 762Q187 790 241 790Q289 790 316.5 768Q344 746 344 709Q344 683 328.5 661.5Q313 640 281 620ZM186 692Q186 680 194 670Q202 660 218 652L244 640Q262 655 271 669.5Q280 684 280 700Q280 715 269 724Q258 733 238 733Q214 733 200 722Q186 711 186 692ZM151 532Q151 516 163.5 506.5Q176 497 199 497Q227 497 243.5 508Q260 519 260 539Q260 552 251.5 561.5Q243 571 222 581L194 594Q172 578 161.5 563.5Q151 549 151 532Z" glyph-name="eightsuperior" horiz-adv-x="307" unicode="⁸" /><glyph d="M332 645 320 577Q307 506 273.5 473Q240 440 178 440Q152 440 129.5 445Q107 450 84 461L105 518Q121 509 139.5 504.5Q158 500 175 500Q210 500 229.5 519Q249 538 256 577L258 589Q240 577 222 571.5Q204 566 185 566Q140 566 117.5 594.5Q95 623 102 670L105 690Q113 737 145 763.5Q177 790 228 790Q288 790 316 751Q344 712 332 645ZM170 689 167 670Q163 648 173 635.5Q183 623 203 623Q218 623 234.5 629Q251 635 269 648Q277 689 266 709.5Q255 730 225 730Q203 730 188.5 719.5Q174 709 170 689Z" glyph-name="ninesuperior" horiz-adv-x="304" unicode="⁹" /><glyph d="M154 240Q219 240 249.5 201.5Q280 163 269 94L259 27Q248 -40 212.5 -75Q177 -110 120 -110Q55 -110 24.5 -71.5Q-6 -33 5 36L15 103Q25 170 60.5 205Q96 240 154 240ZM194 27 204 94Q211 136 198 157.5Q185 179 153 179Q123 179 105 160Q87 141 81 103L70 36Q63 -6 76 -27.5Q89 -49 121 -49Q151 -49 169 -30Q187 -11 194 27Z" glyph-name="zeroinferior" horiz-adv-x="336" unicode="₀" /><glyph d="M33 134 11 185L110 235H166L106 -105H42L90 162Z" glyph-name="oneinferior" horiz-adv-x="222" unicode="₁" /><glyph d="M38 -45 189 -45L178 -105H-38L-31 -64Q-22 -10 -2.5 17Q17 44 70 69L106 85Q134 98 144 108.5Q154 119 156 133L158 143Q161 161 150 170Q139 179 113 179Q93 179 70.5 174Q48 169 21 159L10 218Q39 229 65.5 234.5Q92 240 117 240Q174 240 201.5 215Q229 190 223 144L221 132Q217 98 196 75.5Q175 53 122 29L87 13Q64 3 53.5 -10Q43 -23 38 -45Z" glyph-name="twoinferior" horiz-adv-x="270" unicode="₂" /><glyph d="M190 -7 189 -17Q180 -65 149 -87.5Q118 -110 60 -110Q33 -110 9 -104.5Q-15 -99 -35 -89L-15 -32Q3 -41 22 -45Q41 -49 62 -49Q91 -49 106 -39.5Q121 -30 124 -11L126 -3Q129 17 116.5 28Q104 39 77 39H34L43 94H87Q113 94 128.5 104.5Q144 115 147 134L148 141Q152 160 140.5 169.5Q129 179 103 179Q85 179 67 175Q49 171 27 162L12 220Q38 230 62 235Q86 240 110 240Q167 240 194 215Q221 190 214 145L213 138Q209 112 194 93.5Q179 75 154 64Q176 53 185 35Q194 17 190 -7Z" glyph-name="threeinferior" horiz-adv-x="274" unicode="₃" /><glyph d="M214 21 205 -35H167L155 -105H96L108 -35H-37L-29 10Q24 74 61.5 128.5Q99 183 128 235H196Q166 179 130 127Q94 75 49 21H118L128 77H187L177 21Z" glyph-name="fourinferior" horiz-adv-x="264" unicode="₄" /><glyph d="M205 7 202 -11Q194 -59 160.5 -84.5Q127 -110 71 -110Q44 -110 19.5 -105Q-5 -100 -27 -89L-7 -31Q11 -40 29.5 -44.5Q48 -49 69 -49Q99 -49 115.5 -38Q132 -27 137 -4L140 11Q144 32 131.5 44Q119 56 92 56Q79 56 65 53.5Q51 51 35 45L6 72L45 235H232L222 176H89L74 108Q81 110 89 111Q97 112 107 112Q161 112 187 84.5Q213 57 205 7Z" glyph-name="fiveinferior" horiz-adv-x="274" unicode="₅" /><glyph d="M234 9 231 -11Q223 -58 191 -84Q159 -110 108 -110Q48 -110 19.5 -71.5Q-9 -33 3 34L16 102Q29 174 62.5 207Q96 240 158 240Q183 240 205.5 234.5Q228 229 251 218L231 162Q216 170 198 174.5Q180 179 161 179Q126 179 106 160Q86 141 79 102L77 90Q96 102 114 108Q132 114 151 114Q195 114 218 85Q241 56 234 9ZM133 57Q118 57 101.5 50.5Q85 44 67 31Q60 -11 71 -31Q82 -51 111 -51Q133 -51 147.5 -40Q162 -29 166 -10L169 9Q173 31 163.5 44Q154 57 133 57Z" glyph-name="sixinferior" horiz-adv-x="304" unicode="₆" /><glyph d="M225 235 215 179Q166 105 129.5 34Q93 -37 69 -105H2Q27 -34 62.5 36Q98 106 144 174H-5L6 235Z" glyph-name="seveninferior" horiz-adv-x="238" unicode="₇" /><glyph d="M185 70Q207 55 217 36Q227 17 227 -9Q227 -55 192.5 -82.5Q158 -110 99 -110Q47 -110 19 -89Q-9 -68 -9 -30Q-9 -2 8.5 21.5Q26 45 62 65Q44 79 35.5 97Q27 115 27 140Q27 184 59 212Q91 240 145 240Q193 240 220.5 218Q248 196 248 159Q248 133 232.5 111.5Q217 90 185 70ZM90 142Q90 130 98 120Q106 110 122 102L148 90Q166 105 175 119.5Q184 134 184 150Q184 165 173 174Q162 183 142 183Q118 183 104 172Q90 161 90 142ZM55 -18Q55 -34 67.5 -43.5Q80 -53 103 -53Q131 -53 147.5 -42Q164 -31 164 -11Q164 2 155.5 11.5Q147 21 126 31L98 44Q76 28 65.5 13.5Q55 -1 55 -18Z" glyph-name="eightinferior" horiz-adv-x="307" unicode="₈" /><glyph d="M236 95 224 27Q211 -44 177.5 -77Q144 -110 82 -110Q56 -110 33.5 -105Q11 -100 -12 -89L9 -32Q25 -41 43.5 -45.5Q62 -50 79 -50Q114 -50 133.5 -31Q153 -12 160 27L162 39Q144 27 126 21.5Q108 16 89 16Q44 16 21.5 44.5Q-1 73 6 120L9 140Q17 187 49 213.5Q81 240 132 240Q192 240 220 201Q248 162 236 95ZM74 139 71 120Q67 98 77 85.5Q87 73 107 73Q122 73 138.5 79Q155 85 173 98Q181 139 170 159.5Q159 180 129 180Q107 180 92.5 169.5Q78 159 74 139Z" glyph-name="nineinferior" horiz-adv-x="304" unicode="₉" /><glyph d="M154 240Q219 240 249.5 201.5Q280 163 269 94L259 27Q248 -40 212.5 -75Q177 -110 120 -110Q55 -110 24.5 -71.5Q-6 -33 5 36L15 103Q25 170 60.5 205Q96 240 154 240ZM194 27 204 94Q211 136 198 157.5Q185 179 153 179Q123 179 105 160Q87 141 81 103L70 36Q63 -6 76 -27.5Q89 -49 121 -49Q151 -49 169 -30Q187 -11 194 27Z" glyph-name="zero.numerator" horiz-adv-x="336" unicode="" /><glyph d="M33 134 11 185L110 235H166L106 -105H42L90 162Z" glyph-name="one.numerator" horiz-adv-x="222" unicode="" /><glyph d="M38 -45 189 -45L178 -105H-38L-31 -64Q-22 -10 -2.5 17Q17 44 70 69L106 85Q134 98 144 108.5Q154 119 156 133L158 143Q161 161 150 170Q139 179 113 179Q93 179 70.5 174Q48 169 21 159L10 218Q39 229 65.5 234.5Q92 240 117 240Q174 240 201.5 215Q229 190 223 144L221 132Q217 98 196 75.5Q175 53 122 29L87 13Q64 3 53.5 -10Q43 -23 38 -45Z" glyph-name="two.numerator" horiz-adv-x="270" unicode="" /><glyph d="M190 -7 189 -17Q180 -65 149 -87.5Q118 -110 60 -110Q33 -110 9 -104.5Q-15 -99 -35 -89L-15 -32Q3 -41 22 -45Q41 -49 62 -49Q91 -49 106 -39.5Q121 -30 124 -11L126 -3Q129 17 116.5 28Q104 39 77 39H34L43 94H87Q113 94 128.5 104.5Q144 115 147 134L148 141Q152 160 140.5 169.5Q129 179 103 179Q85 179 67 175Q49 171 27 162L12 220Q38 230 62 235Q86 240 110 240Q167 240 194 215Q221 190 214 145L213 138Q209 112 194 93.5Q179 75 154 64Q176 53 185 35Q194 17 190 -7Z" glyph-name="three.numerator" horiz-adv-x="274" unicode="" /><glyph d="M214 21 205 -35H167L155 -105H96L108 -35H-37L-29 10Q24 74 61.5 128.5Q99 183 128 235H196Q166 179 130 127Q94 75 49 21H118L128 77H187L177 21Z" glyph-name="four.numerator" horiz-adv-x="265" unicode="" /><glyph d="M205 7 202 -11Q194 -59 160.5 -84.5Q127 -110 71 -110Q44 -110 19.5 -105Q-5 -100 -27 -89L-7 -31Q11 -40 29.5 -44.5Q48 -49 69 -49Q99 -49 115.5 -38Q132 -27 137 -4L140 11Q144 32 131.5 44Q119 56 92 56Q79 56 65 53.5Q51 51 35 45L6 72L45 235H232L222 176H89L74 108Q81 110 89 111Q97 112 107 112Q161 112 187 84.5Q213 57 205 7Z" glyph-name="five.numerator" horiz-adv-x="274" unicode="" /><glyph d="M234 9 231 -11Q223 -58 191 -84Q159 -110 108 -110Q48 -110 19.5 -71.5Q-9 -33 3 34L16 102Q29 174 62.5 207Q96 240 158 240Q183 240 205.5 234.5Q228 229 251 218L231 162Q216 170 198 174.5Q180 179 161 179Q126 179 106 160Q86 141 79 102L77 90Q96 102 114 108Q132 114 151 114Q195 114 218 85Q241 56 234 9ZM133 57Q118 57 101.5 50.5Q85 44 67 31Q60 -11 71 -31Q82 -51 111 -51Q133 -51 147.5 -40Q162 -29 166 -10L169 9Q173 31 163.5 44Q154 57 133 57Z" glyph-name="six.numerator" horiz-adv-x="304" unicode="" /><glyph d="M225 235 215 179Q166 105 129.5 34Q93 -37 69 -105H2Q27 -34 62.5 36Q98 106 144 174H-5L6 235Z" glyph-name="seven.numerator" horiz-adv-x="239" unicode="" /><glyph d="M185 70Q207 55 217 36Q227 17 227 -9Q227 -55 192.5 -82.5Q158 -110 99 -110Q47 -110 19 -89Q-9 -68 -9 -30Q-9 -2 8.5 21.5Q26 45 62 65Q44 79 35.5 97Q27 115 27 140Q27 184 59 212Q91 240 145 240Q193 240 220.5 218Q248 196 248 159Q248 133 232.5 111.5Q217 90 185 70ZM90 142Q90 130 98 120Q106 110 122 102L148 90Q166 105 175 119.5Q184 134 184 150Q184 165 173 174Q162 183 142 183Q118 183 104 172Q90 161 90 142ZM55 -18Q55 -34 67.5 -43.5Q80 -53 103 -53Q131 -53 147.5 -42Q164 -31 164 -11Q164 2 155.5 11.5Q147 21 126 31L98 44Q76 28 65.5 13.5Q55 -1 55 -18Z" glyph-name="eight.numerator" horiz-adv-x="307" unicode="" /><glyph d="M236 95 224 27Q211 -44 177.5 -77Q144 -110 82 -110Q56 -110 33.5 -105Q11 -100 -12 -89L9 -32Q25 -41 43.5 -45.5Q62 -50 79 -50Q114 -50 133.5 -31Q153 -12 160 27L162 39Q144 27 126 21.5Q108 16 89 16Q44 16 21.5 44.5Q-1 73 6 120L9 140Q17 187 49 213.5Q81 240 132 240Q192 240 220 201Q248 162 236 95ZM74 139 71 120Q67 98 77 85.5Q87 73 107 73Q122 73 138.5 79Q155 85 173 98Q181 139 170 159.5Q159 180 129 180Q107 180 92.5 169.5Q78 159 74 139Z" glyph-name="nine.numerator" horiz-adv-x="304" unicode="" /><glyph d="M173 345Q238 345 268.5 306.5Q299 268 288 199L278 132Q267 65 231.5 30Q196 -5 139 -5Q74 -5 43.5 33.5Q13 72 24 141L34 208Q44 275 79.5 310Q115 345 173 345ZM213 132 223 199Q230 241 217 262.5Q204 284 172 284Q142 284 124 265Q106 246 100 208L89 141Q82 99 95 77.5Q108 56 140 56Q170 56 188 75Q206 94 213 132Z" glyph-name="zero.denominator" horiz-adv-x="336" unicode="" /><glyph d="M52 239 30 290L129 340H185L125 0H61L109 267Z" glyph-name="one.denominator" horiz-adv-x="222" unicode="" /><glyph d="M57 60 208 60L197 0H-19L-12 41Q-3 95 16.5 122Q36 149 89 174L125 190Q153 203 163 213.5Q173 224 175 238L177 248Q180 266 169 275Q158 284 132 284Q112 284 89.5 279Q67 274 40 264L29 323Q58 334 84.5 339.5Q111 345 136 345Q193 345 220.5 320Q248 295 242 249L240 237Q236 203 215 180.5Q194 158 141 134L106 118Q83 108 72.5 95Q62 82 57 60Z" glyph-name="two.denominator" horiz-adv-x="270" unicode="" /><glyph d="M209 98 208 88Q199 40 168 17.5Q137 -5 79 -5Q52 -5 28 0.5Q4 6 -16 16L4 73Q22 64 41 60Q60 56 81 56Q110 56 125 65.5Q140 75 143 94L145 102Q148 122 135.5 133Q123 144 96 144H53L62 199H106Q132 199 147.5 209.5Q163 220 166 239L167 246Q171 265 159.5 274.5Q148 284 122 284Q104 284 86 280Q68 276 46 267L31 325Q57 335 81 340Q105 345 129 345Q186 345 213 320Q240 295 233 250L232 243Q228 217 213 198.5Q198 180 173 169Q195 158 204 140Q213 122 209 98Z" glyph-name="three.denominator" horiz-adv-x="274" unicode="" /><glyph d="M233 126 224 70H186L174 0H115L127 70H-18L-10 115Q43 179 80.5 233.5Q118 288 147 340H215Q185 284 149 232Q113 180 68 126H137L147 182H206L196 126Z" glyph-name="four.denominator" horiz-adv-x="265" unicode="" /><glyph d="M224 112 221 94Q213 46 179.5 20.5Q146 -5 90 -5Q63 -5 38.5 0Q14 5 -8 16L12 74Q30 65 48.5 60.5Q67 56 88 56Q118 56 134.5 67Q151 78 156 101L159 116Q163 137 150.5 149Q138 161 111 161Q98 161 84 158.5Q70 156 54 150L25 177L64 340H251L241 281H108L93 213Q100 215 108 216Q116 217 126 217Q180 217 206 189.5Q232 162 224 112Z" glyph-name="five.denominator" horiz-adv-x="274" unicode="" /><glyph d="M253 114 250 94Q242 47 210 21Q178 -5 127 -5Q67 -5 38.5 33.5Q10 72 22 139L35 207Q48 279 81.5 312Q115 345 177 345Q202 345 224.5 339.5Q247 334 270 323L250 267Q235 275 217 279.5Q199 284 180 284Q145 284 125 265Q105 246 98 207L96 195Q115 207 133 213Q151 219 170 219Q214 219 237 190Q260 161 253 114ZM152 162Q137 162 120.5 155.5Q104 149 86 136Q79 94 90 74Q101 54 130 54Q152 54 166.5 65Q181 76 185 95L188 114Q192 136 182.5 149Q173 162 152 162Z" glyph-name="six.denominator" horiz-adv-x="304" unicode="" /><glyph d="M244 340 234 284Q185 210 148.5 139Q112 68 88 0H21Q46 71 81.5 141Q117 211 163 279H14L25 340Z" glyph-name="seven.denominator" horiz-adv-x="239" unicode="" /><glyph d="M204 175Q226 160 236 141Q246 122 246 96Q246 50 211.5 22.5Q177 -5 118 -5Q66 -5 38 16Q10 37 10 75Q10 103 27.5 126.5Q45 150 81 170Q63 184 54.5 202Q46 220 46 245Q46 289 78 317Q110 345 164 345Q212 345 239.5 323Q267 301 267 264Q267 238 251.5 216.5Q236 195 204 175ZM109 247Q109 235 117 225Q125 215 141 207L167 195Q185 210 194 224.5Q203 239 203 255Q203 270 192 279Q181 288 161 288Q137 288 123 277Q109 266 109 247ZM74 87Q74 71 86.5 61.5Q99 52 122 52Q150 52 166.5 63Q183 74 183 94Q183 107 174.5 116.5Q166 126 145 136L117 149Q95 133 84.5 118.5Q74 104 74 87Z" glyph-name="eight.denominator" horiz-adv-x="307" unicode="" /><glyph d="M255 200 243 132Q230 61 196.5 28Q163 -5 101 -5Q75 -5 52.5 0Q30 5 7 16L28 73Q44 64 62.5 59.5Q81 55 98 55Q133 55 152.5 74Q172 93 179 132L181 144Q163 132 145 126.5Q127 121 108 121Q63 121 40.5 149.5Q18 178 25 225L28 245Q36 292 68 318.5Q100 345 151 345Q211 345 239 306Q267 267 255 200ZM93 244 90 225Q86 203 96 190.5Q106 178 126 178Q141 178 157.5 184Q174 190 192 203Q200 244 189 264.5Q178 285 148 285Q126 285 111.5 274.5Q97 264 93 244Z" glyph-name="nine.denominator" horiz-adv-x="304" unicode="" /><glyph d="M111 579 89 630L188 680H244L184 340H120L168 607ZM55 0 518 680H593L129 0ZM451 60 602 60L591 0H375L382 41Q391 95 410.5 122Q430 149 483 174L519 190Q547 203 557 213.5Q567 224 569 238L571 248Q574 266 563 275Q552 284 526 284Q506 284 483.5 279Q461 274 434 264L423 323Q452 334 478.5 339.5Q505 345 530 345Q587 345 614.5 320Q642 295 636 249L634 237Q630 203 609 180.5Q588 158 535 134L500 118Q477 108 466.5 95Q456 82 451 60Z" glyph-name="onehalf" horiz-adv-x="664" unicode="½" /><glyph d="M111 579 89 630L188 680H244L184 340H120L168 607ZM55 0 518 680H593L129 0ZM599 98 598 88Q589 40 558 17.5Q527 -5 469 -5Q442 -5 418 0.5Q394 6 374 16L394 73Q412 64 431 60Q450 56 471 56Q500 56 515 65.5Q530 75 533 94L535 102Q538 122 525.5 133Q513 144 486 144H443L452 199H496Q522 199 537.5 209.5Q553 220 556 239L557 246Q561 265 549.5 274.5Q538 284 512 284Q494 284 476 280Q458 276 436 267L421 325Q447 335 471 340Q495 345 519 345Q576 345 603 320Q630 295 623 250L622 243Q618 217 603 198.5Q588 180 563 169Q585 158 594 140Q603 122 599 98Z" glyph-name="onethird" horiz-adv-x="664" unicode="⅓" /><glyph d="M111 579 89 630L188 680H244L184 340H120L168 607ZM55 0 518 680H593L129 0ZM591 126 582 70H544L532 0H473L485 70H340L348 115Q401 179 438.5 233.5Q476 288 505 340H573Q543 284 507 232Q471 180 426 126H495L505 182H564L554 126Z" glyph-name="onequarter" horiz-adv-x="620" unicode="¼" /><glyph d="M111 579 89 630L188 680H244L184 340H120L168 607ZM55 0 518 680H593L129 0ZM604 112 601 94Q593 46 559.5 20.5Q526 -5 470 -5Q443 -5 418.5 0Q394 5 372 16L392 74Q410 65 428.5 60.5Q447 56 468 56Q498 56 514.5 67Q531 78 536 101L539 116Q543 137 530.5 149Q518 161 491 161Q478 161 464 158.5Q450 156 434 150L405 177L444 340H631L621 281H488L473 213Q480 215 488 216Q496 217 506 217Q560 217 586 189.5Q612 162 604 112Z" glyph-name="onefifth" horiz-adv-x="654" unicode="" /><glyph d="M111 579 89 630L188 680H244L184 340H120L168 607ZM55 0 518 680H593L129 0ZM621 114 618 94Q610 47 578 21Q546 -5 495 -5Q435 -5 406.5 33.5Q378 72 390 139L403 207Q416 279 449.5 312Q483 345 545 345Q570 345 592.5 339.5Q615 334 638 323L618 267Q603 275 585 279.5Q567 284 548 284Q513 284 493 265Q473 246 466 207L464 195Q483 207 501 213Q519 219 538 219Q582 219 605 190Q628 161 621 114ZM520 162Q505 162 488.5 155.5Q472 149 454 136Q447 94 458 74Q469 54 498 54Q520 54 534.5 65Q549 76 553 95L556 114Q560 136 550.5 149Q541 162 520 162Z" glyph-name="onesixth" horiz-adv-x="672" unicode="" /><glyph d="M111 579 89 630L188 680H244L184 340H120L168 607ZM55 0 518 680H593L129 0ZM657 340 647 284Q598 210 561.5 139Q525 68 501 0H434Q459 71 494.5 141Q530 211 576 279H427L438 340Z" glyph-name="oneseventh" horiz-adv-x="652" unicode="" /><glyph d="M111 579 89 630L188 680H244L184 340H120L168 607ZM55 0 518 680H593L129 0ZM573 175Q595 160 605 141Q615 122 615 96Q615 50 580.5 22.5Q546 -5 487 -5Q435 -5 407 16Q379 37 379 75Q379 103 396.5 126.5Q414 150 450 170Q432 184 423.5 202Q415 220 415 245Q415 289 447 317Q479 345 533 345Q581 345 608.5 323Q636 301 636 264Q636 238 620.5 216.5Q605 195 573 175ZM478 247Q478 235 486 225Q494 215 510 207L536 195Q554 210 563 224.5Q572 239 572 255Q572 270 561 279Q550 288 530 288Q506 288 492 277Q478 266 478 247ZM443 87Q443 71 455.5 61.5Q468 52 491 52Q519 52 535.5 63Q552 74 552 94Q552 107 543.5 116.5Q535 126 514 136L486 149Q464 133 453.5 118.5Q443 104 443 87Z" glyph-name="oneeighth" horiz-adv-x="676" unicode="⅛" /><glyph d="M111 579 89 630L188 680H244L184 340H120L168 607ZM55 0 518 680H593L129 0ZM635 200 623 132Q610 61 576.5 28Q543 -5 481 -5Q455 -5 432.5 0Q410 5 387 16L408 73Q424 64 442.5 59.5Q461 55 478 55Q513 55 532.5 74Q552 93 559 132L561 144Q543 132 525 126.5Q507 121 488 121Q443 121 420.5 149.5Q398 178 405 225L408 245Q416 292 448 318.5Q480 345 531 345Q591 345 619 306Q647 267 635 200ZM473 244 470 225Q466 203 476 190.5Q486 178 506 178Q521 178 537.5 184Q554 190 572 203Q580 244 569 264.5Q558 285 528 285Q506 285 491.5 274.5Q477 264 473 244Z" glyph-name="oneninth" horiz-adv-x="684" unicode="" /><glyph d="M116 400 267 400L256 340H40L47 381Q56 435 75.5 462Q95 489 148 514L184 530Q212 543 222 553.5Q232 564 234 578L236 588Q239 606 228 615Q217 624 191 624Q171 624 148.5 619Q126 614 99 604L88 663Q117 674 143.5 679.5Q170 685 195 685Q252 685 279.5 660Q307 635 301 589L299 577Q295 543 274 520.5Q253 498 200 474L165 458Q142 448 131.5 435Q121 422 116 400ZM97 0 560 680H635L171 0ZM641 98 640 88Q631 40 600 17.5Q569 -5 511 -5Q484 -5 460 0.5Q436 6 416 16L436 73Q454 64 473 60Q492 56 513 56Q542 56 557 65.5Q572 75 575 94L577 102Q580 122 567.5 133Q555 144 528 144H485L494 199H538Q564 199 579.5 209.5Q595 220 598 239L599 246Q603 265 591.5 274.5Q580 284 554 284Q536 284 518 280Q500 276 478 267L463 325Q489 335 513 340Q537 345 561 345Q618 345 645 320Q672 295 665 250L664 243Q660 217 645 198.5Q630 180 605 169Q627 158 636 140Q645 122 641 98Z" glyph-name="twothirds" horiz-adv-x="706" unicode="⅔" /><glyph d="M116 400 267 400L256 340H40L47 381Q56 435 75.5 462Q95 489 148 514L184 530Q212 543 222 553.5Q232 564 234 578L236 588Q239 606 228 615Q217 624 191 624Q171 624 148.5 619Q126 614 99 604L88 663Q117 674 143.5 679.5Q170 685 195 685Q252 685 279.5 660Q307 635 301 589L299 577Q295 543 274 520.5Q253 498 200 474L165 458Q142 448 131.5 435Q121 422 116 400ZM97 0 560 680H635L171 0ZM646 112 643 94Q635 46 601.5 20.5Q568 -5 512 -5Q485 -5 460.5 0Q436 5 414 16L434 74Q452 65 470.5 60.5Q489 56 510 56Q540 56 556.5 67Q573 78 578 101L581 116Q585 137 572.5 149Q560 161 533 161Q520 161 506 158.5Q492 156 476 150L447 177L486 340H673L663 281H530L515 213Q522 215 530 216Q538 217 548 217Q602 217 628 189.5Q654 162 646 112Z" glyph-name="twofifths" horiz-adv-x="696" unicode="" /><glyph d="M116 400 267 400L256 340H40L47 381Q56 435 75.5 462Q95 489 148 514L184 530Q212 543 222 553.5Q232 564 234 578L236 588Q239 606 228 615Q217 624 191 624Q171 624 148.5 619Q126 614 99 604L88 663Q117 674 143.5 679.5Q170 685 195 685Q252 685 279.5 660Q307 635 301 589L299 577Q295 543 274 520.5Q253 498 200 474L165 458Q142 448 131.5 435Q121 422 116 400ZM97 0 560 680H635L171 0ZM699 340 689 284Q640 210 603.5 139Q567 68 543 0H476Q501 71 536.5 141Q572 211 618 279H469L480 340Z" glyph-name="twosevenths" horiz-adv-x="694" unicode="" /><glyph d="M116 400 267 400L256 340H40L47 381Q56 435 75.5 462Q95 489 148 514L184 530Q212 543 222 553.5Q232 564 234 578L236 588Q239 606 228 615Q217 624 191 624Q171 624 148.5 619Q126 614 99 604L88 663Q117 674 143.5 679.5Q170 685 195 685Q252 685 279.5 660Q307 635 301 589L299 577Q295 543 274 520.5Q253 498 200 474L165 458Q142 448 131.5 435Q121 422 116 400ZM97 0 560 680H635L171 0ZM677 200 665 132Q652 61 618.5 28Q585 -5 523 -5Q497 -5 474.5 0Q452 5 429 16L450 73Q466 64 484.5 59.5Q503 55 520 55Q555 55 574.5 74Q594 93 601 132L603 144Q585 132 567 126.5Q549 121 530 121Q485 121 462.5 149.5Q440 178 447 225L450 245Q458 292 490 318.5Q522 345 573 345Q633 345 661 306Q689 267 677 200ZM515 244 512 225Q508 203 518 190.5Q528 178 548 178Q563 178 579.5 184Q596 190 614 203Q622 244 611 264.5Q600 285 570 285Q548 285 533.5 274.5Q519 264 515 244Z" glyph-name="twoninths" horiz-adv-x="727" unicode="" /><glyph d="M268 438 267 428Q258 380 227 357.5Q196 335 138 335Q111 335 87 340.5Q63 346 43 356L63 413Q81 404 100 400Q119 396 140 396Q169 396 184 405.5Q199 415 202 434L204 442Q207 462 194.5 473Q182 484 155 484H112L121 539H165Q191 539 206.5 549.5Q222 560 225 579L226 586Q230 605 218.5 614.5Q207 624 181 624Q163 624 145 620Q127 616 105 607L90 665Q116 675 140 680Q164 685 188 685Q245 685 272 660Q299 635 292 590L291 583Q287 557 272 538.5Q257 520 232 509Q254 498 263 480Q272 462 268 438ZM91 0 554 680H629L165 0ZM627 126 618 70H580L568 0H509L521 70H376L384 115Q437 179 474.5 233.5Q512 288 541 340H609Q579 284 543 232Q507 180 462 126H531L541 182H600L590 126Z" glyph-name="threequarters" horiz-adv-x="656" unicode="¾" /><glyph d="M268 438 267 428Q258 380 227 357.5Q196 335 138 335Q111 335 87 340.5Q63 346 43 356L63 413Q81 404 100 400Q119 396 140 396Q169 396 184 405.5Q199 415 202 434L204 442Q207 462 194.5 473Q182 484 155 484H112L121 539H165Q191 539 206.5 549.5Q222 560 225 579L226 586Q230 605 218.5 614.5Q207 624 181 624Q163 624 145 620Q127 616 105 607L90 665Q116 675 140 680Q164 685 188 685Q245 685 272 660Q299 635 292 590L291 583Q287 557 272 538.5Q257 520 232 509Q254 498 263 480Q272 462 268 438ZM91 0 554 680H629L165 0ZM640 112 637 94Q629 46 595.5 20.5Q562 -5 506 -5Q479 -5 454.5 0Q430 5 408 16L428 74Q446 65 464.5 60.5Q483 56 504 56Q534 56 550.5 67Q567 78 572 101L575 116Q579 137 566.5 149Q554 161 527 161Q514 161 500 158.5Q486 156 470 150L441 177L480 340H667L657 281H524L509 213Q516 215 524 216Q532 217 542 217Q596 217 622 189.5Q648 162 640 112Z" glyph-name="threefifths" horiz-adv-x="690" unicode="" /><glyph d="M268 438 267 428Q258 380 227 357.5Q196 335 138 335Q111 335 87 340.5Q63 346 43 356L63 413Q81 404 100 400Q119 396 140 396Q169 396 184 405.5Q199 415 202 434L204 442Q207 462 194.5 473Q182 484 155 484H112L121 539H165Q191 539 206.5 549.5Q222 560 225 579L226 586Q230 605 218.5 614.5Q207 624 181 624Q163 624 145 620Q127 616 105 607L90 665Q116 675 140 680Q164 685 188 685Q245 685 272 660Q299 635 292 590L291 583Q287 557 272 538.5Q257 520 232 509Q254 498 263 480Q272 462 268 438ZM91 0 554 680H629L165 0ZM693 340 683 284Q634 210 597.5 139Q561 68 537 0H470Q495 71 530.5 141Q566 211 612 279H463L474 340Z" glyph-name="threesevenths" horiz-adv-x="688" unicode="" /><glyph d="M268 438 267 428Q258 380 227 357.5Q196 335 138 335Q111 335 87 340.5Q63 346 43 356L63 413Q81 404 100 400Q119 396 140 396Q169 396 184 405.5Q199 415 202 434L204 442Q207 462 194.5 473Q182 484 155 484H112L121 539H165Q191 539 206.5 549.5Q222 560 225 579L226 586Q230 605 218.5 614.5Q207 624 181 624Q163 624 145 620Q127 616 105 607L90 665Q116 675 140 680Q164 685 188 685Q245 685 272 660Q299 635 292 590L291 583Q287 557 272 538.5Q257 520 232 509Q254 498 263 480Q272 462 268 438ZM91 0 554 680H629L165 0ZM609 175Q631 160 641 141Q651 122 651 96Q651 50 616.5 22.5Q582 -5 523 -5Q471 -5 443 16Q415 37 415 75Q415 103 432.5 126.5Q450 150 486 170Q468 184 459.5 202Q451 220 451 245Q451 289 483 317Q515 345 569 345Q617 345 644.5 323Q672 301 672 264Q672 238 656.5 216.5Q641 195 609 175ZM514 247Q514 235 522 225Q530 215 546 207L572 195Q590 210 599 224.5Q608 239 608 255Q608 270 597 279Q586 288 566 288Q542 288 528 277Q514 266 514 247ZM479 87Q479 71 491.5 61.5Q504 52 527 52Q555 52 571.5 63Q588 74 588 94Q588 107 579.5 116.5Q571 126 550 136L522 149Q500 133 489.5 118.5Q479 104 479 87Z" glyph-name="threeeighths" horiz-adv-x="712" unicode="⅜" /><glyph d="M292 466 283 410H245L233 340H174L186 410H41L49 455Q102 519 139.5 573.5Q177 628 206 680H274Q244 624 208 572Q172 520 127 466H196L206 522H265L255 466ZM102 0 565 680H640L176 0ZM651 112 648 94Q640 46 606.5 20.5Q573 -5 517 -5Q490 -5 465.5 0Q441 5 419 16L439 74Q457 65 475.5 60.5Q494 56 515 56Q545 56 561.5 67Q578 78 583 101L586 116Q590 137 577.5 149Q565 161 538 161Q525 161 511 158.5Q497 156 481 150L452 177L491 340H678L668 281H535L520 213Q527 215 535 216Q543 217 553 217Q607 217 633 189.5Q659 162 651 112Z" glyph-name="fourfifths" horiz-adv-x="700" unicode="" /><glyph d="M292 466 283 410H245L233 340H174L186 410H41L49 455Q102 519 139.5 573.5Q177 628 206 680H274Q244 624 208 572Q172 520 127 466H196L206 522H265L255 466ZM102 0 565 680H640L176 0ZM704 340 694 284Q645 210 608.5 139Q572 68 548 0H481Q506 71 541.5 141Q577 211 623 279H474L485 340Z" glyph-name="foursevenths" horiz-adv-x="699" unicode="" /><glyph d="M292 466 283 410H245L233 340H174L186 410H41L49 455Q102 519 139.5 573.5Q177 628 206 680H274Q244 624 208 572Q172 520 127 466H196L206 522H265L255 466ZM102 0 565 680H640L176 0ZM682 200 670 132Q657 61 623.5 28Q590 -5 528 -5Q502 -5 479.5 0Q457 5 434 16L455 73Q471 64 489.5 59.5Q508 55 525 55Q560 55 579.5 74Q599 93 606 132L608 144Q590 132 572 126.5Q554 121 535 121Q490 121 467.5 149.5Q445 178 452 225L455 245Q463 292 495 318.5Q527 345 578 345Q638 345 666 306Q694 267 682 200ZM520 244 517 225Q513 203 523 190.5Q533 178 553 178Q568 178 584.5 184Q601 190 619 203Q627 244 616 264.5Q605 285 575 285Q553 285 538.5 274.5Q524 264 520 244Z" glyph-name="fourninths" horiz-adv-x="731" unicode="" /><glyph d="M283 452 280 434Q272 386 238.5 360.5Q205 335 149 335Q122 335 97.5 340Q73 345 51 356L71 414Q89 405 107.5 400.5Q126 396 147 396Q177 396 193.5 407Q210 418 215 441L218 456Q222 477 209.5 489Q197 501 170 501Q157 501 143 498.5Q129 496 113 490L84 517L123 680H310L300 621H167L152 553Q159 555 167 556Q175 557 185 557Q239 557 265 529.5Q291 502 283 452ZM97 0 560 680H635L171 0ZM663 114 660 94Q652 47 620 21Q588 -5 537 -5Q477 -5 448.5 33.5Q420 72 432 139L445 207Q458 279 491.5 312Q525 345 587 345Q612 345 634.5 339.5Q657 334 680 323L660 267Q645 275 627 279.5Q609 284 590 284Q555 284 535 265Q515 246 508 207L506 195Q525 207 543 213Q561 219 580 219Q624 219 647 190Q670 161 663 114ZM562 162Q547 162 530.5 155.5Q514 149 496 136Q489 94 500 74Q511 54 540 54Q562 54 576.5 65Q591 76 595 95L598 114Q602 136 592.5 149Q583 162 562 162Z" glyph-name="fivesixths" horiz-adv-x="714" unicode="" /><glyph d="M283 452 280 434Q272 386 238.5 360.5Q205 335 149 335Q122 335 97.5 340Q73 345 51 356L71 414Q89 405 107.5 400.5Q126 396 147 396Q177 396 193.5 407Q210 418 215 441L218 456Q222 477 209.5 489Q197 501 170 501Q157 501 143 498.5Q129 496 113 490L84 517L123 680H310L300 621H167L152 553Q159 555 167 556Q175 557 185 557Q239 557 265 529.5Q291 502 283 452ZM97 0 560 680H635L171 0ZM699 340 689 284Q640 210 603.5 139Q567 68 543 0H476Q501 71 536.5 141Q572 211 618 279H469L480 340Z" glyph-name="fivesevenths" horiz-adv-x="694" unicode="" /><glyph d="M283 452 280 434Q272 386 238.5 360.5Q205 335 149 335Q122 335 97.5 340Q73 345 51 356L71 414Q89 405 107.5 400.5Q126 396 147 396Q177 396 193.5 407Q210 418 215 441L218 456Q222 477 209.5 489Q197 501 170 501Q157 501 143 498.5Q129 496 113 490L84 517L123 680H310L300 621H167L152 553Q159 555 167 556Q175 557 185 557Q239 557 265 529.5Q291 502 283 452ZM97 0 560 680H635L171 0ZM615 175Q637 160 647 141Q657 122 657 96Q657 50 622.5 22.5Q588 -5 529 -5Q477 -5 449 16Q421 37 421 75Q421 103 438.5 126.5Q456 150 492 170Q474 184 465.5 202Q457 220 457 245Q457 289 489 317Q521 345 575 345Q623 345 650.5 323Q678 301 678 264Q678 238 662.5 216.5Q647 195 615 175ZM520 247Q520 235 528 225Q536 215 552 207L578 195Q596 210 605 224.5Q614 239 614 255Q614 270 603 279Q592 288 572 288Q548 288 534 277Q520 266 520 247ZM485 87Q485 71 497.5 61.5Q510 52 533 52Q561 52 577.5 63Q594 74 594 94Q594 107 585.5 116.5Q577 126 556 136L528 149Q506 133 495.5 118.5Q485 104 485 87Z" glyph-name="fiveeighths" horiz-adv-x="718" unicode="⅝" /><glyph d="M283 452 280 434Q272 386 238.5 360.5Q205 335 149 335Q122 335 97.5 340Q73 345 51 356L71 414Q89 405 107.5 400.5Q126 396 147 396Q177 396 193.5 407Q210 418 215 441L218 456Q222 477 209.5 489Q197 501 170 501Q157 501 143 498.5Q129 496 113 490L84 517L123 680H310L300 621H167L152 553Q159 555 167 556Q175 557 185 557Q239 557 265 529.5Q291 502 283 452ZM97 0 560 680H635L171 0ZM677 200 665 132Q652 61 618.5 28Q585 -5 523 -5Q497 -5 474.5 0Q452 5 429 16L450 73Q466 64 484.5 59.5Q503 55 520 55Q555 55 574.5 74Q594 93 601 132L603 144Q585 132 567 126.5Q549 121 530 121Q485 121 462.5 149.5Q440 178 447 225L450 245Q458 292 490 318.5Q522 345 573 345Q633 345 661 306Q689 267 677 200ZM515 244 512 225Q508 203 518 190.5Q528 178 548 178Q563 178 579.5 184Q596 190 614 203Q622 244 611 264.5Q600 285 570 285Q548 285 533.5 274.5Q519 264 515 244Z" glyph-name="fiveninths" horiz-adv-x="726" unicode="" /><glyph d="M312 454 309 434Q301 387 269 361Q237 335 186 335Q126 335 97.5 373.5Q69 412 81 479L94 547Q107 619 140.5 652Q174 685 236 685Q261 685 283.5 679.5Q306 674 329 663L309 607Q294 615 276 619.5Q258 624 239 624Q204 624 184 605Q164 586 157 547L155 535Q174 547 192 553Q210 559 229 559Q273 559 296 530Q319 501 312 454ZM211 502Q196 502 179.5 495.5Q163 489 145 476Q138 434 149 414Q160 394 189 394Q211 394 225.5 405Q240 416 244 435L247 454Q251 476 241.5 489Q232 502 211 502ZM121 0 584 680H659L195 0ZM723 340 713 284Q664 210 627.5 139Q591 68 567 0H500Q525 71 560.5 141Q596 211 642 279H493L504 340Z" glyph-name="sixsevenths" horiz-adv-x="718" unicode="" /><glyph d="M303 680 293 624Q244 550 207.5 479Q171 408 147 340H80Q105 411 140.5 481Q176 551 222 619H73L84 680ZM52 0 515 680H590L126 0ZM570 175Q592 160 602 141Q612 122 612 96Q612 50 577.5 22.5Q543 -5 484 -5Q432 -5 404 16Q376 37 376 75Q376 103 393.5 126.5Q411 150 447 170Q429 184 420.5 202Q412 220 412 245Q412 289 444 317Q476 345 530 345Q578 345 605.5 323Q633 301 633 264Q633 238 617.5 216.5Q602 195 570 175ZM475 247Q475 235 483 225Q491 215 507 207L533 195Q551 210 560 224.5Q569 239 569 255Q569 270 558 279Q547 288 527 288Q503 288 489 277Q475 266 475 247ZM440 87Q440 71 452.5 61.5Q465 52 488 52Q516 52 532.5 63Q549 74 549 94Q549 107 540.5 116.5Q532 126 511 136L483 149Q461 133 450.5 118.5Q440 104 440 87Z" glyph-name="seveneighths" horiz-adv-x="673" unicode="⅞" /><glyph d="M303 680 293 624Q244 550 207.5 479Q171 408 147 340H80Q105 411 140.5 481Q176 551 222 619H73L84 680ZM52 0 515 680H590L126 0ZM632 200 620 132Q607 61 573.5 28Q540 -5 478 -5Q452 -5 429.5 0Q407 5 384 16L405 73Q421 64 439.5 59.5Q458 55 475 55Q510 55 529.5 74Q549 93 556 132L558 144Q540 132 522 126.5Q504 121 485 121Q440 121 417.5 149.5Q395 178 402 225L405 245Q413 292 445 318.5Q477 345 528 345Q588 345 616 306Q644 267 632 200ZM470 244 467 225Q463 203 473 190.5Q483 178 503 178Q518 178 534.5 184Q551 190 569 203Q577 244 566 264.5Q555 285 525 285Q503 285 488.5 274.5Q474 264 470 244Z" glyph-name="sevenninths" horiz-adv-x="681" unicode="" /><glyph d="M263 515Q285 500 295 481Q305 462 305 436Q305 390 270.5 362.5Q236 335 177 335Q125 335 97 356Q69 377 69 415Q69 443 86.5 466.5Q104 490 140 510Q122 524 113.5 542Q105 560 105 585Q105 629 137 657Q169 685 223 685Q271 685 298.5 663Q326 641 326 604Q326 578 310.5 556.5Q295 535 263 515ZM168 587Q168 575 176 565Q184 555 200 547L226 535Q244 550 253 564.5Q262 579 262 595Q262 610 251 619Q240 628 220 628Q196 628 182 617Q168 606 168 587ZM133 427Q133 411 145.5 401.5Q158 392 181 392Q209 392 225.5 403Q242 414 242 434Q242 447 233.5 456.5Q225 466 204 476L176 489Q154 473 143.5 458.5Q133 444 133 427ZM122 0 585 680H660L196 0ZM702 200 690 132Q677 61 643.5 28Q610 -5 548 -5Q522 -5 499.5 0Q477 5 454 16L475 73Q491 64 509.5 59.5Q528 55 545 55Q580 55 599.5 74Q619 93 626 132L628 144Q610 132 592 126.5Q574 121 555 121Q510 121 487.5 149.5Q465 178 472 225L475 245Q483 292 515 318.5Q547 345 598 345Q658 345 686 306Q714 267 702 200ZM540 244 537 225Q533 203 543 190.5Q553 178 573 178Q588 178 604.5 184Q621 190 639 203Q647 244 636 264.5Q625 285 595 285Q573 285 558.5 274.5Q544 264 540 244Z" glyph-name="eightninths" horiz-adv-x="752" unicode="" /><glyph d="M516 334 503 262H333L302 87H228L259 262H89L102 334H271L302 509H377L346 334Z" glyph-name="plus" horiz-adv-x="588" unicode="+" /><glyph d="M504 266 90 266L102 338H516Z" glyph-name="minus" horiz-adv-x="588" unicode="−" /><glyph d="M477 153 422 106L298 253L123 101L79 155L253 306L130 452L186 500L309 354L484 505L528 451L354 300Z" glyph-name="multiply" horiz-adv-x="588" unicode="×" /><glyph d="M393 547 377 456H285L301 547ZM504 266 90 266L102 338H516ZM322 145 306 53H214L230 145Z" glyph-name="divide" horiz-adv-x="588" unicode="÷" /><glyph d="M521 366 107 366L120 438H534ZM486 166 72 166L85 238H499Z" glyph-name="equal" horiz-adv-x="588" unicode="=" /><glyph d="M449 376 109 376L122 448H536L493 205H419Z" glyph-name="logicalnot" horiz-adv-x="588" unicode="¬" /><glyph d="M386 208Q355 208 330.5 221.5Q306 235 275 276Q254 304 242 312Q230 320 217 320Q194 320 175 296Q156 272 138 221L75 237Q99 316 133.5 354Q168 392 218 392Q249 392 273 378.5Q297 365 329 324Q350 296 362 288Q374 280 387 280Q410 280 429 303.5Q448 327 468 380L531 364Q506 285 471 246.5Q436 208 386 208Z" glyph-name="asciitilde" horiz-adv-x="588" unicode="~" /><glyph d="M210 296 489 181L475 104L91 272L100 327L543 492L528 409Z" glyph-name="less" horiz-adv-x="588" unicode="&lt;" /><glyph d="M514 324 504 269L61 104L77 188L394 300L116 415L130 492Z" glyph-name="greater" horiz-adv-x="588" unicode="&gt;" /><glyph d="M523 374 510 302H340L310 131H236L266 302H96L109 374H279L309 545H383L353 374ZM457 0 43 0L55 71H469Z" glyph-name="plusminus" horiz-adv-x="588" unicode="±" /><glyph d="M490 266 412 266L351 564L185 266H103L341 680H396Z" glyph-name="asciicircum" horiz-adv-x="588" unicode="^" /><glyph d="M499 238 486 166H247L157 36L105 69L172 166H72L85 238H222L311 366H107L120 438H361L450 567L501 534L435 438H534L521 366H385L297 238Z" glyph-name="notequal" horiz-adv-x="588" unicode="≠" /><glyph d="M404 312Q373 312 349 325.5Q325 339 293 380Q272 408 260 416Q248 424 235 424Q212 424 193 400Q174 376 156 325L93 341Q117 420 152 458Q187 496 237 496Q268 496 292.5 482.5Q317 469 348 428Q369 400 380.5 392Q392 384 405 384Q428 384 447 408Q466 432 486 484L550 468Q525 389 489.5 350.5Q454 312 404 312ZM368 104Q337 104 312.5 117.5Q288 131 257 172Q236 200 224 208Q212 216 199 216Q176 216 157 192Q138 168 119 117L56 133Q80 212 115 250Q150 288 200 288Q231 288 255 274.5Q279 261 311 220Q332 192 344 184Q356 176 369 176Q391 176 410.5 200Q430 224 450 276L513 260Q488 181 452.5 142.5Q417 104 368 104Z" glyph-name="approxequal" horiz-adv-x="588" unicode="≈" /><glyph d="M216 329 494 214L481 137L96 305L106 359L549 524L534 441ZM457 0 43 0L55 71H469Z" glyph-name="lessequal" horiz-adv-x="588" unicode="≤" /><glyph d="M520 356 510 302L67 137L82 220L400 332L122 447L135 524ZM457 0 43 0L55 71H469Z" glyph-name="greaterequal" horiz-adv-x="588" unicode="≥" /><glyph d="M600 513Q671 513 710.5 467Q750 421 750 337Q750 234 695 169Q640 104 548 104Q487 104 444.5 133.5Q402 163 379 221Q339 161 294.5 132.5Q250 104 198 104Q128 104 88.5 150Q49 196 49 280Q49 383 104 448.5Q159 514 251 514Q311 514 353 484Q395 454 419 396Q459 456 503.5 484.5Q548 513 600 513ZM246 427Q193 427 159.5 388Q126 349 126 292Q126 243 148 217Q170 191 212 191Q250 191 283.5 215Q317 239 357 294L349 325Q333 379 308.5 403Q284 427 246 427ZM441 323 450 293Q465 238 489.5 214Q514 190 553 190Q606 190 639 229Q672 268 672 326Q672 375 650 401Q628 427 586 427Q548 427 514 402.5Q480 378 441 323Z" glyph-name="infinity" horiz-adv-x="777" unicode="∞" /><glyph d="M278 0 225 0L117 340L342 680H395L503 340ZM354 575 198 334L267 106L423 347Z" glyph-name="lozenge" horiz-adv-x="588" unicode="◊" /><glyph d="M142 299 41 299L54 371H205L257 120L572 680H657L266 0H211Z" glyph-name="radical" horiz-adv-x="588" unicode="√" /><glyph d="M-44 -148Q-10 -148 10.5 -127Q31 -106 45 -54L214 581Q240 677 278 713.5Q316 750 381 750Q406 750 432.5 744.5Q459 739 481 729L453 660Q436 667 419.5 671Q403 675 387 675Q352 675 331.5 653.5Q311 632 297 581L128 -54Q103 -149 65 -186Q27 -223 -38 -223Q-63 -223 -89.5 -217.5Q-116 -212 -138 -202L-109 -133Q-93 -140 -76.5 -144Q-60 -148 -44 -148Z" glyph-name="integral" horiz-adv-x="343" unicode="∫" /><glyph d="M479 275 469 235Q438 114 374.5 52Q311 -10 216 -10Q115 -10 67.5 58.5Q20 127 45 231L54 267Q74 349 127.5 395.5Q181 442 254 442Q307 442 347 417Q387 392 408 344Q419 447 377.5 535Q336 623 243 690L289 750Q413 663 462.5 535.5Q512 408 479 275ZM135 254 127 218Q111 150 136 107Q161 64 218 64Q279 64 323 112Q367 160 390 253Q371 308 337.5 337Q304 366 261 366Q216 366 181 335.5Q146 305 135 254Z" glyph-name="partialdiff" horiz-adv-x="536" unicode="∂" /><glyph d="M178 598 91 598L105 680H749L735 598H648L517 -143H430L561 598H265L134 -143H47Z" glyph-name="product" horiz-adv-x="703" unicode="∏" /><glyph d="M473 70 502 70L488 -5H457Q393 -5 366 28Q339 61 350 125L403 423H217L143 0H61L135 423H56L69 495H577L564 423H485L432 124Q427 95 436.5 82.5Q446 70 473 70Z" glyph-name="pi" horiz-adv-x="561" unicode="π" /><glyph d="M114 23 104 -125L88 -213H6L132 495H214L158 175Q149 122 162 94.5Q175 67 209 67Q245 67 287 94Q329 121 381 176L438 495H520L456 135Q450 102 458.5 86Q467 70 490 70H504L490 -5H473Q424 -5 398.5 20.5Q373 46 374 93Q325 41 279.5 15.5Q234 -10 190 -10Q165 -10 145.5 -1.5Q126 7 114 23Z" glyph-name="mu" horiz-adv-x="566" unicode="µ" /><glyph d="M-38 -143 -25 -72L303 270L97 609L109 680H571L557 598H206L392 293L382 235L96 -61H458L444 -143Z" glyph-name="summation" horiz-adv-x="525" unicode="∑" /><glyph d="M264 185 231 0H18L32 79H166L177 138Q120 170 96 235.5Q72 301 87 383L95 425Q118 550 195 620Q272 690 389 690Q516 690 577.5 612Q639 534 616 405L609 362Q594 277 550 218.5Q506 160 438 132L429 79H563L549 0H336L369 186Q430 201 469 249.5Q508 298 521 374L529 416Q545 507 508 558Q471 609 388 609Q306 609 252.5 558.5Q199 508 183 416L176 374Q162 298 185.5 248.5Q209 199 264 185Z" glyph-name="Omega" horiz-adv-x="655" unicode="Ω" /><glyph d="M395 680 489 65L477 0H-6L5 65L314 680ZM335 561 234 354L97 76H402L364 354Z" glyph-name="Delta" horiz-adv-x="558" unicode="∆" /><glyph d="M269 86 286 19Q256 5 225.5 -2.5Q195 -10 166 -10Q97 -10 68.5 29Q40 68 53 142L121 531Q135 609 176 649.5Q217 690 283 690Q344 690 378.5 658Q413 626 413 567Q413 490 348.5 405Q284 320 148 214L134 136Q127 99 138 82Q149 65 181 65Q202 65 224.5 70.5Q247 76 269 86ZM282 615Q251 615 231 594Q211 573 204 532L165 312Q246 382 288 444.5Q330 507 330 558Q330 585 317.5 600Q305 615 282 615Z" glyph-name="uni2113" horiz-adv-x="383" unicode="ℓ" /><glyph d="M176 324 325 185L290 139L52 334V379L290 572L325 526L177 391H609V324Z" glyph-name="arrowleft" horiz-adv-x="651" unicode="←" /><glyph d="M549 397 503 362L367 511V78H300V511L162 362L116 397L311 635H356Z" glyph-name="arrowup" horiz-adv-x="651" unicode="↑" /><glyph d="M612 379 612 334L374 141L339 187L488 322H55V389H489L339 528L374 574Z" glyph-name="arrowright" horiz-adv-x="651" unicode="→" /><glyph d="M503 353 549 317L354 79H309L116 317L162 353L297 205V636H364V203Z" glyph-name="arrowdown" horiz-adv-x="651" unicode="↓" /><glyph d="M179 324 329 185L293 139L55 334V379L293 572L329 526L180 391H628L479 529L514 575L752 380V335L514 142L479 188L628 324Z" glyph-name="uni2194" horiz-adv-x="781" unicode="↔" /><glyph d="M507 283 553 247L358 9H313L120 247L166 283L302 134V583L163 433L117 468L312 706H357L550 468L504 433L369 582V134Z" glyph-name="uni2195" horiz-adv-x="651" unicode="↕" /><glyph d="M246 490 552 184L505 137L199 443L207 239L149 231L118 538L150 570L455 538L448 480Z" glyph-name="uni2196" horiz-adv-x="651" unicode="↖" /><glyph d="M514 232 457 239L465 440L160 135L113 183L419 489L215 481L208 538L514 569L546 537Z" glyph-name="uni2197" horiz-adv-x="651" unicode="↗" /><glyph d="M512 482 543 176L511 144L206 176L213 233L415 224L109 530L156 577L462 271L455 475Z" glyph-name="uni2198" horiz-adv-x="651" unicode="↘" /><glyph d="M448 234 455 177L149 146L117 178L149 483L207 475L197 274L503 580L550 532L244 226Z" glyph-name="uni2199" horiz-adv-x="651" unicode="↙" /><glyph d="M785 314 785 305H202Q199 305 198 304Q197 303 197 301V125Q197 119 199 114Q201 109 205 105Q249 59 306 34Q363 9 426 9Q493 9 553 37Q613 65 658 116H710Q659 57 584 23.5Q509 -10 425 -10Q276 -10 170.5 85Q65 180 65 314Q65 448 170.5 543Q276 638 425 638Q574 638 679.5 543Q785 448 785 314ZM653 328 653 506Q653 512 651 517.5Q649 523 644 527Q600 571 543.5 595Q487 619 426 619Q364 619 307 594.5Q250 570 206 524Q201 519 199 514Q197 509 197 502V328Q197 326 198.5 324.5Q200 323 202 323H649Q651 323 652 324.5Q653 326 653 328Z" glyph-name="estimated" horiz-adv-x="813" unicode="℮" /><glyph d="M706 -21 733 -89Q673 -116 605 -130.5Q537 -145 471 -145Q278 -145 164 -28.5Q50 88 50 285Q50 495 175 631.5Q300 768 496 768Q675 768 790.5 653Q906 538 906 362Q906 238 843.5 155.5Q781 73 687 73Q637 73 606.5 94Q576 115 568 156Q529 112 488 90Q447 68 403 68Q334 68 300.5 127Q267 186 282 281L290 336Q305 437 359.5 491Q414 545 502 545Q547 545 593.5 529.5Q640 514 689 483L645 232Q637 186 649 163.5Q661 141 695 141Q750 141 789 204.5Q828 268 828 362Q828 508 734.5 603Q641 698 496 698Q334 698 231 581.5Q128 465 128 285Q128 119 220 22Q312 -75 471 -75Q530 -75 592 -61Q654 -47 706 -21ZM374 336 366 281Q356 214 371 177.5Q386 141 425 141Q458 141 494 168Q530 195 567 248L600 444Q574 458 552 464.5Q530 471 508 471Q452 471 418 437Q384 403 374 336Z" glyph-name="at.case" horiz-adv-x="950" unicode="" /><glyph d="M245 588 261 680H352L336 588ZM202 66Q239 66 280 75.5Q321 85 369 105L388 33Q338 12 290 1Q242 -10 198 -10Q100 -10 52 40.5Q4 91 19 175L22 193Q30 233 49.5 263.5Q69 294 128 345L165 378Q198 407 211.5 427Q225 447 230 478L234 497H318L314 475Q305 426 285.5 396Q266 366 214 321L176 288Q142 260 126.5 236Q111 212 105 181L102 163Q93 117 119.5 91.5Q146 66 202 66Z" glyph-name="questiondown.case" horiz-adv-x="438" unicode="" /><glyph d="M153 588 169 680H261L245 588ZM98 250 150 497H216L180 250L136 0H54Z" glyph-name="exclamdown.case" horiz-adv-x="280" unicode="" /><glyph d="M152 259 152 235Q152 159 179.5 81Q207 3 257 -62L194 -111Q135 -38 102 54.5Q69 147 69 237V264Q69 409 142.5 546Q216 683 353 792L398 729Q273 623 212.5 507.5Q152 392 152 259Z" glyph-name="parenleft.case" horiz-adv-x="315" unicode="" /><glyph d="M195 420 195 444Q195 519 167.5 597.5Q140 676 90 742L152 791Q211 717 244.5 624.5Q278 532 278 442V415Q278 271 205 134Q132 -3 -5 -112L-51 -49Q74 56 134.5 172Q195 288 195 420Z" glyph-name="parenright.case" horiz-adv-x="316" unicode="" /><glyph d="M239 -30 326 -30L313 -102H234Q142 -102 108 -49.5Q74 3 108 91L145 189Q169 250 156.5 277Q144 304 96 304H31L43 376H108Q157 376 179 403.5Q201 431 198 491L196 589Q193 686 236 734Q279 782 369 782H468L456 710H370Q325 710 301.5 683Q278 656 280 608L283 510Q285 438 262.5 394.5Q240 351 193 336Q233 321 240.5 279Q248 237 223 170L185 72Q166 24 180 -3Q194 -30 239 -30Z" glyph-name="braceleft.case" horiz-adv-x="378" unicode="" /><glyph d="M212 189 214 91Q217 -6 174 -54Q131 -102 41 -102H-58L-45 -30H40Q85 -30 108.5 -3Q132 24 130 72L127 170Q125 242 147.5 285Q170 328 217 343Q177 358 169.5 400Q162 442 187 510L225 608Q244 656 230 683Q216 710 171 710H84L97 782H176Q268 782 302 729.5Q336 677 302 589L265 491Q242 429 254 402Q266 375 314 375H379L367 303H302Q253 303 231 276Q209 249 212 189Z" glyph-name="braceright.case" horiz-adv-x="378" unicode="" /><glyph d="M139 -30 294 -30L281 -102H44L200 781H437L424 709H269Z" glyph-name="bracketleft.case" horiz-adv-x="346" unicode="" /><glyph d="M97 781 334 781L179 -102H-58L-45 -30H110L239 709H84Z" glyph-name="bracketright.case" horiz-adv-x="347" unicode="" /><glyph d="M339 287 59 287L72 359H352Z" glyph-name="hyphen.case" horiz-adv-x="392" unicode="" /><glyph d="M539 287 59 287L72 359H552Z" glyph-name="endash.case" horiz-adv-x="592" unicode="" /><glyph d="M739 287 59 287L72 359H752Z" glyph-name="emdash.case" horiz-adv-x="792" unicode="" /><glyph d="M121 433 189 816H271L203 433ZM21 -137 88 246H170L103 -137Z" glyph-name="brokenbar.case" horiz-adv-x="282" unicode="" /><glyph d="M27 -137 195 816H277L109 -137Z" glyph-name="bar.case" horiz-adv-x="295" unicode="" /><glyph d="M135 331 312 188L296 104L49 311L58 364L378 568L362 472ZM425 331 602 188L586 104L339 311L348 364L668 568L652 472Z" glyph-name="guillemotleft.case" horiz-adv-x="667" unicode="" /><glyph d="M358 361 349 308L29 104L45 199L271 340L95 483L111 568ZM648 361 639 308L319 104L335 199L561 340L385 483L401 568Z" glyph-name="guillemotright.case" horiz-adv-x="667" unicode="" /><glyph d="M135 331 312 188L296 104L49 311L58 364L378 568L362 472Z" glyph-name="guilsinglleft.case" horiz-adv-x="377" unicode="" /><glyph d="M358 361 349 308L29 104L45 199L271 340L95 483L111 568Z" glyph-name="guilsinglright.case" horiz-adv-x="377" unicode="" /><glyph d="M135 418 52 418Q75 552 147.5 616Q220 680 348 680H531L638 0H551L527 158H272L267 147Q156 -75 70.5 -149Q-15 -223 -147 -223L-132 -139Q-37 -139 30 -75Q97 -11 178 147L409 602H336Q249 602 201 558Q153 514 135 418ZM471 562 369 354L311 237H516L499 354Z" glyph-name="A.alt" horiz-adv-x="703" unicode="" /><glyph d="M130 418 46 418Q69 552 141.5 616Q214 680 342 680H546Q638 680 684 629.5Q730 579 716 495L712 472Q705 430 681.5 398Q658 366 619 347Q663 326 682 285.5Q701 245 692 193L689 170Q675 85 620.5 42.5Q566 0 472 0H236L342 602H330Q243 602 195 558Q147 514 130 418ZM542 600 429 600L391 385H504Q553 385 583.5 407.5Q614 430 621 471L626 495Q634 545 612 572.5Q590 600 542 600ZM515 305 377 305L337 79H475Q527 79 559 103Q591 127 599 171L603 195Q612 246 588.5 275.5Q565 305 515 305Z" glyph-name="B.alt" horiz-adv-x="760" unicode="" /><glyph d="M130 418 46 418Q69 552 141.5 616Q214 680 342 680H550Q667 680 725 602Q783 524 760 399L737 264Q715 137 642 68.5Q569 0 457 0H236L342 602H330Q243 602 195 558Q147 514 130 418ZM546 598 429 598L337 81H460Q534 81 582.5 128.5Q631 176 647 264L670 399Q688 493 655 545.5Q622 598 546 598Z" glyph-name="D.alt" horiz-adv-x="811" unicode="" /><glyph d="M130 418 46 418Q69 552 141.5 616Q214 680 342 680H726L711 598H429L391 385H644L629 303H377L337 81H630L616 0H236L342 602H330Q243 602 195 558Q147 514 130 418Z" glyph-name="E.alt" horiz-adv-x="705" unicode="" /><glyph d="M130 418 46 418Q69 552 141.5 616Q214 680 342 680H720L705 598H429L388 368H635L620 286H374L323 0H236L342 602H330Q243 602 195 558Q147 514 130 418Z" glyph-name="F.alt" horiz-adv-x="680" unicode="" /><glyph d="M555 356 494 8Q471 -124 407 -173.5Q343 -223 210 -223L224 -143Q319 -143 359 -110Q399 -77 414 8L416 20Q384 10 352.5 4.5Q321 -1 290 -1Q171 -1 116 77.5Q61 156 84 290L105 411Q130 553 201 621.5Q272 690 394 690Q443 690 490 679Q537 668 581 647L550 571Q509 590 470.5 599.5Q432 609 391 609Q311 609 261.5 559Q212 509 195 411L174 290Q155 185 188 131Q221 77 303 77Q335 77 365.5 83.5Q396 90 431 104L461 279H334L349 356Z" glyph-name="G.alt" horiz-adv-x="604" unicode="" /><glyph d="M130 418 46 418Q69 552 141.5 616Q214 680 342 680H443L391 385H688L740 680H827L707 0H620L673 303H376L323 0H236L342 602H330Q243 602 195 558Q147 514 130 418Z" glyph-name="H.alt" horiz-adv-x="857" unicode="" /><glyph d="M130 418 46 418Q69 552 141.5 616Q214 680 342 680H450L370 224Q346 91 282.5 42Q219 -7 86 -7L101 76Q192 76 230 108Q268 140 283 224L349 602H330Q243 602 195 558Q147 514 130 418Z" glyph-name="J.alt" horiz-adv-x="467" unicode="" /><glyph d="M130 418 46 418Q69 552 141.5 616Q214 680 342 680H443L382 334Q486 424 564 509Q642 594 701 680H801Q741 596 677.5 521.5Q614 447 543 378L712 0H614L474 325Q458 310 439 293.5Q420 277 363 229L323 0H236L342 602H330Q243 602 195 558Q147 514 130 418Z" glyph-name="K.alt" horiz-adv-x="769" unicode="" /><glyph d="M130 418 46 418Q69 552 141.5 616Q214 680 342 680H443L337 81H623L609 0H236L342 602H330Q243 602 195 558Q147 514 130 418Z" glyph-name="L.alt" horiz-adv-x="680" unicode="" /><glyph d="M342 680 454 680L572 174L872 680H972L852 0H770L821 291L875 547L597 80H515L408 557L370 291L319 0H236L342 602H330Q243 602 195 558Q147 514 130 418H46Q69 552 141.5 616Q214 680 342 680Z" glyph-name="M.alt" horiz-adv-x="1003" unicode="" /><glyph d="M130 418 46 418Q69 552 141.5 616Q214 680 342 680H447Q523 514 572.5 387.5Q622 261 663 128L701 400L751 680H833L713 0H623Q574 156 523.5 292Q473 428 414 562L368 278L319 0H236L342 602H330Q243 602 195 558Q147 514 130 418Z" glyph-name="N.alt" horiz-adv-x="864" unicode="" /><glyph d="M130 418 46 418Q69 552 141.5 616Q214 680 342 680H557Q654 680 702.5 625Q751 570 735 480L725 426Q710 339 653.5 293.5Q597 248 503 248H367L323 0H236L342 602H330Q243 602 195 558Q147 514 130 418ZM553 598 429 598L381 329H506Q559 329 593 355Q627 381 635 428L645 481Q656 536 631.5 567Q607 598 553 598Z" glyph-name="P.alt" horiz-adv-x="739" unicode="" /><glyph d="M511 266 370 266L323 0H236L342 602H330Q243 602 195 558Q147 514 130 418H46Q69 552 141.5 616Q214 680 342 680H558Q653 680 702 625.5Q751 571 736 483L729 440Q719 381 684.5 339.5Q650 298 596 280Q626 213 650 142.5Q674 72 692 0H598Q583 64 561.5 130.5Q540 197 511 266ZM555 600 429 600L384 346H510Q562 346 596.5 371.5Q631 397 639 442L647 485Q656 539 631.5 569.5Q607 600 555 600Z" glyph-name="R.alt" horiz-adv-x="775" unicode="" /><glyph d="M130 418 46 418Q69 552 141.5 616Q214 680 342 680H681L666 598H468L363 0H276L381 598H330Q243 598 195 554.5Q147 511 130 418Z" glyph-name="T.alt" horiz-adv-x="618" unicode="" /><glyph d="M130 418 46 418Q69 552 141.5 616Q214 680 342 680H444L367 244Q353 161 382.5 115.5Q412 70 482 70Q551 70 593.5 113.5Q636 157 651 244L728 680H818L741 244Q718 117 653 53.5Q588 -10 480 -10Q367 -10 312 60Q257 130 277 244L340 602H330Q243 602 195 558Q147 514 130 418Z" glyph-name="U.alt" horiz-adv-x="834" unicode="" /><glyph d="M130 418 46 418Q69 552 141.5 616Q214 680 342 680H409L455 335L481 117L585 336L680 532Q785 748 873 825.5Q961 903 1097 903L1082 819Q986 819 917 754Q848 689 770 532L507 0H418L331 602H330Q243 602 195 558Q147 514 130 418Z" glyph-name="V.alt" horiz-adv-x="792" unicode="" /><glyph d="M766 0 708 553L455 0H365L339 602H330Q243 602 195 558Q147 514 130 418H46Q69 551 140.5 615.5Q212 680 336 680H425L433 392L434 124L688 680H770L827 125L925 392L970 508Q1007 605 1043 672.5Q1079 740 1117 786Q1170 848 1235 875.5Q1300 903 1396 903L1381 819Q1309 819 1260.5 796Q1212 773 1170 721Q1141 685 1112.5 632Q1084 579 1056 508L855 0Z" glyph-name="W.alt" horiz-adv-x="1087" unicode="" /><glyph d="M130 418 46 418Q70 556 135.5 618Q201 680 322 680H366L472 420L663 680H761L507 341L645 0H554L443 273L242 0H145L408 353L307 602Q229 601 188.5 560Q148 519 130 418Z" glyph-name="X.alt" horiz-adv-x="710" unicode="" /><glyph d="M130 418 46 418Q70 556 135.5 618Q201 680 322 680H386L490 358L704 680H800L520 271L472 0H385L433 271L322 602H310Q230 602 189 560.5Q148 519 130 418Z" glyph-name="Y.alt" horiz-adv-x="734" unicode="" /><glyph d="M135 418 52 418Q75 552 147.5 616Q220 680 348 680H531L638 0H551L527 158H272L267 147Q156 -75 70.5 -149Q-15 -223 -147 -223L-132 -139Q-37 -139 30 -75Q97 -11 178 147L409 602H336Q249 602 201 558Q153 514 135 418ZM471 562 369 354L311 237H516L499 354ZM661 894 541 764H465L584 930Z" glyph-name="Aacute.alt" horiz-adv-x="703" unicode="" /><glyph d="M135 418 52 418Q75 552 147.5 616Q220 680 348 680H531L638 0H551L527 158H272L267 147Q156 -75 70.5 -149Q-15 -223 -147 -223L-132 -139Q-37 -139 30 -75Q97 -11 178 147L409 602H336Q249 602 201 558Q153 514 135 418ZM471 562 369 354L311 237H516L499 354ZM637 764 573 764L523 859L438 764H369L490 925H573Z" glyph-name="Acircumflex.alt" horiz-adv-x="703" unicode="" /><glyph d="M135 418 52 418Q75 552 147.5 616Q220 680 348 680H531L638 0H551L527 158H272L267 147Q156 -75 70.5 -149Q-15 -223 -147 -223L-132 -139Q-37 -139 30 -75Q97 -11 178 147L409 602H336Q249 602 201 558Q153 514 135 418ZM471 562 369 354L311 237H516L499 354ZM473 890 458 804H372L387 890ZM664 890 649 804H563L578 890Z" glyph-name="Adieresis.alt" horiz-adv-x="703" unicode="" /><glyph d="M135 418 52 418Q75 552 147.5 616Q220 680 348 680H531L638 0H551L527 158H272L267 147Q156 -75 70.5 -149Q-15 -223 -147 -223L-132 -139Q-37 -139 30 -75Q97 -11 178 147L409 602H336Q249 602 201 558Q153 514 135 418ZM471 562 369 354L311 237H516L499 354ZM536 764 469 764L394 894L475 930Z" glyph-name="Agrave.alt" horiz-adv-x="703" unicode="" /><glyph d="M160 158 155 147Q43 -76 -42 -149.5Q-127 -223 -259 -223L-244 -139Q-148 -139 -81 -75Q-14 -11 66 147L317 639Q292 654 281 679.5Q270 705 275 737L277 752Q285 798 318 825.5Q351 853 400 853Q453 853 482 821.5Q511 790 503 741L500 726Q495 693 475.5 669Q456 645 426 634L527 0H440L416 158ZM442 732 444 747Q448 769 435 783.5Q422 798 397 798Q373 798 356.5 784Q340 770 336 746L333 732Q329 708 342 694Q355 680 380 680Q404 680 421 694Q438 708 442 732ZM359 562 258 354L200 237H405L387 354Z" glyph-name="Aring.alt" horiz-adv-x="592" unicode="" /><glyph d="M135 418 52 418Q75 552 147.5 616Q220 680 348 680H531L638 0H551L527 158H272L267 147Q156 -75 70.5 -149Q-15 -223 -147 -223L-132 -139Q-37 -139 30 -75Q97 -11 178 147L409 602H336Q249 602 201 558Q153 514 135 418ZM471 562 369 354L311 237H516L499 354ZM574 773Q551 773 533 783.5Q515 794 495 826Q483 844 476 849.5Q469 855 462 855Q449 855 439.5 838Q430 821 423 785H360Q373 855 397.5 889Q422 923 462 923Q486 923 503.5 912.5Q521 902 542 870Q554 852 560.5 846.5Q567 841 574 841Q587 841 596 857.5Q605 874 612 910H675Q663 840 638.5 806.5Q614 773 574 773Z" glyph-name="Atilde.alt" horiz-adv-x="703" unicode="" /><glyph d="M135 418 52 418Q75 552 147.5 616Q220 680 348 680H531L638 0H551L527 158H272L267 147Q156 -75 70.5 -149Q-15 -223 -147 -223L-132 -139Q-37 -139 30 -75Q97 -11 178 147L409 602H336Q249 602 201 558Q153 514 135 418ZM471 562 369 354L311 237H516L499 354ZM513 833Q545 833 564 853Q583 873 593 916H661Q644 842 607 806Q570 770 510 770Q447 770 419 807Q391 844 399 916H462Q457 873 469.5 853Q482 833 513 833Z" glyph-name="Abreve.alt" horiz-adv-x="703" unicode="" /><glyph d="M135 418 52 418Q75 552 147.5 616Q220 680 348 680H531L638 0H551L527 158H272L267 147Q156 -75 70.5 -149Q-15 -223 -147 -223L-132 -139Q-37 -139 30 -75Q97 -11 178 147L409 602H336Q249 602 201 558Q153 514 135 418ZM471 562 369 354L311 237H516L499 354ZM377 857 662 857L651 794H365Z" glyph-name="Amacron.alt" horiz-adv-x="703" unicode="" /><glyph d="M135 418 52 418Q75 552 147.5 616Q220 680 348 680H531L638 0Q568 -47 539 -76Q510 -105 510 -128Q510 -141 518.5 -148Q527 -155 543 -155Q555 -155 568.5 -152Q582 -149 597 -143L608 -206Q586 -215 566 -219Q546 -223 526 -223Q481 -223 456.5 -203Q432 -183 432 -146Q432 -109 460 -73Q488 -37 550 6L528 158H272L267 147Q156 -75 70.5 -149Q-15 -223 -147 -223L-132 -139Q-37 -139 30 -75Q97 -11 178 147L409 602H336Q249 602 201 558Q153 514 135 418ZM471 562 369 354L311 237H516L499 354Z" glyph-name="Aogonek.alt" horiz-adv-x="703" unicode="" /><glyph d="M130 418 46 418Q69 552 141.5 616Q214 680 342 680H550Q667 680 725 602Q783 524 760 399L737 264Q715 137 642 68.5Q569 0 457 0H236L342 602H330Q243 602 195 558Q147 514 130 418ZM546 598 429 598L337 81H460Q534 81 582.5 128.5Q631 176 647 264L670 399Q688 493 655 545.5Q622 598 546 598ZM667 925 737 925L615 764H533L468 925H532L583 830Z" glyph-name="Dcaron.alt" horiz-adv-x="811" unicode="" /><glyph d="M130 418 46 418Q69 552 141.5 616Q214 680 342 680H726L711 598H429L391 385H644L629 303H377L337 81H630L616 0H236L342 602H330Q243 602 195 558Q147 514 130 418ZM711 894 591 764H515L634 930Z" glyph-name="Eacute.alt" horiz-adv-x="705" unicode="" /><glyph d="M130 418 46 418Q69 552 141.5 616Q214 680 342 680H726L711 598H429L391 385H644L629 303H377L337 81H630L616 0H236L342 602H330Q243 602 195 558Q147 514 130 418ZM686 764 622 764L572 859L487 764H418L539 925H622Z" glyph-name="Ecircumflex.alt" horiz-adv-x="705" unicode="" /><glyph d="M130 418 46 418Q69 552 141.5 616Q214 680 342 680H726L711 598H429L391 385H644L629 303H377L337 81H630L616 0H236L342 602H330Q243 602 195 558Q147 514 130 418ZM523 890 508 804H422L437 890ZM714 890 699 804H613L628 890Z" glyph-name="Edieresis.alt" horiz-adv-x="705" unicode="" /><glyph d="M130 418 46 418Q69 552 141.5 616Q214 680 342 680H726L711 598H429L391 385H644L629 303H377L337 81H630L616 0H236L342 602H330Q243 602 195 558Q147 514 130 418ZM586 764 519 764L444 894L525 930Z" glyph-name="Egrave.alt" horiz-adv-x="705" unicode="" /><glyph d="M130 418 46 418Q69 552 141.5 616Q214 680 342 680H726L711 598H429L391 385H644L629 303H377L337 81H630L616 0H236L342 602H330Q243 602 195 558Q147 514 130 418ZM563 833Q595 833 614 853Q633 873 643 916H711Q694 842 657 806Q620 770 560 770Q497 770 469 807Q441 844 449 916H512Q507 873 519.5 853Q532 833 563 833Z" glyph-name="Ebreve.alt" horiz-adv-x="705" unicode="" /><glyph d="M130 418 46 418Q69 552 141.5 616Q214 680 342 680H726L711 598H429L391 385H644L629 303H377L337 81H630L616 0H236L342 602H330Q243 602 195 558Q147 514 130 418ZM645 925 715 925L593 764H511L446 925H510L561 830Z" glyph-name="Ecaron.alt" horiz-adv-x="705" unicode="" /><glyph d="M130 418 46 418Q69 552 141.5 616Q214 680 342 680H726L711 598H429L391 385H644L629 303H377L337 81H630L616 0H236L342 602H330Q243 602 195 558Q147 514 130 418ZM621 893 606 801H514L529 893Z" glyph-name="Edotaccent.alt" horiz-adv-x="705" unicode="" /><glyph d="M130 418 46 418Q69 552 141.5 616Q214 680 342 680H726L711 598H429L391 385H644L629 303H377L337 81H630L616 0H236L342 602H330Q243 602 195 558Q147 514 130 418ZM427 857 712 857L701 794H415Z" glyph-name="Emacron.alt" horiz-adv-x="705" unicode="" /><glyph d="M130 418 46 418Q69 552 141.5 616Q214 680 342 680H726L711 598H429L391 385H644L629 303H377L337 81H630L616 0Q546 -47 517 -76Q488 -105 488 -128Q488 -141 496.5 -148Q505 -155 521 -155Q533 -155 546.5 -152Q560 -149 576 -143L587 -206Q564 -215 543.5 -219Q523 -223 504 -223Q459 -223 434.5 -203Q410 -183 410 -146Q410 -111 437 -76.5Q464 -42 524 0H236L342 602H330Q243 602 195 558Q147 514 130 418Z" glyph-name="Eogonek.alt" horiz-adv-x="705" unicode="" /><glyph d="M555 356 494 8Q471 -124 407 -173.5Q343 -223 210 -223L224 -143Q319 -143 359 -110Q399 -77 414 8L416 20Q384 10 352.5 4.5Q321 -1 290 -1Q171 -1 116 77.5Q61 156 84 290L105 411Q130 553 201 621.5Q272 690 394 690Q443 690 490 679Q537 668 581 647L550 571Q509 590 470.5 599.5Q432 609 391 609Q311 609 261.5 559Q212 509 195 411L174 290Q155 185 188 131Q221 77 303 77Q335 77 365.5 83.5Q396 90 431 104L461 279H334L349 356ZM427 833Q459 833 478 853Q497 873 507 916H575Q558 842 521 806Q484 770 424 770Q361 770 333 807Q305 844 313 916H376Q371 873 383.5 853Q396 833 427 833Z" glyph-name="Gbreve.alt" horiz-adv-x="604" unicode="" /><glyph d="M555 356 494 8Q471 -124 407 -173.5Q343 -223 210 -223L224 -143Q319 -143 359 -110Q399 -77 414 8L416 20Q384 10 352.5 4.5Q321 -1 290 -1Q171 -1 116 77.5Q61 156 84 290L105 411Q130 553 201 621.5Q272 690 394 690Q443 690 490 679Q537 668 581 647L550 571Q509 590 470.5 599.5Q432 609 391 609Q311 609 261.5 559Q212 509 195 411L174 290Q155 185 188 131Q221 77 303 77Q335 77 365.5 83.5Q396 90 431 104L461 279H334L349 356ZM550 764 486 764L436 859L351 764H282L403 925H486Z" glyph-name="Gcircumflex.alt" horiz-adv-x="604" unicode="" /><glyph d="M555 356 494 8Q471 -124 407 -173.5Q343 -223 210 -223L224 -143Q319 -143 359 -110Q399 -77 414 8L416 20Q384 10 352.5 4.5Q321 -1 290 -1Q171 -1 116 77.5Q61 156 84 290L105 411Q130 553 201 621.5Q272 690 394 690Q443 690 490 679Q537 668 581 647L550 571Q509 590 470.5 599.5Q432 609 391 609Q311 609 261.5 559Q212 509 195 411L174 290Q155 185 188 131Q221 77 303 77Q335 77 365.5 83.5Q396 90 431 104L461 279H334L349 356ZM484 893 469 801H377L392 893Z" glyph-name="Gdotaccent.alt" horiz-adv-x="604" unicode="" /><glyph d="M130 418 46 418Q69 552 141.5 616Q214 680 342 680H443L391 385H688L740 680H827L707 0H620L673 303H376L323 0H236L342 602H330Q243 602 195 558Q147 514 130 418ZM737 764 673 764L623 859L538 764H469L590 925H673Z" glyph-name="Hcircumflex.alt" horiz-adv-x="857" unicode="" /><glyph d="M130 418 46 418Q69 552 141.5 616Q214 680 342 680H450L370 224Q346 91 282.5 42Q219 -7 86 -7L101 76Q192 76 230 108Q268 140 283 224L349 602H330Q243 602 195 558Q147 514 130 418ZM552 764 488 764L438 859L353 764H284L405 925H488Z" glyph-name="Jcircumflex.alt" horiz-adv-x="467" unicode="" /><glyph d="M130 418 46 418Q69 552 141.5 616Q214 680 342 680H443L382 334Q486 424 564 509Q642 594 701 680H801Q741 596 677.5 521.5Q614 447 543 378L712 0H614L474 325Q458 310 439 293.5Q420 277 363 229L323 0H236L342 602H330Q243 602 195 558Q147 514 130 418ZM488 -77 387 -248L335 -234L395 -77Z" glyph-name="Kcommaaccent.alt" horiz-adv-x="769" unicode="" /><glyph d="M130 418 46 418Q69 552 141.5 616Q214 680 342 680H443L337 81H623L609 0H236L342 602H330Q243 602 195 558Q147 514 130 418ZM574 894 454 764H378L497 930Z" glyph-name="Lacute.alt" horiz-adv-x="680" unicode="" /><glyph d="M130 418 46 418Q69 552 141.5 616Q214 680 342 680H443L337 81H623L609 0H236L342 602H330Q243 602 195 558Q147 514 130 418ZM633 680 570 486H515L550 680Z" glyph-name="Lcaron.alt" horiz-adv-x="680" unicode="" /><glyph d="M130 418 46 418Q69 552 141.5 616Q214 680 342 680H443L337 81H623L609 0H236L342 602H330Q243 602 195 558Q147 514 130 418ZM456 -77 355 -248L303 -234L363 -77Z" glyph-name="Lcommaaccent.alt" horiz-adv-x="680" unicode="" /><glyph d="M130 418 46 418Q69 552 141.5 616Q214 680 342 680H447Q523 514 572.5 387.5Q622 261 663 128L701 400L751 680H833L713 0H623Q574 156 523.5 292Q473 428 414 562L368 278L319 0H236L342 602H330Q243 602 195 558Q147 514 130 418ZM679 773Q656 773 638 783.5Q620 794 600 826Q588 844 581 849.5Q574 855 567 855Q554 855 544.5 838Q535 821 528 785H465Q478 855 502.5 889Q527 923 567 923Q591 923 608.5 912.5Q626 902 647 870Q659 852 665.5 846.5Q672 841 679 841Q692 841 701 857.5Q710 874 717 910H780Q768 840 743.5 806.5Q719 773 679 773Z" glyph-name="Ntilde.alt" horiz-adv-x="864" unicode="" /><glyph d="M130 418 46 418Q69 552 141.5 616Q214 680 342 680H447Q523 514 572.5 387.5Q622 261 663 128L701 400L751 680H833L713 0H623Q574 156 523.5 292Q473 428 414 562L368 278L319 0H236L342 602H330Q243 602 195 558Q147 514 130 418ZM766 894 646 764H570L689 930Z" glyph-name="Nacute.alt" horiz-adv-x="864" unicode="" /><glyph d="M130 418 46 418Q69 552 141.5 616Q214 680 342 680H447Q523 514 572.5 387.5Q622 261 663 128L701 400L751 680H833L713 0H623Q574 156 523.5 292Q473 428 414 562L368 278L319 0H236L342 602H330Q243 602 195 558Q147 514 130 418ZM700 925 770 925L648 764H566L501 925H565L616 830Z" glyph-name="Ncaron.alt" horiz-adv-x="864" unicode="" /><glyph d="M130 418 46 418Q69 552 141.5 616Q214 680 342 680H447Q523 514 572.5 387.5Q622 261 663 128L701 400L751 680H833L713 0H623Q574 156 523.5 292Q473 428 414 562L368 278L319 0H236L342 602H330Q243 602 195 558Q147 514 130 418ZM507 -77 406 -248L354 -234L414 -77Z" glyph-name="Ncommaaccent.alt" horiz-adv-x="864" unicode="" /><glyph d="M130 418 46 418Q69 552 141.5 616Q214 680 342 680H447Q529 503 577.5 382Q626 261 665 139L701 400L751 680H833L715 8Q691 -125 627.5 -174Q564 -223 431 -223L446 -139Q534 -139 572.5 -108.5Q611 -78 627 1Q579 153 530 282.5Q481 412 414 561L368 278L319 0H236L342 602H330Q243 602 195 558Q147 514 130 418Z" glyph-name="Eng.alt" horiz-adv-x="864" unicode="" /><glyph d="M511 266 370 266L323 0H236L342 602H330Q243 602 195 558Q147 514 130 418H46Q69 552 141.5 616Q214 680 342 680H558Q653 680 702 625.5Q751 571 736 483L729 440Q719 381 684.5 339.5Q650 298 596 280Q626 213 650 142.5Q674 72 692 0H598Q583 64 561.5 130.5Q540 197 511 266ZM555 600 429 600L384 346H510Q562 346 596.5 371.5Q631 397 639 442L647 485Q656 539 631.5 569.5Q607 600 555 600ZM721 894 601 764H525L644 930Z" glyph-name="Racute.alt" horiz-adv-x="775" unicode="" /><glyph d="M511 266 370 266L323 0H236L342 602H330Q243 602 195 558Q147 514 130 418H46Q69 552 141.5 616Q214 680 342 680H558Q653 680 702 625.5Q751 571 736 483L729 440Q719 381 684.5 339.5Q650 298 596 280Q626 213 650 142.5Q674 72 692 0H598Q583 64 561.5 130.5Q540 197 511 266ZM555 600 429 600L384 346H510Q562 346 596.5 371.5Q631 397 639 442L647 485Q656 539 631.5 569.5Q607 600 555 600ZM655 925 725 925L603 764H521L456 925H520L571 830Z" glyph-name="Rcaron.alt" horiz-adv-x="775" unicode="" /><glyph d="M511 266 370 266L323 0H236L342 602H330Q243 602 195 558Q147 514 130 418H46Q69 552 141.5 616Q214 680 342 680H558Q653 680 702 625.5Q751 571 736 483L729 440Q719 381 684.5 339.5Q650 298 596 280Q626 213 650 142.5Q674 72 692 0H598Q583 64 561.5 130.5Q540 197 511 266ZM555 600 429 600L384 346H510Q562 346 596.5 371.5Q631 397 639 442L647 485Q656 539 631.5 569.5Q607 600 555 600ZM488 -77 387 -248L335 -234L395 -77Z" glyph-name="Rcommaaccent.alt" horiz-adv-x="775" unicode="" /><glyph d="M557 369 543 290H414L363 0H276L327 290H197L211 369H341L381 598H330Q243 598 195 554.5Q147 511 130 418H46Q69 552 141.5 616Q214 680 342 680H681L666 598H468L428 369Z" glyph-name="Tbar.alt" horiz-adv-x="618" unicode="" /><glyph d="M130 418 46 418Q69 552 141.5 616Q214 680 342 680H681L666 598H468L363 0H276L381 598H330Q243 598 195 554.5Q147 511 130 418ZM544 925 614 925L492 764H410L345 925H409L460 830Z" glyph-name="Tcaron.alt" horiz-adv-x="618" unicode="" /><glyph d="M130 418 46 418Q69 552 141.5 616Q214 680 342 680H681L666 598H468L363 0H276L381 598H330Q243 598 195 554.5Q147 511 130 418ZM352 -77 251 -248L199 -234L259 -77Z" glyph-name="uni0162.alt" horiz-adv-x="618" unicode="" /><glyph d="M130 418 46 418Q69 552 141.5 616Q214 680 342 680H681L666 598H468L363 0H276L381 598H330Q243 598 195 554.5Q147 511 130 418ZM352 -77 251 -248L199 -234L259 -77Z" glyph-name="uni021A.alt" horiz-adv-x="618" unicode="" /><glyph d="M130 418 46 418Q69 552 141.5 616Q214 680 342 680H444L367 244Q353 161 382.5 115.5Q412 70 482 70Q551 70 593.5 113.5Q636 157 651 244L728 680H818L741 244Q718 117 653 53.5Q588 -10 480 -10Q367 -10 312 60Q257 130 277 244L340 602H330Q243 602 195 558Q147 514 130 418ZM756 894 636 764H560L679 930Z" glyph-name="Uacute.alt" horiz-adv-x="834" unicode="" /><glyph d="M130 418 46 418Q69 552 141.5 616Q214 680 342 680H444L367 244Q353 161 382.5 115.5Q412 70 482 70Q551 70 593.5 113.5Q636 157 651 244L728 680H818L741 244Q718 117 653 53.5Q588 -10 480 -10Q367 -10 312 60Q257 130 277 244L340 602H330Q243 602 195 558Q147 514 130 418ZM732 764 668 764L618 859L533 764H464L585 925H668Z" glyph-name="Ucircumflex.alt" horiz-adv-x="834" unicode="" /><glyph d="M130 418 46 418Q69 552 141.5 616Q214 680 342 680H444L367 244Q353 161 382.5 115.5Q412 70 482 70Q551 70 593.5 113.5Q636 157 651 244L728 680H818L741 244Q718 117 653 53.5Q588 -10 480 -10Q367 -10 312 60Q257 130 277 244L340 602H330Q243 602 195 558Q147 514 130 418ZM568 890 553 804H467L482 890ZM759 890 744 804H658L673 890Z" glyph-name="Udieresis.alt" horiz-adv-x="834" unicode="" /><glyph d="M130 418 46 418Q69 552 141.5 616Q214 680 342 680H444L367 244Q353 161 382.5 115.5Q412 70 482 70Q551 70 593.5 113.5Q636 157 651 244L728 680H818L741 244Q718 117 653 53.5Q588 -10 480 -10Q367 -10 312 60Q257 130 277 244L340 602H330Q243 602 195 558Q147 514 130 418ZM631 764 564 764L489 894L570 930Z" glyph-name="Ugrave.alt" horiz-adv-x="834" unicode="" /><glyph d="M130 418 46 418Q69 552 141.5 616Q214 680 342 680H444L367 244Q353 161 382.5 115.5Q412 70 482 70Q551 70 593.5 113.5Q636 157 651 244L728 680H818L741 244Q718 117 653 53.5Q588 -10 480 -10Q367 -10 312 60Q257 130 277 244L340 602H330Q243 602 195 558Q147 514 130 418ZM608 833Q640 833 659 853Q678 873 688 916H756Q739 842 702 806Q665 770 605 770Q542 770 514 807Q486 844 494 916H557Q552 873 564.5 853Q577 833 608 833Z" glyph-name="Ubreve.alt" horiz-adv-x="834" unicode="" /><glyph d="M130 418 46 418Q69 552 141.5 616Q214 680 342 680H444L367 244Q353 161 382.5 115.5Q412 70 482 70Q551 70 593.5 113.5Q636 157 651 244L728 680H818L741 244Q718 117 653 53.5Q588 -10 480 -10Q367 -10 312 60Q257 130 277 244L340 602H330Q243 602 195 558Q147 514 130 418ZM670 894 565 764H493L604 930ZM808 894 703 764H631L742 930Z" glyph-name="Uhungarumlaut.alt" horiz-adv-x="834" unicode="" /><glyph d="M130 418 46 418Q69 552 141.5 616Q214 680 342 680H444L367 244Q353 161 382.5 115.5Q412 70 482 70Q551 70 593.5 113.5Q636 157 651 244L728 680H818L741 244Q718 117 653 53.5Q588 -10 480 -10Q367 -10 312 60Q257 130 277 244L340 602H330Q243 602 195 558Q147 514 130 418ZM472 857 757 857L746 794H460Z" glyph-name="Umacron.alt" horiz-adv-x="834" unicode="" /><glyph d="M130 418 46 418Q69 552 141.5 616Q214 680 342 680H444L367 244Q353 161 382.5 115.5Q412 70 482 70Q551 70 593.5 113.5Q636 157 651 244L728 680H818L741 244Q728 171 701.5 119.5Q675 68 635 38Q540 -33 506 -67.5Q472 -102 472 -128Q472 -141 480 -148Q488 -155 504 -155Q516 -155 530 -152Q544 -149 559 -143L570 -206Q547 -215 526.5 -219Q506 -223 487 -223Q442 -223 417.5 -203Q393 -183 393 -146Q393 -114 414 -81.5Q435 -49 480 -10Q367 -10 312 60Q257 130 277 244L340 602H330Q243 602 195 558Q147 514 130 418Z" glyph-name="Uogonek.alt" horiz-adv-x="834" unicode="" /><glyph d="M130 418 46 418Q69 552 141.5 616Q214 680 342 680H444L367 244Q353 161 382.5 115.5Q412 70 482 70Q551 70 593.5 113.5Q636 157 651 244L728 680H818L741 244Q718 117 653 53.5Q588 -10 480 -10Q367 -10 312 60Q257 130 277 244L340 602H330Q243 602 195 558Q147 514 130 418ZM627 976Q680 976 709 944.5Q738 913 730 864L727 849Q719 803 686 775.5Q653 748 604 748Q551 748 522.5 779.5Q494 811 502 860L504 875Q512 921 545 948.5Q578 976 627 976ZM669 855 671 870Q675 892 662 906.5Q649 921 624 921Q600 921 583.5 907Q567 893 563 869L560 855Q556 831 569 817Q582 803 607 803Q631 803 648 817Q665 831 669 855Z" glyph-name="Uring.alt" horiz-adv-x="834" unicode="" /><glyph d="M130 418 46 418Q69 552 141.5 616Q214 680 342 680H444L367 244Q353 161 382.5 115.5Q412 70 482 70Q551 70 593.5 113.5Q636 157 651 244L728 680H818L741 244Q718 117 653 53.5Q588 -10 480 -10Q367 -10 312 60Q257 130 277 244L340 602H330Q243 602 195 558Q147 514 130 418ZM669 773Q646 773 628 783.5Q610 794 590 826Q578 844 571 849.5Q564 855 557 855Q544 855 534.5 838Q525 821 518 785H455Q468 855 492.5 889Q517 923 557 923Q581 923 598.5 912.5Q616 902 637 870Q649 852 655.5 846.5Q662 841 669 841Q682 841 691 857.5Q700 874 707 910H770Q758 840 733.5 806.5Q709 773 669 773Z" glyph-name="Utilde.alt" horiz-adv-x="834" unicode="" /><glyph d="M766 0 708 553L455 0H365L339 602H330Q243 602 195 558Q147 514 130 418H46Q69 551 140.5 615.5Q212 680 336 680H425L433 392L434 124L688 680H770L827 125L925 392L970 508Q1007 605 1043 672.5Q1079 740 1117 786Q1170 848 1235 875.5Q1300 903 1396 903L1381 819Q1309 819 1260.5 796Q1212 773 1170 721Q1141 685 1112.5 632Q1084 579 1056 508L855 0ZM901 894 781 764H705L824 930Z" glyph-name="Wacute.alt" horiz-adv-x="1087" unicode="" /><glyph d="M766 0 708 553L455 0H365L339 602H330Q243 602 195 558Q147 514 130 418H46Q69 551 140.5 615.5Q212 680 336 680H425L433 392L434 124L688 680H770L827 125L925 392L970 508Q1007 605 1043 672.5Q1079 740 1117 786Q1170 848 1235 875.5Q1300 903 1396 903L1381 819Q1309 819 1260.5 796Q1212 773 1170 721Q1141 685 1112.5 632Q1084 579 1056 508L855 0ZM876 764 812 764L762 859L677 764H608L729 925H812Z" glyph-name="Wcircumflex.alt" horiz-adv-x="1087" unicode="" /><glyph d="M766 0 708 553L455 0H365L339 602H330Q243 602 195 558Q147 514 130 418H46Q69 551 140.5 615.5Q212 680 336 680H425L433 392L434 124L688 680H770L827 125L925 392L970 508Q1007 605 1043 672.5Q1079 740 1117 786Q1170 848 1235 875.5Q1300 903 1396 903L1381 819Q1309 819 1260.5 796Q1212 773 1170 721Q1141 685 1112.5 632Q1084 579 1056 508L855 0ZM712 890 697 804H611L626 890ZM903 890 888 804H802L817 890Z" glyph-name="Wdieresis.alt" horiz-adv-x="1087" unicode="" /><glyph d="M766 0 708 553L455 0H365L339 602H330Q243 602 195 558Q147 514 130 418H46Q69 551 140.5 615.5Q212 680 336 680H425L433 392L434 124L688 680H770L827 125L925 392L970 508Q1007 605 1043 672.5Q1079 740 1117 786Q1170 848 1235 875.5Q1300 903 1396 903L1381 819Q1309 819 1260.5 796Q1212 773 1170 721Q1141 685 1112.5 632Q1084 579 1056 508L855 0ZM773 764 706 764L631 894L712 930Z" glyph-name="Wgrave.alt" horiz-adv-x="1087" unicode="" /><glyph d="M130 418 46 418Q70 556 135.5 618Q201 680 322 680H386L490 358L704 680H800L520 271L472 0H385L433 271L322 602H310Q230 602 189 560.5Q148 519 130 418ZM716 894 596 764H520L639 930Z" glyph-name="Yacute.alt" horiz-adv-x="734" unicode="" /><glyph d="M130 418 46 418Q70 556 135.5 618Q201 680 322 680H386L490 358L704 680H800L520 271L472 0H385L433 271L322 602H310Q230 602 189 560.5Q148 519 130 418ZM528 890 513 804H427L442 890ZM719 890 704 804H618L633 890Z" glyph-name="Ydieresis.alt" horiz-adv-x="734" unicode="" /></font>
</defs>
</svg>
